<?xml version="1.0" encoding="utf-8"?>
<!-- Generator: Adobe Illustrator 22.1.0, SVG Export Plug-In . SVG Version: 6.00 Build 0)  -->
<svg version="1.1" id="Layer_1" xmlns="http://www.w3.org/2000/svg" xmlns:xlink="http://www.w3.org/1999/xlink" x="0px" y="0px"
	 viewBox="0 0 60 60" style="enable-background:new 0 0 60 60;" xml:space="preserve">
<style type="text/css">
	.st0{fill:#262626;}
</style>
<path class="st0" d="M0,0v60h60V0H0z M20.6,46.7h-7V24.3h7V46.7z M17.1,21.2c-2.2,0-4-1.8-4-4v0c0-2.2,1.8-4,4-4c2.2,0,4,1.8,4,4
	C21.2,19.4,19.3,21.2,17.1,21.2z M46.7,46.7h-7V35.8c0-2.6,0-5.9-3.6-5.9c-3.6,0-4.2,2.8-4.2,5.8v11.1h-7l0-22.4h6.7v3.1h0.1
	c1.4-2.3,3.9-3.7,6.6-3.6c7.1,0,8.4,4.6,8.4,10.7V46.7z"/>
</svg>
