<svg id="Layer_1" data-name="Layer 1" xmlns="http://www.w3.org/2000/svg" viewBox="0 0 82 22.17"><title>logo</title><path d="M31.22,6.53h0L32.38.94h1.91L32.34,9.47H30.47L29,4.21h0L27.58,9.47H25.72l-2-8.53h1.93l1.11,5.59h0L28.34.94h1.37Z"/><path d="M37.13,9.47h-2V.94h2Z"/><path d="M40.59,8h3.67V9.47H38.6V.94h2Z"/><path d="M47.09,8h3.67V9.47H45.1V.94h2Z"/><path d="M1.59,21.47V12.94H4.68a3.47,3.47,0,0,1,2.51,1,3.33,3.33,0,0,1,1,2.52V18a3.33,3.33,0,0,1-1,2.52,3.47,3.47,0,0,1-2.51,1Zm2-7V20h1a1.5,1.5,0,0,0,1.24-.55A2.2,2.2,0,0,0,6.22,18V16.43A2.22,2.22,0,0,0,5.78,15a1.52,1.52,0,0,0-1.24-.54Z"/><path d="M13.85,19.81H11.16l-.48,1.66h-2l2.76-8.53h2.12l2.76,8.53h-2ZM11.6,18.29h1.81l-.89-3h0Z"/><path d="M23.56,18.53h0l1.11-5.59h1.92l-2,8.53H22.81l-1.44-5.26h0l-1.42,5.26H18.05l-2-8.53H18l1.12,5.59h0l1.5-5.59h1.38Z"/><path d="M31.89,19.21a.87.87,0,0,0-.3-.7A3.91,3.91,0,0,0,30.52,18a8.25,8.25,0,0,1-2.4-1.09,2,2,0,0,1-.78-1.69,2,2,0,0,1,.93-1.73,4,4,0,0,1,2.36-.66,3.56,3.56,0,0,1,2.32.73,2.22,2.22,0,0,1,.88,1.87l0,0H31.89a1.07,1.07,0,0,0-.34-.83,1.37,1.37,0,0,0-1-.32,1.54,1.54,0,0,0-.94.26.83.83,0,0,0-.34.65.69.69,0,0,0,.35.6,6.35,6.35,0,0,0,1.28.57,5.87,5.87,0,0,1,2.19,1.07,2.17,2.17,0,0,1,.74,1.74A2.07,2.07,0,0,1,33,21a3.89,3.89,0,0,1-2.32.63,4.32,4.32,0,0,1-2.52-.73,2.33,2.33,0,0,1-1-2.1v0h1.93a1.25,1.25,0,0,0,.4,1.05,1.94,1.94,0,0,0,1.21.32,1.37,1.37,0,0,0,.91-.25A.77.77,0,0,0,31.89,19.21Z"/><path d="M42,18a3.59,3.59,0,0,1-1,2.6,3.87,3.87,0,0,1-5.24,0,3.56,3.56,0,0,1-1-2.6V16.44a3.46,3.46,0,0,1,3.63-3.62,3.5,3.5,0,0,1,2.61,1,3.56,3.56,0,0,1,1,2.6Zm-2-1.54a2.45,2.45,0,0,0-.43-1.5,1.39,1.39,0,0,0-1.21-.59,1.41,1.41,0,0,0-1.23.58,2.52,2.52,0,0,0-.43,1.51V18a2.46,2.46,0,0,0,.44,1.51,1.56,1.56,0,0,0,2.44,0A2.52,2.52,0,0,0,40,18Z"/><path d="M50.26,21.47h-2L45.16,16h0v5.43h-2V12.94h2l3.13,5.44,0,0V12.94h2Z"/><path d="M57.47.63V3.52A1.32,1.32,0,0,1,57,4.59,1.6,1.6,0,0,1,55.93,5a1.57,1.57,0,0,1-1.09-.37,1.35,1.35,0,0,1-.42-1.07V.63h.35V3.52a1.09,1.09,0,0,0,.32.84,1.2,1.2,0,0,0,.84.3,1.23,1.23,0,0,0,.86-.3,1,1,0,0,0,.33-.84V.63Z"/><path d="M59.79,2.45,61,.63h.42L60,2.74,61.47,4.9h-.42L59.8,3,58.55,4.9h-.42l1.46-2.16L58.17.63h.43Z"/><path d="M54.49,13.1V8.83h1.24A1.76,1.76,0,0,1,57,9.35a1.85,1.85,0,0,1,.51,1.34v.55A1.83,1.83,0,0,1,57,12.58a1.72,1.72,0,0,1-1.29.52Zm.35-4V12.8h.89a1.37,1.37,0,0,0,1-.44,1.61,1.61,0,0,0,.41-1.12v-.56a1.6,1.6,0,0,0-.41-1.11,1.38,1.38,0,0,0-1-.44Z"/><path d="M60.83,11H58.77V12.8h2.36v.3h-2.7V8.83h2.68v.3H58.77v1.6h2.06Z"/><path d="M64.32,12.05a.7.7,0,0,0-.26-.57,2.24,2.24,0,0,0-.91-.39,2.92,2.92,0,0,1-1.06-.46.9.9,0,0,1-.36-.75,1,1,0,0,1,.41-.8,1.62,1.62,0,0,1,1-.31,1.52,1.52,0,0,1,1.07.37,1.1,1.1,0,0,1,.39.89v0H64.3a.87.87,0,0,0-.31-.7,1.13,1.13,0,0,0-.82-.28,1.27,1.27,0,0,0-.8.23.7.7,0,0,0-.29.57.65.65,0,0,0,.27.53,2.38,2.38,0,0,0,.92.38,2.71,2.71,0,0,1,1,.48,1,1,0,0,1,.36.79,1,1,0,0,1-.42.81,1.8,1.8,0,0,1-1.07.3,2,2,0,0,1-1.11-.32,1,1,0,0,1-.46-.94h.32a.81.81,0,0,0,.38.73,1.56,1.56,0,0,0,.87.24,1.37,1.37,0,0,0,.82-.22A.69.69,0,0,0,64.32,12.05Z"/><path d="M65.92,13.1h-.35V8.83h.35Z"/><path d="M70.16,12.59a1.3,1.3,0,0,1-.53.39,2.21,2.21,0,0,1-.95.18,1.58,1.58,0,0,1-1.22-.51A1.82,1.82,0,0,1,67,11.34v-.78a1.84,1.84,0,0,1,.45-1.29,1.72,1.72,0,0,1,2.25-.15,1.3,1.3,0,0,1,.45.89v0H69.8a1.07,1.07,0,0,0-1.19-1,1.15,1.15,0,0,0-.93.42,1.59,1.59,0,0,0-.35,1.06v.79a1.63,1.63,0,0,0,.37,1.09,1.23,1.23,0,0,0,1,.43,1.94,1.94,0,0,0,.72-.12,1,1,0,0,0,.41-.26V11.37H68.67v-.3h1.49Z"/><path d="M74.36,13.1H74L71.59,9.43h0V13.1h-.35V8.83h.35L74,12.49h0V8.83h.35Z"/><path d="M54.84,19.53V21.3h-.35V17H56a1.53,1.53,0,0,1,1,.34,1.33,1.33,0,0,1,0,1.82,1.53,1.53,0,0,1-1,.34Zm0-.3H56a1.07,1.07,0,0,0,.79-.27.9.9,0,0,0,.26-.68.92.92,0,0,0-.26-.68,1.07,1.07,0,0,0-.79-.27H54.84Z"/><path d="M58.54,19.37V21.3h-.35V17h1.45a1.64,1.64,0,0,1,1,.3,1.07,1.07,0,0,1,.36.87,1,1,0,0,1-.19.61,1.1,1.1,0,0,1-.56.39.92.92,0,0,1,.57.36,1.08,1.08,0,0,1,.18.64v.4a1,1,0,0,0,.05.36.56.56,0,0,0,.15.26v.07h-.36a.61.61,0,0,1-.15-.3,1.67,1.67,0,0,1,0-.39v-.39a.79.79,0,0,0-.26-.62,1,1,0,0,0-.7-.23Zm0-.3h1.05a1.31,1.31,0,0,0,.85-.23.92.92,0,0,0,0-1.28,1.23,1.23,0,0,0-.8-.23h-1.1Z"/><path d="M65.26,19.51a2,2,0,0,1-.45,1.34,1.54,1.54,0,0,1-1.21.51,1.52,1.52,0,0,1-1.2-.51A2,2,0,0,1,62,19.51v-.69a2,2,0,0,1,.45-1.34A1.5,1.5,0,0,1,63.59,17a1.55,1.55,0,0,1,1.22.51,2,2,0,0,1,.45,1.34Zm-.34-.69a1.71,1.71,0,0,0-.35-1.12,1.21,1.21,0,0,0-1-.42,1.13,1.13,0,0,0-.94.42,1.7,1.7,0,0,0-.34,1.12v.7a1.72,1.72,0,0,0,.34,1.12,1.14,1.14,0,0,0,1,.42,1.19,1.19,0,0,0,1-.42,1.71,1.71,0,0,0,.35-1.12Z"/><path d="M66.19,21.3V17h1.24a1.76,1.76,0,0,1,1.29.52,1.85,1.85,0,0,1,.51,1.34v.55a1.83,1.83,0,0,1-.51,1.34,1.72,1.72,0,0,1-1.29.52Zm.35-4V21h.89a1.37,1.37,0,0,0,1-.44,1.61,1.61,0,0,0,.41-1.12v-.56a1.6,1.6,0,0,0-.41-1.11,1.38,1.38,0,0,0-1-.44Z"/><path d="M73.11,17v2.89A1.36,1.36,0,0,1,72.68,21a1.84,1.84,0,0,1-2.21,0,1.35,1.35,0,0,1-.42-1.07V17h.36v2.89a1,1,0,0,0,.32.84,1.17,1.17,0,0,0,.84.3,1.28,1.28,0,0,0,.86-.29,1.09,1.09,0,0,0,.33-.85V17Z"/><path d="M77.09,20h0a1.47,1.47,0,0,1-.45,1,1.52,1.52,0,0,1-1.08.37,1.45,1.45,0,0,1-1.15-.51A2,2,0,0,1,74,19.51v-.69a2,2,0,0,1,.43-1.33A1.42,1.42,0,0,1,75.56,17a1.55,1.55,0,0,1,1.08.36,1.43,1.43,0,0,1,.45,1h-.33a1.39,1.39,0,0,0-.36-.81,1.17,1.17,0,0,0-.84-.28,1.09,1.09,0,0,0-.9.43,1.79,1.79,0,0,0-.33,1.11v.7a1.8,1.8,0,0,0,.33,1.12,1.09,1.09,0,0,0,.9.43,1.21,1.21,0,0,0,.84-.27,1.33,1.33,0,0,0,.36-.82Z"/><path d="M80.77,17.33H79.3v4H79v-4H77.48V17h3.29Z"/></svg>