<?xml version="1.0" encoding="utf-8"?>
<!-- Generator: Adobe Illustrator 23.0.6, SVG Export Plug-In . SVG Version: 6.00 Build 0)  -->
<svg version="1.1" id="Layer_1" xmlns="http://www.w3.org/2000/svg" xmlns:xlink="http://www.w3.org/1999/xlink" x="0px" y="0px"
	 viewBox="0 0 1508.7 752.9" style="enable-background:new 0 0 1508.7 752.9;" xml:space="preserve">
<style type="text/css">
	.st0{fill:#FFFFFF;}
	.st1{fill:#008000;}
</style>
<path class="st0" d="M43.5,47c14.7-7.2,29.2-10.6,43.7-13.6c102.3-20.9,205.7-29.2,310.5-20c12.3,1.1,25,0.3,37.9,4.7
	c0.4,15.3-3.3,30.2-6.3,45c-3.1,14.8-3.5,30.3-8.9,45.7c-10.6-1.1-20.6-1.8-30.5-3.1c-32.7-4.1-65.4-3.4-98.1-1.1
	c-42.2,3.1-84.3,6.7-126.3,10.9c-30.7,3.1-61.3,7.5-92,11.3c-4.1,0.5-8.2,0.9-13.2,1.4c-6.2-12.9-7.2-26.6-9.9-39.9
	C47.6,74.9,44.2,61.6,43.5,47z"/>
<title>KNOW-YOUR-CARBON-FOOTPRINT_colour</title>
<path d="M811.4,548.1c-3.6,6.4-13.3,24.5-17.1,30.9c-6.5,11.2-15,21.1-25,29.3c-12.2,9.8-25.9,13.2-41.5,9.3
	c-12.3-3.1-24.9-16.3-24.9-34.8c2.8-53.2,16.5-84.5,17.1-90.4c0,0-12.8,13.6-24.9,18.7c-2.4,16.7-24.2,99.4-79.2,104.5
	c-12.1-0.2-36.7-6.7-41.6-39.1c-2.7-19.8,7.5-49.7,9-56.3c0,0-14.3,7.2-26.8,6.6c0,0-9.7,40.9-33.7,70.8
	c-13.4,16.1-32.3,20.5-51.4,12.2c-16-6.9-29.6-26.6-14.8-88.8c3.8-17.9,12-43.6,26.8-44.2c2.2-8.7,0.4-48.5,39.1-56.4
	c33.8-9.6,61.6,17.5,40.7,89.1c10.7,1.1,26.2-11.2,26.2-11.2c6.1-17.2,15.1-28.5,29.5-26.8c3.2-14.4,6.6-20.8,9.9-25.9
	c8.1-12.5,20.1-17.5,34.8-16.2c33.1,2.3,32.7,56.2,33.5,61.8c10.2-2.5,31.1-27.2,35.6-50.4l-27.7-0.8c-1.5,0-2.7-1.3-2.6-2.8
	c0-0.1,0-0.3,0.1-0.4l2.1-10.6c0.2-2.7,7.3-4.7,10-4.7c8.5,0.1,21,0.2,24.5-0.3c0,0,4-18.9,9.2-33.1c1.5-4,4.9-6.9,9-7.8
	c8.8-1.9,19-3.2,28.2-2.1c3,0.4,5.1,3.1,4.8,6.1c0,0.2,0,0.3-0.1,0.5l-7.6,35.7l41.3,0.9l-2.9,10.2c-1.5,4.5-5.6,7.6-10.3,7.8h-32.5
	c-1.3,2.6-45.8,162.6-34.7,163.4c22.5,5.5,70-88.3,80.3-119c2.6-11.6,6.7-28.5,9.1-38.6c0.9-3.9,4.4-6.7,8.4-6.8
	c10.3-0.3,29,0.2,31.1,7.4c0.6,6-5.2,29.7-7.7,44.5c0,0,19.8-54.1,65.7-52.9c15.8,0.4,33.1,25.1,29.2,52.7
	c-5.9,30.4-15.9,59.3-31.2,86.3c-12,20.3-36.3,44-65.2,41.1c-11.3-2.8-19.3-9.8-22-12.3c-8.1,34.2-25.6,108.2-27,112.3
	c-5.1,13.9-42.4,5.8-42.5,3.2C771.2,716.2,812.7,545.9,811.4,548.1z M868.7,598.2c16.7,0.1,75-137.6,51.6-141.7
	c-30.2,3.7-64.2,86.9-64.2,86.9C849.6,562.9,850.6,598.2,868.7,598.2L868.7,598.2z M627.1,502.8c-26,48.6-13,97.1,2.9,92.9
	c34-19.6,43.4-78.2,43.4-78.2C660.7,522.9,633.2,517.1,627.1,502.8z M494.1,599.9c13.8,0,39.1-51.6,42.7-71.9
	c-7-1.7-31.4-7.1-37.1-17.9C486.7,542.1,483.7,596.8,494.1,599.9z M541.5,433.5c-15.5-7.5-44.9,69.3,0.9,76.6
	C542.4,510.1,564.8,445.5,541.5,433.5z M663,445.6c-8.2-3.7-23.7,68.7,14.4,52.9c0,0,2.3-20.2-1.4-32.8
	C673.8,458.3,671.6,450.4,663,445.6L663,445.6z"/>
<path d="M411.3,516.9c-2.3,0.8-14.1,0.9-14.4,1.8c0,0-14.2,94.6-63.2,183.4c-21,34.7-62.1,54.5-96.3,50.2
	c-67.9-7.5-114-67.1-80.1-156.5c15.4-34.8,55.4-46,87.4-33.8c51.5,24.9,22.5,97.3,1.5,106.9c-12.2,3.3-25.8,3.3-30.8,1.5
	c11.9-10.5,26.7-56,13.9-83.9c-9.9-16.9-78.7,9.2-45.8,104.1c10.1,27.3,51.9,50,78.6,34.8c25-15.1,37.2-45.4,55.4-90.1
	c16.7-47,27.1-85.4,32.4-112.7c-13.7-0.5-27.2,3.6-38.3,11.6c-5.3,3.9-7.2,9.5-9.2,15.4l-18.5-4.2c-0.2-5.3,14.5-22,26.4-28
	c15.1-6.1,35.8-6.9,43.1-8.4c10.5-44.4,22.6-89.8,41.7-131.4c-1.9-1.4-57.5-20.5-87.1-28.8c-38.3-8.6-76.1,3.9-96.3,15.6
	c-25,14.5-39.4,36.5-45.4,64.2c-13.1,62,41,77.1,64.3,64.2c12.9-8,22.8-18.7,28.6-32.8c8.1-19.5,13.7-39.4,8.7-61
	c-1.1-4.6-4.6-13.3-4.8-17.1c4.5-5.5,23.4-3.4,32.8,6.4c7.9,6.6,11.1,15.9,12.1,26.1c4.1,42.9-26.5,87.1-68,98.3
	c-16.5,4.5-33.9,4.3-50.4-0.5c-6.4-1.8-16.1-6.3-21.5-10.2c-28.7-20.9-40.8-61.4-28.2-94.5c4.1-10.9,19.9-40.7,43-55.3
	c34.5-19.3,70.3-27.3,111.2-26.8c35.7-0.6,71,5.8,105.2,17.1c12.8,4.2,25.9,7.6,38.9,11.5c48.1,14.5,96.5,17.5,145.2,2.6
	c5.9-1.8,11.7-3.9,17.7-5.2c1.6-0.3,3.4,0.1,5.5,0.6c2,0.5,3.2,2.6,2.7,4.6c-0.1,0.2-0.1,0.4-0.2,0.6c-5.7,12.5-8,19.2-21.5,24.1
	c-36.8,13.3-79.2,17.9-117.5,11.3c-10.2-1.8-20.5-3.2-30.5-4.7c-12.7,17.7-36.5,86.5-39.3,116.5c3.4,0.1,25.2-1.8,28.2-2.3
	c11-1.9,16.1,3.2,14.8,14.5c-0.3,2.4-16.8,38.3-8.6,63.9c-0.2,1-22.3-6.4-29.6-9.3C400.4,552.8,410.5,535.8,411.3,516.9z"/>
<path d="M1125.2,582.4c6.6-8.1,38.3-47.9,54.1-92.9c5-15,10.3-41.2,13-46c3-5.4,35.7-2.6,36.1,3.7c0.4,6.1-5.9,28.9-5.9,28.9
	s20.8-38.2,39.7-40.2c35.2-0.8,41.3,18,40.8,34.5c-1.1,18.7-32,98.4-34.8,110.9c-3.6,13.4,1.7,21.2,9.7,19.2
	c10.4-2,52.5-85.3,67.2-119.1c4.1-9.4,10.8-27.2,10.8-27.2s-40.7-11.3-52.2-22.3c-3-3-5.7-6.3-7.8-10c-1.8-3,0.5-7.8,3.8-9.2
	c5.5-2.3,10.8-2.2,15.8,1.3c3.5,2.5,6.7,5.4,10.2,7.9c10.2,7.1,34.9,13.4,34.9,13.4c1.6-3.5,10.8-32.4,13.9-43
	c1.5-5.1,19-8.6,31.3-9.9c5.5-0.6,10.5,3.9,9.9,9.4c0,0.3-0.1,0.7-0.2,1c-2.2,9.5-10.2,39.3-10.2,39.3s66.3-15.1,99.9,2.9
	c6,0.7,4,16.6-2,16c-31.1-13.1-102.7,3.2-102.7,3.2s-34.3,86.9-47.6,213.1c-1.7,31.5,14,35.5,26,31.2c14.6-5.2,27.1-15.2,35.2-28.4
	c13.4-21.1,24.9-67.8,9.3-94.7c-1.5-2.5-0.7-5.8,1.8-7.3c0.8-0.5,1.7-0.8,2.6-0.8c14,0,25.6,8.3,31.2,17.3
	c9,14.2,33.1,88.8-67,126.3c-18.5,6.6-69.9,9.1-78.3-41.9c-7.9-58.4,16.8-120.2,17.1-123.9c0,0-26.8,52-37.5,62.4
	c-12,11.7-26.4,15.1-42.5,12.3c-18-3.1-26.9-19-23.2-42c2.5-13.8,44.7-113.5,32.4-116.3c-11.9-3.7-30.1,31.6-36.3,44
	c-20.5,38.1-28.5,94.3-30.2,100.8c-1.7,8.3-24.1,17.4-38.2,10.3c-4-1.9-6.5-6-6.4-10.4c0-3.6,8.4-27.7,10.7-39.4
	c-4.1,4.2-18.6,24.3-25,31.7c-12.2,14-31.4,18-48.8,11.6c-8.3-3.1-16.8-18.1-12.9-40.6c2-11.5,31.9-118.4,36-125.9
	c4.3-7.8,41.3-2.4,41.6-0.3c0.8,5.4-27.8,103.8-35.2,133.6C1112.3,587,1120.3,588.9,1125.2,582.4z"/>
<path class="st1" d="M37.5,43.4C52.6,35,67.5,31,82.5,27.6C187.9,3.2,294.5-6.3,402.5,4.3c12.7,1.2,25.8,0.3,39.1,5.5
	c0.4,17.7-3.4,35.1-6.5,52.3s-3.6,35.2-9.2,53.2c-10.9-1.2-21.2-2.1-31.5-3.6c-33.7-4.7-67.4-4-101.1-1.3
	c-43.5,3.6-86.9,7.8-130.2,12.7c-31.7,3.6-63.2,8.7-94.8,13.1c-4.2,0.6-8.4,1-13.6,1.6c-6.4-15-7.4-30.9-10.2-46.4
	C41.7,75.9,38.2,60.4,37.5,43.4z M333.9,64.1c-1.3-3.2-10.7-30-13.3-37.5c-1.1-3-10.3,0.3-11.6,2.9c-0.5,0.9,0,2.4,0.3,3.6
	c5.3,16.9,11.8,39.2,17.2,56.2c0.4,1.1,10.2,3,12.9-1.4c2.5-4.1,12.9-36.6,12.9-36.6s12.8,30.2,16.6,36.3c1.7,3.1,14.4,0.9,14.4,0.9
	c4.9-15.8,13.5-42.4,18-58.3c0.9-2.9,1-5.9,0.3-8.8c-0.5-1.9-9.9-3.1-11.3-1.6s-1.7,4.5-2.5,6.8c-3.2,10.5-12.9,41-12.9,41
	s-15.2-31.3-17.5-35c-2.2-3.4-13.1,0.2-13.1,0.2C343.1,35.4,335,64,333.9,64.1L333.9,64.1z M165.9,66.6c1.2-0.3,27.9,30.4,31.2,34
	c1.8,2.5,12.8-2.3,12.8-2.3c1.2-16.5,1.8-67.1,1.4-69.5c-0.5-3.4-12-3.4-12.7-0.3C197.6,32,197,68,196,76.1
	c-3.6-4.4-24.9-28.8-32.6-37.5c-1.6-1.8-11.3-3-12.6-0.4c-0.5,1-0.1,8,0,9.2c1.2,14.7,2.5,29.4,3.9,44c0.2,2.4,0.8,10.5,1.9,12.5
	c0.7,1.3,10,1.2,10.7-0.1c1.1-2-0.1-10.1,0-12.5C167.5,84.7,165.8,73.2,165.9,66.6L165.9,66.6z M85.7,46.5l-12.8,2.1
	c1.5,12.8,11.6,61.1,14.3,68.5c0.8,2.1,13.6,1.1,13.9-2.3l-3.9-22.7c0,0,30.9,22.1,33,21.6c2-0.5,10.4-10,9.4-11.2
	c-1.6-1.7-24.6-15.5-34.5-21.6c5.2-7.4,19.4-25.1,20.4-28.5c0.4-1.3-8.7-7.6-10.6-6.8c-2,0.9-23.8,27.8-23.8,27.8
	C88.9,63.2,87.2,54.8,85.7,46.5L85.7,46.5z M270.3,26.1c-15.5-6.7-26.3,7-31.4,15.8c-6.8,15.6-2.7,33,10,43.3c15,12.2,33,8,40.5-9.9
	C300.4,55.5,284.5,32.2,270.3,26.1L270.3,26.1z"/>
<path class="st1" d="M223.1,235.2l-10.9,7.7c1,10.1,1.4,28.5-11.2,57.3c-11,20.7-34.2,25.9-53.1,11.9
	c-13.9-10.3-19.6-25.1-20.5-41.6c-0.7-12.2,0.3-24.5,1.3-36.8c0.7-8.6,0.7-18.5,0.7-18.5c-10.1-12.3-3.3-52.1,21-52.3
	c55.3-5,57.2,54.7,59.1,61.1c-4.7,3.2,12.2-6.5,15.6-14.7c0.8-11.1,4.3-33.1,8.5-43.4c1.7-4.1,25.8-7,24.9,5.2
	c-1.2,15.9-16.7,105.4-3.5,108.1c23.2,4.5,23.9-87.1,26.2-106c0.3-2.4,0.4-4.9,0.8-7.3c0.6-3.4,2.9-5.9,6.2-5.3
	c2.7,0.4,16.8,2,18.6,4c1.5,1.6,1.6,4.5,1.9,7c-8.6,61.2,6.9,117,6.6,122.5c-0.2,3.4-2.5,6-5.9,5.9c-2.8-0.1-12-0.8-13.7-2.7
	c-2.3-2.6-8.6-19.8-7.7-40.8c-3.1,10.1-7.4,19.7-12.9,28.7c-9.8,13.8-36.2,16-44.4,1.1C226.1,277.7,219.1,266.9,223.1,235.2z
	 M185.8,249.3c-12.1,0.8-25.7-2.1-33.7-7.7c-2.3,12.3-1.1,53.3,11.3,62.5C183.7,317,189,271.5,185.8,249.3z M155.5,173.1
	c-8.2,0-9.7,28.2-3.3,42c6.1,13.1,17.1,17.8,33.4,17.8C184.7,217.8,182.2,175.3,155.5,173.1z"/>
<path class="st1" d="M84.6,282.8c-4.9,5.9-8.7,10.7-12.7,15.3c-11.5,13-31.4,14.3-44.4,2.8c-1-0.9-1.9-1.8-2.8-2.8
	c-6.3-6.8-10.6-15.1-12.4-24.2c-1.5-7.2-2.2-14.6-2.2-22c0.3-23.3,1.1-46.7,1.8-70c0-1.8,1-8.5,1-10.4c0.3-9.6,10.1-8.9,20.4-6.8
	c2.3,0.7,4.7,4.2,5.2,6.8c1.1,6.7,1.7,13.4,1.7,20.1c0,17.8-13.8,100.5,9,103.4c30.4,0,34.7-67.9,31-114.5
	c0.2-7.7,8.5-11.1,15.7-10.6c4.6,0.3,8.4,2.2,9.2,7.3c2.2,13.3,4.8,26.6,6.4,40c4.4,37.3,5.1,74.7,4.6,112.3
	c-0.1,13.5-2.7,27-7.8,39.5c-5,12.7-14.2,23.3-26,30.2c-14.6,8.6-30.5,12.9-47.2,14.6c-2.4,0.2-4.9,0.2-7.4-0.1
	c-22.6-2-34.9-21.2-23.5-42.3c7.1-13.2,17.2-23.8,28.8-33.1c2-1.4,4.4-2.3,6.8-2.5c1.8-0.2,3.6,0.4,4.9,1.6c0.9,1.5,1.1,3.4,0.3,5
	c-3.1,4.5-6.9,8.6-10.1,13.1c-4.6,6.5-9.7,12.8-13,19.9c-2.2,4.7-2.6,10.8-1.7,16c1.5,9.2,8.6,13.1,17.7,11.1
	c26.9-5.8,43.6-22.8,47.8-49.5C89.3,331.3,86.2,285.2,84.6,282.8z"/>
<path class="st1" d="M299.4,141.9c28.9-15.3,58.4-17.9,88.3-3.5c7.1,3.6,13.6,8.4,19.1,14.1c13.4,13.8,16.2,28,12,49.1
	c-5.6,16.9-15.5,30.5-30.9,39.8c-4.7,2.8-9.4,5.5-14.7,8.6c9.1,14.1,26.1,48.8,68.5,38.6c-21.7,33.2-50.8,15.2-59.6,7.9
	c-8.3-6.9-17.1-17.4-25.6-26.2c0,0,0.6,23-2.5,32.6c-4,5-9.4,5.3-15.1,4c-4.6-1-7.6-3.9-8-8.8c-0.2-2.4-0.4-4.9-0.4-7.3
	c-0.8-30.7-1.7-61.4-2.2-92.1c-0.2-11,0.8-22.1,1.5-33.1c0.7-10.8,6.4-13.8,15.4-14.7c8.3-0.8,12.9,3.2,12.8,11.5
	c-0.1,9.8-1.5,72.6-0.9,76.4c3.1-1.9,26.4-9.2,32.4-42.3c5.4-29.2-16.9-60-49.8-55c-8.4,1.3-16.6,4.1-24.9,6.3
	C308.9,149.3,298.5,142.4,299.4,141.9z"/>
<path d="M1016.9,486.3c4.7-7.7,7.3-11.8,9.7-15.9c4.7-7.9,9-16,13.9-23.8c3.7-6,9.7-7.1,16.2-6.1c6.3,1,9.9,5.4,10.7,11.1
	c1.2,8.4-0.5,43.9-2.5,52.9c-1.3,6,2.4,8.7,5.9,12.5c-3,8-10,10.3-17.4,11.2c-8.1,1-16.3,0.1-22.4-6c-2.4-2.3-3.9-6.3-4.3-9.8
	c-0.7-6-0.2-12.2-0.2-18.3c-3.9-0.2-4.5,2.7-5.3,4.6c-6.9,17-27.4,100-30.5,104.4c-4.9,6.8-19.4,9.4-26.9,5.5
	c-2.8-1.5-11.4-5.3-11.7-8.3c-0.8-6.6,33.6-157.1,34.8-160.6c0.7-5.4,16.3-7.2,27.8-1c3.4,1.7,5.5,5.2,5.3,9
	C1020.2,453.3,1018.1,476.1,1016.9,486.3z"/>
<path d="M1158.4,393.9c0.3,14.7-9.4,23.9-26.8,21.8c-5.2-0.9-15.2-12.2-6.6-26.6C1133.9,374.1,1156.2,375.8,1158.4,393.9z"/>
<path class="st1" d="M278,62.2c-0.4,1.7-0.6,4.8-1.7,7.5c-3.6,8.9-11.8,10.6-19.2,4.3c-9.5-8.1-11-20.8-3.7-31.3
	c3.1-4.5,7.7-5.5,12.9-3.1C275.4,43.8,277.4,51.9,278,62.2z"/>
<path d="M526.6,322.4h-3.7l-1-2.3h-5v-1.7l-7.1-5.7v-1.3h-1.4l-5-3.7l-2.3-1v-3.7l-7.1-7.4v-1.3l-2.7,1.3l2-3.7l-8.1-11.8v-5.4
	l-1.3-1v-2.4l-3.4-8.8l-1.4-1.3v-7.1l2-2l-4.4-4.4v-19.5l-1.3-4.7V204l1.3-7.4v-17.2l3.7-18.2v-4.7l1.3-8.8v-5l2-9.4l1.3-2.4
	l5.4-20.2L501.3,93l21.5-17.2l14.8-7.7l8.8-1.7h18.2l10.8,2.4l3.7,1.3l17.2,8.4L611,93l3.7,7.4l3.4,3.7v4.7l4.7,5v7.4h4v3.6l1,2
	l2.7-1l-2.7,3.7h2.7l1,2.4l-1,1.3v7.4h3.4l1,1v5l-3.4,3.7l-1-2.7h-1.3v3.7l1.3,1.4l-2.7,3.7l-1-3.7l-6.3,5.1l3.7-5l-1.3-1.4
	l-7.4,6.4l-3.4,1l-3,3l-9.4,3l-2,1.4h-2.7l-1,2.4l-3.7-2.4l-8.1-17.5l-5.1-23.9l-10.4-18.5l-10.8-11.1l-3.7-1l-1.3-1.4l-5.7,5.1
	l3.7-5h-1.3l-5,6.1v2.7h-2.4l-1.3,5l-2.4,3.4v4.7h-2.3v4h-3.4v8.1l1,1.4v2.7l-1,1v2.7l-1.3,2.4v9.8l-2.7,4.7v2.7l2.7,1l-1.3,1.4v2.4
	l-1.7,5.4l1.7,2v5l-3,5.4l3.7,3.4l-2.7,8.1h2v8.4h-2.3v1.4h2.3l-1.3,2.4h-2.4v6.4h2.4l1.3,1l2.7-2.4l1,1.3l-2.3,4.4l-2.7,1.3
	l2.7,2.7v2.4l-5,1.7v3.4h3.7l-1.7,3.4h4.4l-1.3,1.3v23.9l4.7,1.7v8.4h2.3v7.4l5,7.1v6.4h2.4l-1.3,2.3l4,2v3h4.4l-1,2l3.7,4v3
	l7.1-3.7l2,2.4l5.4-5.7l6.4-10.8l3.7-12.1h2.4v-7.4l-2.4,1.3l2-4.4l1.7-9.1l2-17.2l1.3,2.7l2.3-10.1l2,2l4.4-4l3.7,3.4h4.7l2.3-1.3
	v1.5l2.4,1.3l4-3.7l2.7,2.7l3.7-2l4.4,11.4v11.1l2.4,2.4v7.4l1.3,1v3.7l-3.2,1.7l2,2l2.7-1.3l-1.3,2.7h-3.7l-2.6,1.3l2.7,1l-5,1.3
	l1.3,2.3l-1.3,2.4v2.3l-1.3,3.7h1.3l2.3,2.7v2.4h-4.4l-2.7,3.7l-2.4,4.7l-2.7,2.4v3.4l5-7.7v4.4L601,307.7v-3.7l-2,3.7h7.1l-1.3,2.3
	h-1.3l-5.7,4v-1.7l-1.3-1l-3.7,3.7h-12.1l-1.3,2.4l-1.7-1.7l-2,1.7v1.3h2.7l-1.3,1.3h-5l1.3-1.3h-3.7v2.4l-1.3,1.3l-1.3-1.3l-2,2.3
	l-5-1h-17.3l-4.7,2l1-1h-9.4L526.6,322.4z M531.6,302.9h2.4v-2.7l1-1v-2.7l-16.8-20.2l-1.3,3.4l2.3,2.4v7.4l2.7-2.4l-1.3,2.4
	l3.7-1.7v5h3.7l1.3,3.7h2.3l-1,3.7l1,1.3L531.6,302.9z M531.6,280.7V277l1.3-1.3v-7.1l-2.4,7.1l-2,2L531.6,280.7z M531.6,283.4h3
	l-0.7-2.7L531.6,283.4z M541.4,287.1h-5l5,4.4V287.1z M537.4,303.3l3,1.7l-1.7-5.7L537.4,303.3z M541.4,305.3l1,1.3v-2.7
	L541.4,305.3z M555.9,292.8v2.7l-1.3-2.7H555.9z M614.1,302.9l-2,4.7l-5.4-4.7L614.1,302.9z M618.1,297.9v1.3l-2.7,3.7v-2.7
	L618.1,297.9z M622.8,273.7l1.3,1l-5.4,6l4-9.4L622.8,273.7z M619.2,261.2l2.7,1.3l-1.3-2.7L619.2,261.2z M634,151.5l-1.3,2.7v-1.3
	L634,151.5z M637.7,147.8l-1.3,1.4v-1.4H637.7z"/>
<path d="M771.2,194.6v-10.1h3v7.7l1.3,1.4v2.3l1.7,1.7v1.3l2.3,1l-2.7,2.7l1.3,6.7l3.4,5.4h2l-1,3v3.4l4,5.4v10.9l4.4,2.7h1.7
	l-1.7,3.7l0.7,5.4l2,3.4v4.4l3.7,10.8l-1.7,2l-3-9.4l-1,3l2,4.7v4l3.4,2.4l2-3v4.4l2.3,1l2.8,14.2l-4,10.8l-1-1.3l-2,5.4l-4.4,2.4
	l-4,4l-0.7,3.7l-1.3,1l-2.4,5.4l-1.7,1.3h-2.4v-3h-2v4l-2.7-1l-1.3-1.3l-1.7,3.4l-7.5-13.4l-1-5l-2.3-1.3v-2.3l-1.4-5.4l-7.7-18.8
	l0.7-1l-0.7-5.4l-2-3.7l-1.3-1v-2l-6.7-2.7l-2.3,3.4l3,1.3l-2.7,3l-1.7-1.7l-10.1,4l-1-4.4l-5.4,1.3l-1.3,4H714v-3l-2.7,1.3l1,1.7
	H710l-1.3-2.4l-7.1,8.4l-0.7-2.4l-3.4,6.4l-1.7,1.3v1.7l2.7-1.7l-1.7,3.4v2.4l-2.3,3l2.3,1l-5.4,8.4v6.4l-9.4,11.8v2.3l-6.1,6.1
	l-1.3-1.3l-1-2.3v2.3l-1.7,3l-2.3,1.3l-1,2l-1-1v-7.7l-2.3,7.7v-5.4l-2.7,6.4l-1.3-1v-7.8l-1.3,4.4l-1.7-2l-2.4,3.4l-2.7-6.8l-1,2.3
	l-2.3-7.7l-3-3.7l-1-20.5l2-32.3l48.3-180.7l6.7-12.5l5-2.7l5,0.7l2.7-1l4.7,1l0.7-2h1.3v1.3h7.1l3.4,3.7l2,6.1l7.4,13.5v3l2.7,4.7
	v5.4h2.3l2,4.7l-1.3,2.4l2.7,3v2l2,5.4v4.7l3,4.4l0.7,3.7l2.4,3.4v5.4l1,1l2-1v3.4l-3,2.4v3l1,1.3v10.1h2l-2,2v2l5-2.4l4,1.7
	l-2.5,3.5l2.7,7.1l3,3l-4.7,4v4.5l1.7,2.4l1.3-2.4l1,1l-1,2.4L771.2,194.6z M694.5,303.3l-1,3.7v-2.4L694.5,303.3z M710,232.9
	l20.9-2.7l6.1-1.7l-0.7-7.4l-2.4-4.7l-1-5l-2.7-3l-2.4-9.5l-6.7-15.5l-2.7,10.1v4l-4.4,15.8v4.4l-1,2.3v7.8l-3,2.3L710,232.9z
	 M729.5,268.9h9.1l-2-2.4L729.5,268.9z M733.9,235.3v-1.6h-2L733.9,235.3z M732.9,257.8h4l-2-3.7l-1,2.7L732.9,257.8z M738.9,252.4
	h2l-0.7-1L738.9,252.4z M742.3,257.8l2.7-2.3l-0.7-4l-1,2.7l-3.7,2.4L742.3,257.8z M746.3,262.5l1-1l-1-1.3l-1.3,1.3L746.3,262.5z
	 M774.2,207.7l1.3-4h-2.3L774.2,207.7z M775.6,214.8h1.7l-1-2.4L775.6,214.8z M776.2,223.5l2-1l1.3,1v-4.7h-2.3L776.2,223.5z
	 M786.7,246.7l1.3-1.3v-3l-1.3-1l-4-6.1l-1.7,2l3.4,11.8v-6.7L786.7,246.7z M791.7,259.2v-2.4l-0.7-1.3v-3l-3-5.4v7.1l1.7,3.7
	L791.7,259.2z M797.2,283.1l1-1.7l-2.4-3.4L797.2,283.1z M806.6,285.8v3.4l-1,1.3v-3.7L806.6,285.8z"/>
<path d="M827.1,321.8l0.7-1l-1-1.3l-2.3-17.2l0.7-23.5l-1-13.1l2.7-2.7l-2-5.4l0.7-6.1l-0.7-8.4l1.7-47.8l-4-57.2l1.7-14.5
	l-1.7-22.5l1.7-12.8l11.4-2.7l-1-1.3l3.4-1l-1.3-2.4l2.3-1.3h17.8l9.4-1h29.9l8.4,1h8.4l10.8,3.7h1.3l4.7,2.4l6,1l1.3,2.7l3.7,1
	l1.3,1.4l2.3-1.4l0.3,2.4h2.2l7.4,6.1l-1,2.4l3-1.7l4.4,4l1,14.5l-1.3,2.4l5,4.7l-0.7,2.4l1,1.3l2.7-1.3l2,14.5l2-1.3l-0.7,3.7
	l-2.3,2l5.4,6.4l-2,4.7l1,1l-4,9.8l-1,4.7h3.7l-2.3,2.4l1.7,1l-1.3,1.4l-2.4-1.4l-1.3,5.4l-3,3l0.3,3.7l-1,2.4l-1.3-3.7l-1.7,4
	l3,9.4l-2.3,8.1l-2.4,2.4l-1,2.3l-2,1.3v1.7l-3.7,2l-2,2.3l-2.4,1l-1.3,2.4l-1-1l-6.7,4l-1.3,5.7l-3.4-1.3h-3.4l-2.3,2.4h-1.3
	l-0.7,1h-3.7l-2.3,1.5h-7.1l-7.1,3.4l-0.3-4.7l-3,4.7l2-1l0.3,2.3l1,1l0.3,6.1l2.7,2.3l0.3,3.7l-1,1l5,5l-0.3-2.3l2-6.1l1.3,1l1-2.4
	l1.7,3.7l-1.3,1l0.7,9.8l2.3,2.4l1.3-2.4l1,2.4l-3,3.7l0.3,4.7h2.3l2.4-1.3l2.3,2.4h-3.7l-1,1.3l1.3,1v3.7l3,1.3l1.7,1.7l1.7-6.7
	h3.4l-3,3l2,2l-2,8.1l2.3-2.3l2.7,5l1.3,1v1.3h3l2.7,4.7h3l0.3,1.7l5.7,3l12.5,4.7l-3.4,1.3l-1,1l6.4,1.7l3-1.7l1-2.4l7.1-1l1,1
	l-1,3.4l7.1-3.7l-11.8,20.5l-2,5l-6.4,7.1l-4.7,2.4h-19.1l-4.7-2.4l0.7-2.3l-3,1.7l-4-1.7l-2.3-2.4l-7.4-4.7l-1.7-3.7h-2.3l-6.4-7.1
	l-1.3-2.3l-4.4-5.7l-10.8-25.6l-8.4-11.8l-13.2-12.4l-2.7,5.7l-2,2.3v4.7l2.4-3.7l1.7,1.7l-2.3,5.4h2.3l2.4-1l-2,3.7v3.4l-0.7,8.4
	l0.7,9.4l-0.7,2.7l1,2.3l-0.7,2.4l1,1l-1,1.3h2.4l0.3,2.4l-1.3,1l1.3,1.3v1.3h-1.3l-3,2.3v2.4h4.7l-2,2.3v3.4l2.7,2.7l-1.3,1
	l0.3,2.4h-4.8l-2.3,2.4l-10.4,4.7l-1-1l-2.4,2.4h-2.7l-2,1.3H842l-1.3,2.4l-1-1.3l-1.5,1.3l-3.7,1l-6.4-11.8L827.1,321.8z
	 M855,263.2h1.3l-0.3-3.4l-1.3,1L855,263.2z M858.7,333.9l2-2.7h3.7v-4.4l-7.7,5L858.7,333.9z M858.4,172.7l1,2.4l-1-3.7V172.7z
	 M860,196.6h2.4l-1.3-1.4L860,196.6z M860.4,270.6l2.3-1.3l-1.7-2.3L860.4,270.6z M861.7,311h2.4l-0.3-7.1l-2.3,1L861.7,311z
	 M862.4,290.8l1.7,0.7l-0.3-4.4L862.4,290.8z M867.4,204.6l8.4-2.4l23.6-3.4h3.4l2.4-1.4h3.7l16.5-5.6h2.4l2-2.7l2.3-1l4.4-3.7h2.3
	l-0.3-8.4l1-1l-1.3-1.4l-0.3-3.4l1.7,1l-0.3-2.4l-1.3-1l-3.7-19.2l-5.7-17.5l-6.8-6.4l-14.5-7.1l-17.2-1.3h-25.9l-1.3,6l3,22.5
	l-0.3,8.4l-1,4.7l1.3,21.5l1.7,3.7l0.7,10.8l2,5.7l-2.7,1.4L867.4,204.6z M863.1,272.9l2-2.3l-2.4,1L863.1,272.9z M864.1,325.4
	l1-1.3h-2.4L864.1,325.4z M905.2,229.9h2.3l-0.3-3l-3.4,1.7L905.2,229.9z M911.9,254.8v1.3l-1.3-1.3H911.9z M914.9,267.9v-2.3h-1.3
	L914.9,267.9z M916.2,271.7v-2.4l-1,1.3L916.2,271.7z M925.3,262.2l-1,2.4l-0.3-2.4H925.3z M943.2,313.3l2.3-1l-5-4.7h-2.3l-4-2.7
	l-0.3-3.4l1.3-1.3l-1.3-1l-1,1l0.7,7.4L943.2,313.3z M938.2,327.8h2.3l-0.3-1.3L938.2,327.8z M942.5,306.3h2.4v-1.3L942.5,306.3z
	 M958.7,312.7l-0.3-1.7l-6.1-2.3h-2.3l-1-1h-2.4l-1.3,1h2.3l2.4,2.3L958.7,312.7z M965.1,114.2v1.4l-2.4-1.4H965.1z M964.7,191.9
	l0.3,4.7h-1.3l-0.3-3.7L964.7,191.9z M966.7,121.2l0.3,1.3h-1.3l-0.3-1.3H966.7z"/>
<path d="M1013.8,330.2l-2.3-2.7l-1,2.7l-1.3-1.3v-1.3h-3.7L1003,89.6l1-3.7v-2.7l6.7-10.8l6.7-2.4l2.7-5h46.1l3.4,1.4h6.1l6.4,1.3
	h9.8l1,1.4h8.4l6.1,5.7h3.7l2.3,1.4h2.4v3.7l5.4,5.4l3.4-1.7l3.7,3.7v4.4l3.4,1.4v2.7l-3.4,2v4l1.3,3.4l4.4-4.4v2l2.7,2.7v11.1
	l1.3,1v12.1l1,3.7l-1,2.4l1,1.3v6.1l-7.4,15.5l-6.7,7.1l3.4,2.7l-3.7,4v4.7l-1.3,3.7l9.8,4v1.7l3.4-1.3l8.8,7.4v8.1l3.7,2v2.4
	l2.4-4.7l1.3,2.4v4.7l1,1.3l1.3-2.7l1.3,2.7l2.4-1.3l-3.7,3.7v6.1l2.3-1.3v1.3l-3.4,3l3.4,1.7l2.4-1l-2.4,3.4v2.9l-2.7,10.1l2,3.7
	l-1.7,18.8l-1.3,1.3v6l-1,4.7v5l-2.7,4.7l1.3,1.3l-1.3,1.3v5.7l-1,1.3l-1.7,6.7l-3.4,3l-1,3.7l-5.4,5l-5.7-2.7v6l-6.1,2.4l-1.3-1.7
	l-2.4,4h-2l-4,3.7l-1-2.7l-3.7,5v-2.2l-3.7,2.4h-4.7l-3.7,3.7h-6l-2.4,2.7h-7.5l-2.3-1.3l-2.7,2.4h-5.7l-6.7,2.4l-23.9-2.4h-12.1
	l-2.3-1l-1,2l-2.7-2l-1.3,2h-3.4l-2.4-2L1013.8,330.2z M1082.1,292.5l1-3.7l1.3-2.7h3.4l5.7-1.7l1.7,1.7l5-4.7h2.4l9.8-4.7h2.4V273
	l5-2.7v-7.1l4.7-6.7l1-4.4l4-6.4l-8.2-17.2l-9.8-6.4l-24.2-2l-31.3,3.4l1.7,3.4l-1,6.1v20.5l-1.3,2.7v11.8l-2.7,5.7l1.7,11.4
	l-2.7,2.4l2.7,2.4h3.4v1.3l2.4-1.3l4,1.3h5.7l2.7-1.3l4.7-1l2.4-1.3l1.3,3.7L1082.1,292.5z M1056.5,177.1l9.8-2.4l3.4-1.4l3.7-1
	l9.1-4.7l12.8-10.1l2.4-2.4v-3.7l4-11.1h2l2-5.4l-11.4-14.8l-7.7-8.1l-17.8-4.4h-15.8v15.8l2.3,27.9L1056.5,177.1z M1077.1,293.5
	v-2.4l-1.3,1.3L1077.1,293.5z M1084.5,167.3l2.3,1l7.4-8.4L1084.5,167.3z M1086.8,298.9l1.7-0.7l-1.7-3.4V298.9z M1107.3,285.8
	l3.7-1.7h-3.7V285.8z M1122.5,93.7l2-1.3l2.7,1l-1.7-4.7l-2.3,2.3h-1.3l-1,1.4L1122.5,93.7z M1140.3,305.7l1-1h-2.4L1140.3,305.7z
	 M1143.7,295.9h2.7v-4.7l-1.3,3.7L1143.7,295.9z"/>
<path d="M1311.6,248.4l0.7,1l-0.7,1.3v2.3l-1.3,2.4l-4.7,14.1v6.1h-3l-1.7,4.7l-2.4,2.3v2.7l-2.3,4.7h-2l-3,5.7l-2.4,7.4l-2.3,2.3
	l-1,2.4l-3.7,3.7h-1.3l-9.4,9.4h-4.8l-4.7,2.3h-3.7l-4.7,2.4l-1.3-1l-3.4,1h-13.2l-1.3-1h-3.4l-3.7-1.3h-3.7l-16.5-4.7h-5l-9.4-4.7
	l-9.4-9.4l-8.4-15.8l-7.1-27.2l-6-46.8v-40.4l2.3-15.5v-6.7l10.7-29.3v-2.4l16.5-23.9l13.1-13.1l15.5-12.8l13.4-2.7h3.4l7.4-2.4h5.7
	l12.1-1.4l9.1,1.7l14.8,8.4l2.3,4.4v1.4l3.7,1.7l11.8,15.8l10.8,27.6l1,1.4l-2.4,1v1.3h1.3v6.1l1,1l2.3,6l1.3,6.1l-2.4,1v6.1
	l3.4-1.4v20.5l1.7,1.7l-2.4,16.5l2,2v9.4l-1,2.4l-1.3-7.1v4.7l1,2.7l-2.4,4.7v3.4l1.3,1.3l-1.3,2.4l1.3,1l-2.4,1.3l2.4,2.4v2.4
	l-3.7,3.7v4.7l-1,2.3l1,1.3l-1.3,5.7l1.3,1.3l-2.7,4.4l-0.7-2L1311.6,248.4z M1243.6,287.8l16.5-5l15.5-15.5v-11.8l6.4-54.5
	l-1.7-25.6l-7.1-39.4l-7-18.8l-6.4-11.4L1247,93.3h-7.4l-8.1,14.1l-8.1,10.8l-1.3,6l-1.3,2.4l-8.4,37l-2.7,40.4l2.7,16.8v10.8l2.3,1
	v7.4l2.4,11.8l1.3,16.8l8.8,19.2L1243.6,287.8z M1294.7,292.5l-2.4,6.1l1-5L1294.7,292.5z M1318.6,152.9h-1.3l1.3-1.4V152.9z"/>
<path d="M1330.4,309.3l-2-14.5l4.8-211.6l2-4l7.7-7.7l9.4,2l9.8-5l7.1,3.7l5.7,10.4l8.1,8.8v2.4l3.7,2.4v3.7l1,1.4l-1,1l1,1.4l2.4,1
	l1.3,1.4l-1.3,1v2.7l1.3,1.3v3.4h4.7l-2.3,3.7v1.3l2.3,2.4l2.4-1l-2.4,3.4l3.4,1.4l2.3-1.4l-1,3.7v3.7l1,1.3v3.4l1.3,1.3l1-3.7v7.7
	l4,5.7h-2.7v2.7l5,7.7v6.7l2.4-7.4l1,6.4v4.7l2.4,2.7v2.4l3.7,5.7l2.4-1l-1.3,6l1.3,2.4l3.4-3.4v3.4l-1,1.3l1,2.4v5.1l3.7,3.4
	l2.7,10.4l3,3.4v3.4l1.3,1.3V207l-1.3-1.4l2.4-1l-2-6.4l3.7-60.9l8.1-59.5l3.7-9.8l1,1.4l1.3-2.4l1,1l2.4-1v2.4l2.3-2.4l5.4,5l3-1.7
	l1,2.4h2.4l1.3,1.4l2.7-1.4h2.5l2.4-1v2.4l3.4,3.7l2.4,8.4l-1,1.4l1.7,2l-1.7,1.7V96l1,1v2.7l-1,1.4v16.9h3.4v7.4h-3.4v23.2l1.7,1.7
	l-3,5.7h1.3v8.4l-1.3,1.3l-1,7.4l-1.3,3.4l1.3,1.4v9.8l2.3,1l-3.7,1.7v14.5l1.3,1v7.4l1.7,18.8l-1.7,9.1v-6l-1.3-2.4v-3.7h-2.3v21.9
	l1.7,3l-2,5.7l2.7,11.8l-1,1.3v14.8l-1.7,3l2.7,2.7h4.6l1.3,1.7l-1.3,1v1.3h2.3l1.3,1l-4.7,3.8l-4,6.1h-7.1l-5.4,3l-1.7-1.7l-1,2.4
	l-1.3,1l-1,2.3l-6,4h-3.4l-1.3,2.3h-3.4l1-2.3l-4.7,2.3l-1-2.3l-19.9-21.1l-34-68l-1-3.4l-6.1-11.1l-7.1-18.2l-1,1v19.5h-1.7v3.7
	l1.7,2.7l-1.7,1l1.7,4.7v4l1,2.4l-2.7,2.4v5h3l-2.7,7.4l3,2.7l-3.4,3v1.3l4,1v2.4l-2.3,2.7v8.4l1,1v5h-2.6v16.2l1.7,4.7l-6.4,9.8
	l-2.3,2.4l-2.7,5.7l-2-2.4l-2.4,1.7l-1.7,3l-3-3l-2.3,3.4l-1.3-2.7l-3.4,1.7l-2.4,2.3h-2.3l-1-2.3l-1.7,2.3l-2.3-4.7h-2.4l-3.4-6.4
	L1330.4,309.3z M1405.4,177.8l1,2.4l-1-3.7V177.8z M1410.4,174.1v-2.4l-2.2-2.7v2.7L1410.4,174.1z M1429.2,216.8h2.4v-2.4l-1.7-2
	l-2.4,2.4L1429.2,216.8z M1430.2,231.3v-1.3l-2.3-4.7v3.7L1430.2,231.3z M1432.6,237.3l1.3-1l-1.3-1.3l-1,1.3L1432.6,237.3z
	 M1460.2,212.1h2.3l-1.3-2.7l-1,1L1460.2,212.1z M1467.3,174.1v-7.4h-1.3l-1,2.4l1,1.7l-1.7,3.4L1467.3,174.1z M1465.9,185.2
	l1.3-1.4l-1.3-1l1.3-1.3v-6.1l-2.3,2.4L1465.9,185.2z M1465.9,195v-2.4l3-6.7l3,1.7v-6l-7.1,7.1L1465.9,195z M1464.9,219.2l4.4-3
	l4.7-9.1l-3.4-7.4l-1,5l-1.3,1l-1-8.4h-2.3L1464.9,219.2z M1465.9,152.2h2.3v-5h-2.3V152.2z M1468.6,255.2l7.1-12.8v-11.1l-1.3-1.7
	l1.3-4.4l-1-1v-6.4l-2.7-2.4l-1.3,1.3l-1,7.4l3.4-1.7l-2.3,6.4v8.4l2,1.7l-2,9.4l-1-2.3l-1.3-16.2v-7.1l-2.3,2.4v11.1l1.3,5.4
	l-1.3,3l1.3,1.3l-1.3,3.4l1.3,7.4L1468.6,255.2z M1465.9,221.5h2.3l-1-2.4l-1.3,1L1465.9,221.5z M1470.6,165.7l2.3-1.3l-1-3.4l1-2.7
	v-7.1l-4.6,4.7l-1,2.4l2.4-1.3v7.4L1470.6,165.7z M1471.6,207.1l-2,6.1h-2.4l2-6.1H1471.6z M1468.3,270.3h1.3l1-6l1.3,1.3l1,3.4
	l2.7-7.4v-4.7l-3.7,3.7h-3l2.4-4.7h-3L1468.3,270.3z M1468.3,276.4h1.3l1.7-5.4l-3,2.7L1468.3,276.4z M1472,174.1l1-1l-1-5h-1.3
	L1472,174.1z M1472,115.5h2.7v-2.4h-2.7V115.5z M1473,133.7v-7.4l-1,1.4L1473,133.7z M1472,251.8l3.7-1v-4.7l-2.7,2.3L1472,251.8z
	 M1473,105.8h1.7v-1.4h-1.7V105.8z M1473,141.1l1.7-5h-1.7V141.1z M1475.6,203.4h1.5l2.7-3l-2.3-4.7l-2.7,1.7L1475.6,203.4z
	 M1475.6,194.3l3.7-1.7l-2.4-1.3l1-3.7v-2.4l-2.4,2.4L1475.6,194.3z M1478,171.8l1.3-3.7l-1.2-6.1l-1-1L1478,171.8z M1477,183.9
	l1-3.7l-1-2.4V183.9z M1478,116.6h1.3v-3.4l-1.3,1V116.6z M1478,135.1l1.3-1.4v-2.4l-1.3,1.3V135.1z"/>
</svg>
