<svg id="Layer_1" data-name="Layer 1" xmlns="http://www.w3.org/2000/svg" viewBox="0 0 283.55 376.78"><title>bp</title><path d="M218.64,43.91c0,8.21-2.91,19.55-14.54,19.55-14,0-14-15.74-14-19s0-20.06,14.43-20.06C217.64,24.35,218.64,38.89,218.64,43.91ZM190.27,0h-9.43V60.55l-.21,9h9.12l.21-7.62A16.11,16.11,0,0,0,194.88,67a19.82,19.82,0,0,0,11.22,3.21c6.92,0,13.64-2.91,17.66-8.63,2.51-3.3,4.81-8.62,4.81-18.35,0-11-3.41-16-5.92-19-4.61-5.21-10.93-6.42-15.94-6.42-11.43,0-15.15,6.33-16.44,8.63Z" transform="translate(-0.02)" style="fill:#222"/><path d="M244.81,45.91c0-4.51,0-20.45,15-20.45,11.14,0,13.85,9.42,13.85,18.45,0,3.61-.5,10.83-4.11,15.74-3.21,4.41-8.23,4.92-10.63,4.92C245.72,64.57,244.81,52,244.81,45.91Zm-9,43h9.33v-25c2.69,4.42,8.11,7.52,15.43,7.52,12,0,23-8.22,23-27s-10.32-26.07-21.15-26.07c-4.11,0-12.44,1.2-17.14,9.12l-.21-8.32h-9.52c.2,4.81.3,6,.3,8.22Z" transform="translate(-0.02)" style="fill:#222"/><path d="M141.72,88.93A203.5,203.5,0,0,1,159,120.44a140.19,140.19,0,0,0-17.31,23.24,140.13,140.13,0,0,0-17.3-23.24A205.6,205.6,0,0,1,141.72,88.93Z" transform="translate(-0.02)" style="fill:#222"/><path d="M141.72,322A140.81,140.81,0,0,0,159,345.27a203.09,203.09,0,0,1-17.32,31.51,204.75,204.75,0,0,1-17.3-31.51A138.75,138.75,0,0,0,141.72,322Z" transform="translate(-0.02)" style="fill:#222"/><path d="M92.56,97.61a204.11,204.11,0,0,1,27,23.7,139.4,139.4,0,0,0-8.32,27.75A140.14,140.14,0,0,0,87,133.19,202.78,202.78,0,0,1,92.56,97.61Z" transform="translate(-0.02)" style="fill:#222"/><path d="M172.23,316.66a140.57,140.57,0,0,0,24.2,15.91A203.17,203.17,0,0,1,191,368.11a208.36,208.36,0,0,1-27-23.7A140,140,0,0,0,172.23,316.66Z" transform="translate(-0.02)" style="fill:#222"/><path d="M49.22,122.61a202.22,202.22,0,0,1,33.51,13c-.09,2.22-.17,4.45-.17,6.63a135.21,135.21,0,0,0,1.82,22.28,139,139,0,0,0-28.17-6.66A204.39,204.39,0,0,1,49.22,122.61Z" transform="translate(-0.02)" style="fill:#222"/><path d="M200.89,323.48a136.54,136.54,0,0,0-1.81-22.3,139.69,139.69,0,0,0,28.16,6.66,203.4,203.4,0,0,1,7,35.26,202.22,202.22,0,0,1-33.51-13C200.82,327.87,200.89,325.64,200.89,323.48Z" transform="translate(-0.02)" style="fill:#222"/><path d="M53,161.68a139.79,139.79,0,0,0,11.44,26.51,138.32,138.32,0,0,0-28.74,3.42A201.87,201.87,0,0,1,17.1,160.85,203.54,203.54,0,0,1,53,161.68Z" transform="translate(-0.02)" style="fill:#222"/><path d="M247.72,274.06a204,204,0,0,1,18.65,30.76,204.62,204.62,0,0,1-36-.77A140.32,140.32,0,0,0,219,277.48,137,137,0,0,0,247.72,274.06Z" transform="translate(-0.02)" style="fill:#222"/><path d="M34,196.29A139.55,139.55,0,0,0,53.9,217.37a139.93,139.93,0,0,0-25.88,13A202.73,202.73,0,0,1,0,207.85,205,205,0,0,1,34,196.29Z" transform="translate(-0.02)" style="fill:#222"/><path d="M255.44,235.32a203.55,203.55,0,0,1,28,22.53,203.93,203.93,0,0,1-34,11.57,138.15,138.15,0,0,0-19.88-21.07A139.13,139.13,0,0,0,255.44,235.32Z" transform="translate(-0.02)" style="fill:#222"/><path d="M28,235.32a139.31,139.31,0,0,0,25.88,13A139.48,139.48,0,0,0,34,269.39,203.93,203.93,0,0,1,0,257.82,204.51,204.51,0,0,1,28,235.32Z" transform="translate(-0.02)" style="fill:#222"/><path d="M249.41,196.28a204.88,204.88,0,0,1,34,11.58,205.44,205.44,0,0,1-28,22.52,140.1,140.1,0,0,0-25.9-13A137.53,137.53,0,0,0,249.41,196.28Z" transform="translate(-0.02)" style="fill:#222"/><path d="M35.74,274.06a137,137,0,0,0,28.74,3.42A139.32,139.32,0,0,0,53,304a203.53,203.53,0,0,1-35.94.78A202.68,202.68,0,0,1,35.74,274.06Z" transform="translate(-0.02)" style="fill:#222"/><path d="M266.37,160.89a203.23,203.23,0,0,1-18.65,30.76A139,139,0,0,0,219,188.19a140.32,140.32,0,0,0,11.44-26.57A204.61,204.61,0,0,1,266.37,160.89Z" transform="translate(-0.02)" style="fill:#222"/><path d="M84.38,301.19a135.45,135.45,0,0,0-1.82,22.3c0,2.16.08,4.39.17,6.62a202.22,202.22,0,0,1-33.51,13,203.4,203.4,0,0,1,7-35.26A139.69,139.69,0,0,0,84.38,301.19Z" transform="translate(-0.02)" style="fill:#222"/><path d="M234.24,122.61a203.69,203.69,0,0,1-7,35.27,138.35,138.35,0,0,0-28.16,6.66,136.42,136.42,0,0,0,1.81-22.29c0-2.18-.07-4.4-.17-6.62A201.19,201.19,0,0,1,234.24,122.61Z" transform="translate(-0.02)" style="fill:#222"/><path d="M111.22,316.66a140.12,140.12,0,0,0,8.34,27.75,206.22,206.22,0,0,1-27,23.7,203.19,203.19,0,0,1-5.49-35.54A140.37,140.37,0,0,0,111.22,316.66Z" transform="translate(-0.02)" style="fill:#222"/><path d="M191,97.6a203.87,203.87,0,0,1,5.48,35.59,139.23,139.23,0,0,0-24.2,15.91,140.09,140.09,0,0,0-8.33-27.75A207,207,0,0,1,191,97.6Z" transform="translate(-0.02)" style="fill:#222"/><path d="M122.67,124.78a132.33,132.33,0,0,1,16.69,23.07,97.28,97.28,0,0,0-8.68,22.34,97.44,97.44,0,0,0-15.8-18A131.93,131.93,0,0,1,122.67,124.78Z" transform="translate(-0.02)" style="fill:#222"/><path d="M152.77,295.51a97.49,97.49,0,0,0,15.81,18,133.25,133.25,0,0,1-7.79,27.4,131.88,131.88,0,0,1-16.69-23.08A97.73,97.73,0,0,0,152.77,295.51Z" transform="translate(-0.02)" style="fill:#222"/><path d="M86.73,142.26c0-1.46.07-3,.11-4.46a132.8,132.8,0,0,1,23.58,16,103.43,103.43,0,0,0-1.07,14.39,93.49,93.49,0,0,0,.56,9.61,97.38,97.38,0,0,0-21-11.55A127.83,127.83,0,0,1,86.73,142.26Z" transform="translate(-0.02)" style="fill:#222"/><path d="M174.1,297.56a93.85,93.85,0,0,0-.56-9.62,96.8,96.8,0,0,0,21,11.57,127.91,127.91,0,0,1,2.15,24c0,1.45-.06,3-.09,4.42a131.53,131.53,0,0,1-23.6-16A100.21,100.21,0,0,0,174.1,297.56Z" transform="translate(-0.02)" style="fill:#222"/><path d="M57.65,162.32a134,134,0,0,1,27.62,6.93A96.66,96.66,0,0,0,93,192a97.65,97.65,0,0,0-23.71-3.69A132.67,132.67,0,0,1,57.65,162.32Z" transform="translate(-0.02)" style="fill:#222"/><path d="M190.45,273.74a97.57,97.57,0,0,0,23.7,3.69,131.25,131.25,0,0,1,11.66,26,131.59,131.59,0,0,1-27.63-7A96.81,96.81,0,0,0,190.45,273.74Z" transform="translate(-0.02)" style="fill:#222"/><path d="M66.91,192.39a97.69,97.69,0,0,0,15,18.72,97.78,97.78,0,0,0-23.52,4.65,131.81,131.81,0,0,1-19.83-20.45A133.7,133.7,0,0,1,66.91,192.39Z" transform="translate(-0.02)" style="fill:#222"/><path d="M225,250a131.44,131.44,0,0,1,19.83,20.46,134.05,134.05,0,0,1-28.31,2.93,99.62,99.62,0,0,0-15-18.74A96.88,96.88,0,0,0,225,250Z" transform="translate(-0.02)" style="fill:#222"/><path d="M57.56,220.43a98,98,0,0,0,20.51,12.44,96.49,96.49,0,0,0-20.51,12.41,132,132,0,0,1-25.62-12.41A130.4,130.4,0,0,1,57.56,220.43Z" transform="translate(-0.02)" style="fill:#222"/><path d="M225.85,220.43a130.92,130.92,0,0,1,25.62,12.43,132.59,132.59,0,0,1-25.62,12.42,96,96,0,0,0-20.52-12.41A96.94,96.94,0,0,0,225.85,220.43Z" transform="translate(-0.02)" style="fill:#222"/><path d="M58.43,250A96.82,96.82,0,0,0,82,254.6a97.82,97.82,0,0,0-15,18.74,133.43,133.43,0,0,1-28.39-2.93A131.69,131.69,0,0,1,58.43,250Z" transform="translate(-0.02)" style="fill:#222"/><path d="M244.87,195.31A133.19,133.19,0,0,1,225,215.76a97.46,97.46,0,0,0-23.48-4.65,100.21,100.21,0,0,0,15-18.72A133.39,133.39,0,0,1,244.87,195.31Z" transform="translate(-0.02)" style="fill:#222"/><path d="M93,273.74a97,97,0,0,0-7.73,22.71,132.28,132.28,0,0,1-27.62,7,132.33,132.33,0,0,1,11.64-26A97.6,97.6,0,0,0,93,273.74Z" transform="translate(-0.02)" style="fill:#222"/><path d="M225.81,162.31a131.83,131.83,0,0,1-11.66,26,97.57,97.57,0,0,0-23.7,3.69,96.66,96.66,0,0,0,7.73-22.73A132.28,132.28,0,0,1,225.81,162.31Z" transform="translate(-0.02)" style="fill:#222"/><path d="M130.68,295.51a97.35,97.35,0,0,0,8.68,22.35,132.4,132.4,0,0,1-16.69,23.08,131.84,131.84,0,0,1-7.79-27.4A97.25,97.25,0,0,0,130.68,295.51Z" transform="translate(-0.02)" style="fill:#222"/><path d="M109.91,287.94a93.88,93.88,0,0,0-.56,9.63,103,103,0,0,0,1.07,14.36,131.38,131.38,0,0,1-23.58,16c0-1.47-.11-3-.11-4.44a128.32,128.32,0,0,1,2.17-23.95A97,97,0,0,0,109.91,287.94Z" transform="translate(-0.02)" style="fill:#222"/><path d="M160.78,124.77a132.78,132.78,0,0,1,7.78,27.42,97.82,97.82,0,0,0-15.81,18,97.58,97.58,0,0,0-8.67-22.36A132.31,132.31,0,0,1,160.78,124.77Z" transform="translate(-0.02)" style="fill:#222"/><path d="M196.56,137.8c.05,1.5.11,3,.11,4.45a128.15,128.15,0,0,1-2.11,23.94,97.42,97.42,0,0,0-21,11.56,93.85,93.85,0,0,0,.56-9.62A101.65,101.65,0,0,0,173,153.76,133.57,133.57,0,0,1,196.56,137.8Z" transform="translate(-0.02)" style="fill:#222"/><path d="M113.56,168.19a98.85,98.85,0,0,1,.69-10.88A90.1,90.1,0,0,1,129.46,176a81.68,81.68,0,0,0-1.31,14.22c0,2.06.13,4.12.29,6.18a82.31,82.31,0,0,0-13.88-15A85.54,85.54,0,0,1,113.56,168.19Z" transform="translate(-0.02)" style="fill:#222"/><path d="M155.31,275.55c0-2.08-.14-4.12-.3-6.19a82.64,82.64,0,0,0,13.88,15,83.15,83.15,0,0,1,1,13.19,96.64,96.64,0,0,1-.7,10.89A90.75,90.75,0,0,1,154,289.77,80.74,80.74,0,0,0,155.31,275.55Z" transform="translate(-0.02)" style="fill:#222"/><path d="M90,171.24a90.82,90.82,0,0,1,20.69,12.33,82.2,82.2,0,0,0,6.05,19.55,81,81,0,0,0-18.2-9.36A90.38,90.38,0,0,1,90,171.24Z" transform="translate(-0.02)" style="fill:#222"/><path d="M166.69,262.6A82,82,0,0,0,184.88,272a90.76,90.76,0,0,1,8.56,22.51,90,90,0,0,1-20.68-12.29A82,82,0,0,0,166.69,262.6Z" transform="translate(-0.02)" style="fill:#222"/><path d="M72.06,192.64a90.84,90.84,0,0,1,23.65,4.55,82.18,82.18,0,0,0,12.38,16.3,82,82,0,0,0-20.33-2.63A90.46,90.46,0,0,1,72.06,192.64Z" transform="translate(-0.02)" style="fill:#222"/><path d="M175.35,252.27a82.26,82.26,0,0,0,20.36,2.62,89.87,89.87,0,0,1,15.68,18.19,90.05,90.05,0,0,1-23.66-4.52A80.8,80.8,0,0,0,175.35,252.27Z" transform="translate(-0.02)" style="fill:#222"/><path d="M86.28,215a82,82,0,0,0,17.15,11,81.74,81.74,0,0,0-19.87,4.6,90,90,0,0,1-21-11.75A90.47,90.47,0,0,1,86.28,215Z" transform="translate(-0.02)" style="fill:#222"/><path d="M199.92,235.07a89.55,89.55,0,0,1,21,11.77,90.68,90.68,0,0,1-23.76,3.84A81.9,81.9,0,0,0,180,239.62,81.28,81.28,0,0,0,199.92,235.07Z" transform="translate(-0.02)" style="fill:#222"/><path d="M83.56,235.07a81.67,81.67,0,0,0,19.93,4.56,81.65,81.65,0,0,0-17.17,11.05,90.68,90.68,0,0,1-23.76-3.84A89.91,89.91,0,0,1,83.56,235.07Z" transform="translate(-0.02)" style="fill:#222"/><path d="M197.18,215a90.28,90.28,0,0,1,23.76,3.85,90,90,0,0,1-21,11.75A81.58,81.58,0,0,0,180,226.09,81.58,81.58,0,0,0,197.18,215Z" transform="translate(-0.02)" style="fill:#222"/><path d="M108.11,252.28a80.83,80.83,0,0,0-12.4,16.28,89.9,89.9,0,0,1-23.65,4.52,90.29,90.29,0,0,1,15.7-18.19A82.65,82.65,0,0,0,108.11,252.28Z" transform="translate(-0.02)" style="fill:#222"/><path d="M211.39,192.64a90.72,90.72,0,0,1-15.68,18.18,81.81,81.81,0,0,0-20.36,2.63,81.64,81.64,0,0,0,12.38-16.26A90.92,90.92,0,0,1,211.39,192.64Z" transform="translate(-0.02)" style="fill:#222"/><path d="M141.72,271.7a82.85,82.85,0,0,0,7.92,18.86,90.48,90.48,0,0,1-7.92,22.75,90.88,90.88,0,0,1-7.92-22.75A81.78,81.78,0,0,0,141.72,271.7Z" transform="translate(-0.02)" style="fill:#222"/><path d="M128.44,269.36c-.16,2.07-.29,4.11-.29,6.19a81.85,81.85,0,0,0,1.28,14.23,90.75,90.75,0,0,1-15.21,18.67,94.17,94.17,0,0,1-.69-10.88,84.57,84.57,0,0,1,1-13.2A82.86,82.86,0,0,0,128.44,269.36Z" transform="translate(-0.02)" style="fill:#222"/><path d="M116.76,262.6a81.91,81.91,0,0,0-6.05,19.59A90.6,90.6,0,0,1,90,294.52,89.67,89.67,0,0,1,98.56,272,81.86,81.86,0,0,0,116.76,262.6Z" transform="translate(-0.02)" style="fill:#222"/><path d="M141.72,152.42a90.12,90.12,0,0,1,7.93,22.77,82.69,82.69,0,0,0-7.93,18.86,81.78,81.78,0,0,0-7.92-18.86A90.1,90.1,0,0,1,141.72,152.42Z" transform="translate(-0.02)" style="fill:#222"/><path d="M169.23,157.27a96.46,96.46,0,0,1,.7,10.88,84.57,84.57,0,0,1-1,13.2,82.69,82.69,0,0,0-13.89,15c.16-2.06.3-4.12.3-6.18a80.92,80.92,0,0,0-1.29-14.24A90,90,0,0,1,169.23,157.27Z" transform="translate(-0.02)" style="fill:#222"/><path d="M193.44,171.24a90.83,90.83,0,0,1-8.56,22.52,80.71,80.71,0,0,0-18.19,9.36,82.25,82.25,0,0,0,6.07-19.55A89.62,89.62,0,0,1,193.44,171.24Z" transform="translate(-0.02)" style="fill:#222"/></svg>