<svg id="Layer_1" data-name="Layer 1" xmlns="http://www.w3.org/2000/svg" xmlns:xlink="http://www.w3.org/1999/xlink" viewBox="0 0 182.53 46.45"><defs><clipPath id="clip-path" transform="translate(0.09 0.03)"><path d="M23.34,4.91A18.41,18.41,0,0,0,17,6L14,16.71H40.46A18.31,18.31,0,0,0,23.34,4.91ZM12.79,28.71a7,7,0,0,1-2.87-.46A3.26,3.26,0,0,1,8,25.1a14.82,14.82,0,0,1,.87-4.27l3.5-12.26A18.32,18.32,0,1,0,40.82,28.71Z" style="fill:none"/></clipPath></defs><title>castrol</title><path d="M32.22,0A87.33,87.33,0,0,0,21.37.41C14.79,1.17,9,4,5.37,8.21A23.2,23.2,0,0,0,6.92,39.78c3.37,3.29,7.7,5.3,13.25,6.12a65.64,65.64,0,0,0,10.67.48H170L182.44,0Zm137,45.34h-136c-9,0-18.41.59-25.48-6.3A22.26,22.26,0,0,1,6.22,8.86c3.71-4.37,9.54-6.74,15.32-7.42A82.79,82.79,0,0,1,32.22,1H181.08Z" transform="translate(0.09 0.03)" style="fill:#222"/><path d="M159.52,31.32a8.31,8.31,0,0,0-.23,1.64c0,1.36,1.05,1.64,2.19,1.64h2.28l-.92,3.91h-4.55a9.88,9.88,0,0,1-3.24-.4,4.09,4.09,0,0,1-2.55-4.06,12.23,12.23,0,0,1,.41-2.82C153.19,30,159.33,8,159.33,8l7-1.32S159.74,30.31,159.52,31.32Zm-38.3-17.63h-4.87l1.9-7-7,1.14-1.54,5.88h-2.42l-1.07,3.86h2.41s-3.74,13.61-4,14.75a10.53,10.53,0,0,0-.36,2.37A3.58,3.58,0,0,0,107,38.24a10.12,10.12,0,0,0,2.74.27h4.83l1.08-3.91h-2.43c-1.09,0-2.1-.1-2.1-1.37a7.19,7.19,0,0,1,.18-1.13c.14-.56,4-14.53,4-14.53h4.86Zm-15.7-.14a18.91,18.91,0,0,0-5.29-.72c-5.14,0-10.59,2.77-10.64,8.56,0,5.24,6.33,7,6.29,10,0,2.41-2.17,3.32-4.26,3.32A19.67,19.67,0,0,1,86.5,34l-1.16,4a24.38,24.38,0,0,0,7,1c5.2,0,10-3,10.06-8.61s-6-6.79-5.93-10c0-2.47,2.49-3.19,4.55-3.19a15.82,15.82,0,0,1,3.36.33Zm-36.6-1.16c0-4.52-3.06-6.11-7.16-6.11a13.24,13.24,0,0,0-10.29,5c-3.69,4.42-6.74,13.77-6.74,19.46,0,6,2.46,8.84,8.51,8.84,8.44,0,10.48-6.85,12.45-13.63L58.4,27.32c-.59,1.91-2.06,7.43-4.61,7.43-1.55,0-1.87-1.46-1.87-2.73,0-3.83,2.28-11.13,3.65-14.77.73-1.91,2.6-6.33,5.15-6.33a1.37,1.37,0,0,1,1.17.61,2.29,2.29,0,0,1,.3,1.28A7.36,7.36,0,0,1,62.05,14c-.18.9-1.51,5.71-1.51,5.71l7-1.22A24.89,24.89,0,0,0,69,12.39Zm67.59,1.15a9.92,9.92,0,0,0-4.21-.68,20.16,20.16,0,0,0-8.82,1.84l-6.61,23.81h6.65l5.7-20.72a8.75,8.75,0,0,1,3-.5,12.5,12.5,0,0,1,1.73.06ZM87,22.61,82.8,38a36.49,36.49,0,0,1-9.12,1.22c-3.91,0-7.79-1.9-7.79-6.33,0-7.69,8.29-9.88,14.49-10.47a10.26,10.26,0,0,0,.64-3.1c0-1.72-1.51-2.14-3-2.14a24.81,24.81,0,0,0-6.78,1.18l1.09-4.19a21.41,21.41,0,0,1,7.56-1.31c3.73,0,7.74,1.19,7.74,5.64a16.09,16.09,0,0,1-.57,4.14ZM72.77,32c0,1.55.73,2.78,2.41,2.78a8.47,8.47,0,0,0,1.88-.14l2.23-8.16c-3.07.37-6.49,1.88-6.49,5.52Zm78.12-3.69c-2.13,6-5.65,10.8-12.56,10.8-4.79,0-7.52-2.33-7.52-7.25A21.28,21.28,0,0,1,132,25.3c2-5.73,6.19-12.44,13-12.44,5.07,0,7.52,2.56,7.52,7.57a25.59,25.59,0,0,1-1.64,7.88ZM144.77,17.2A2.32,2.32,0,0,0,143,18c-1.74,1.71-3.74,6.91-4.73,10.93a18.33,18.33,0,0,0-.67,4.16c0,1.07.49,1.68,1.34,1.68a2.85,2.85,0,0,0,1.87-1,12.85,12.85,0,0,0,2.25-4c1.69-4,2.91-9.24,2.91-11C146,18,145.75,17.2,144.77,17.2Z" transform="translate(0.09 0.03)" style="fill:#222"/><path d="M19.48,21a.43.43,0,1,1,.13.85H18.32a.43.43,0,1,1-.13-.85h1.29Zm-2.42-1.16h.72a.29.29,0,0,1,.3.3h0a.29.29,0,0,1-.29.29h-.73a.29.29,0,0,1-.31-.29h0A.31.31,0,0,1,17.06,19.81ZM14.85,21.1h.73a.3.3,0,0,1,.11.59h-.84a.3.3,0,1,1-.11-.59A.21.21,0,0,1,14.85,21.1Zm-1.4-1.29h.77a.29.29,0,0,1,.3.3h0a.29.29,0,0,1-.29.29H13.5a.29.29,0,0,1-.3-.28h0A.3.3,0,0,1,13.45,19.81Zm-.82,5.81h-.72A.3.3,0,1,1,11.8,25a.21.21,0,0,1,.11,0h.72a.3.3,0,0,1,.24.35A.3.3,0,0,1,12.63,25.62ZM13.4,23h-.73a.3.3,0,0,1-.24-.35.3.3,0,0,1,.24-.24h.73a.3.3,0,0,1,.11.59A.21.21,0,0,1,13.4,23Zm1.38,1.29h-.72a.3.3,0,1,1,0-.6h.72a.3.3,0,0,1,0,.6Zm1.44,1.31h-.73a.3.3,0,0,1-.24-.35.3.3,0,0,1,.24-.24h.73a.3.3,0,0,1,.24.35A.3.3,0,0,1,16.22,25.62Zm0-2.6a.3.3,0,1,1-.11-.59H17a.3.3,0,0,1,.24.35A.3.3,0,0,1,17,23Zm1.28,1.42a.42.42,0,0,1-.43-.41h0a.43.43,0,0,1,.42-.44h1.23a.43.43,0,1,1,0,.86Z" transform="translate(0.09 0.03)" style="fill:#222"/><path d="M27,20.53h.81a.36.36,0,0,0,0-.72H27a.36.36,0,0,0,0,.72Z" transform="translate(0.09 0.03)" style="fill:#fff"/><path d="M24.22,21.89h1.34a.5.5,0,1,0,0-1H24.22a.5.5,0,0,0,0,1Z" transform="translate(0.09 0.03)" style="fill:#fff"/><path d="M25.29,24a.5.5,0,0,0-.5-.5H23.47a.5.5,0,0,0-.5.5.48.48,0,0,0,.5.47h1.32A.48.48,0,0,0,25.29,24Z" transform="translate(0.09 0.03)" style="fill:#fff"/><path d="M22.57,23.37a.66.66,0,0,0,0-1.32h-.95l-.4,1.32Z" transform="translate(0.09 0.03)" style="fill:#fff"/><path d="M28.6,21.76h.81a.36.36,0,0,0,.36-.36h0a.37.37,0,0,0-.36-.35H28.6a.35.35,0,0,0-.35.35.36.36,0,0,0,.35.37Z" transform="translate(0.09 0.03)" style="fill:#fff"/><path d="M26.22,24.91h-.8a.35.35,0,0,0-.41.3.35.35,0,0,0,.29.41h.92a.35.35,0,0,0,.41-.3.35.35,0,0,0-.29-.41A.24.24,0,0,0,26.22,24.91Z" transform="translate(0.09 0.03)" style="fill:#fff"/><path d="M31.07,22.36h-.85a.37.37,0,0,0-.35.35.35.35,0,0,0,.35.35H31a.35.35,0,0,0,.36-.34h0A.37.37,0,0,0,31.07,22.36Z" transform="translate(0.09 0.03)" style="fill:#fff"/><path d="M27,22.36h-.78a.35.35,0,0,0-.35.35.34.34,0,0,0,.33.35H27a.35.35,0,0,0,.35-.35.35.35,0,0,0-.35-.35Z" transform="translate(0.09 0.03)" style="fill:#fff"/><path d="M31.84,19.81H31a.36.36,0,0,0,0,.72h.82a.36.36,0,0,0,0-.72Z" transform="translate(0.09 0.03)" style="fill:#fff"/><path d="M28.65,23.66h-.81a.35.35,0,0,0-.35.35h0a.35.35,0,0,0,.35.35h.81A.37.37,0,0,0,29,24a.35.35,0,0,0-.34-.36Z" transform="translate(0.09 0.03)" style="fill:#fff"/><path d="M30.31,24.91H29.5a.35.35,0,0,0-.41.3.35.35,0,0,0,.29.41h.93a.36.36,0,0,0,.3-.41A.37.37,0,0,0,30.31,24.91Z" transform="translate(0.09 0.03)" style="fill:#fff"/><path d="M14.85,21.69h.73a.3.3,0,1,0,.11-.59.21.21,0,0,0-.11,0h-.73a.3.3,0,0,0-.11.59Z" transform="translate(0.09 0.03)" style="fill:#222"/><path d="M17.06,20.41h.72a.29.29,0,0,0,.3-.28h0a.29.29,0,0,0-.29-.31h-.73a.31.31,0,0,0-.31.31.29.29,0,0,0,.31.29Z" transform="translate(0.09 0.03)" style="fill:#222"/><path d="M22.31,19.47H21.1a.64.64,0,0,0-.65.63v0a.65.65,0,0,0,.65.65H22l.39-1.3Z" transform="translate(0.09 0.03)" style="fill:#222"/><path d="M17.88,21.39a.44.44,0,0,0,.44.43h1.16a.43.43,0,0,0,.13-.85H18.32a.43.43,0,0,0-.44.42Z" transform="translate(0.09 0.03)" style="fill:#222"/><path d="M18.9,25.31a.65.65,0,0,0,.64.65h.93l.38-1.29H19.54A.64.64,0,0,0,18.9,25.31Z" transform="translate(0.09 0.03)" style="fill:#222"/><polygon points="21.32 23.41 21.32 23.41 21.32 23.4 21.32 23.4 21.32 23.41" style="fill:#ec2224"/><path d="M19.7,22.71a.66.66,0,0,0,.64.67h.88l.39-1.32H20.34A.67.67,0,0,0,19.7,22.71Z" transform="translate(0.09 0.03)" style="fill:#222"/><path d="M16.22,25h-.73a.3.3,0,0,0-.24.35.3.3,0,0,0,.24.24h.73a.3.3,0,0,0,.24-.35A.3.3,0,0,0,16.22,25Z" transform="translate(0.09 0.03)" style="fill:#222"/><path d="M17.31,22.72a.29.29,0,0,0-.29-.29h-.74a.3.3,0,1,0-.11.59.21.21,0,0,0,.11,0H17a.29.29,0,0,0,.29-.29Z" transform="translate(0.09 0.03)" style="fill:#222"/><path d="M19.15,24a.44.44,0,0,0-.43-.44H17.56a.43.43,0,0,0-.43.43h0a.42.42,0,0,0,.42.42h1.17A.44.44,0,0,0,19.15,24Z" transform="translate(0.09 0.03)" style="fill:#222"/><path d="M13.45,20.41h.77a.29.29,0,0,0,.3-.28h0a.29.29,0,0,0-.29-.31H13.5a.29.29,0,0,0-.3.3h0A.29.29,0,0,0,13.45,20.41Z" transform="translate(0.09 0.03)" style="fill:#222"/><path d="M41.27,19.47H23.47a.68.68,0,0,1,.49.65.66.66,0,0,1-.65.65H22l-.39,1.28h1a.66.66,0,0,1,0,1.32H21.22l-.37,1.29h.91a.64.64,0,0,1,.64.64.67.67,0,0,1-.55.66h19.6a18.12,18.12,0,0,0-.18-6.49ZM28.6,21h.81a.37.37,0,0,1,.36.35.36.36,0,0,1-.35.37H28.6a.36.36,0,0,1-.35-.37h0A.35.35,0,0,1,28.6,21ZM27,19.81h.81a.36.36,0,0,1,0,.72H27a.36.36,0,0,1,0-.72Zm-2.73,1.1h1.34a.5.5,0,0,1,0,1H24.22a.5.5,0,0,1,0-1Zm-.76,3.58A.48.48,0,0,1,23,24a.5.5,0,0,1,.5-.5h1.32a.5.5,0,0,1,.5.5.48.48,0,0,1-.5.47Zm2.76,1.13h-.8a.35.35,0,0,1-.41-.3.35.35,0,0,1,.29-.41.24.24,0,0,1,.12,0h.8a.35.35,0,0,1,.41.3.35.35,0,0,1-.29.41ZM27,23.06h-.77a.34.34,0,0,1-.35-.33v0a.35.35,0,0,1,.35-.35H27a.35.35,0,0,1,.35.35.35.35,0,0,1-.35.35H27Zm1.65,1.31h-.81a.36.36,0,0,1,0-.71h.82A.35.35,0,0,1,29,24v0a.37.37,0,0,1-.35.35Zm1.66,1.25h-.81a.35.35,0,0,1-.41-.3.35.35,0,0,1,.29-.41.24.24,0,0,1,.12,0h.81a.36.36,0,0,1,.3.41A.37.37,0,0,1,30.3,25.62Zm.76-2.56h-.84a.35.35,0,0,1-.35-.35.37.37,0,0,1,.35-.35H31a.37.37,0,0,1,.36.35.34.34,0,0,1-.33.35Zm.77-2.53H31a.36.36,0,0,1,0-.72h.82a.36.36,0,0,1,0,.72Z" transform="translate(0.09 0.03)" style="fill:#222"/><path d="M12.63,25h-.72a.3.3,0,1,0-.11.59h.83a.3.3,0,0,0,.24-.35A.3.3,0,0,0,12.63,25Z" transform="translate(0.09 0.03)" style="fill:#222"/><path d="M14.78,23.71h-.72a.3.3,0,1,0,0,.6h.72a.3.3,0,0,0,0-.6Z" transform="translate(0.09 0.03)" style="fill:#222"/><path d="M13.4,22.43h-.73a.3.3,0,0,0-.24.35.3.3,0,0,0,.24.24h.73a.3.3,0,1,0,.11-.59Z" transform="translate(0.09 0.03)" style="fill:#222"/><path d="M23.34,4.91A18.41,18.41,0,0,0,17,6L14,16.71H40.46A18.31,18.31,0,0,0,23.34,4.91ZM12.79,28.71a7,7,0,0,1-2.87-.46A3.26,3.26,0,0,1,8,25.1a14.82,14.82,0,0,1,.87-4.27l3.5-12.26A18.32,18.32,0,1,0,40.82,28.71Z" transform="translate(0.09 0.03)"/><g style="clip-path:url(#clip-path)"><path d="M41.64,23.2A18.32,18.32,0,1,1,23.29,4.91h0A18.32,18.32,0,0,1,41.64,23.2Z" transform="translate(0.09 0.03)" style="fill:#222"/><path d="M41.22,27A18.32,18.32,0,1,1,27,5.29h.05A18.32,18.32,0,0,1,41.22,27Z" transform="translate(0.09 0.03)" style="fill:#222"/><path d="M39.34,18.2c-1.22,2.08-6.21.27-11.3-3S19.6,8.42,20.89,6.39,28.22,4.73,33.22,8C38.45,11.29,40.48,16.2,39.34,18.2Z" transform="translate(0.09 0.03)" style="fill:#222;fill-opacity:0"/><path d="M39.15,18c-1.18,2-6,.26-11-2.91s-8.23-6.61-7-8.59,7.15-1.6,12,1.53C38.28,11.2,40.22,16.07,39.15,18Z" transform="translate(0.09 0.03)" style="fill:#222;opacity:0.02777777798473835;isolation:isolate"/><path d="M39,17.73c-1.14,2-5.87.25-10.7-2.84s-8-6.43-6.79-8.35S28.47,5,33.17,8C38.11,11.2,40.05,15.89,39,17.73Z" transform="translate(0.09 0.03)" style="fill:#222;opacity:0.0555555559694767;isolation:isolate"/><path d="M38.78,17.5c-1.12,1.91-5.71.24-10.41-2.77s-7.8-6.25-6.61-8.12S28.52,5.1,33.14,8.06C37.94,11.14,39.83,15.71,38.78,17.5Z" transform="translate(0.09 0.03)" style="fill:#222;opacity:0.0833333358168602;isolation:isolate"/><path d="M38.59,17.27c-1.08,1.85-5.55.23-10.11-2.7s-7.59-6.08-6.43-7.88,6.56-1.47,11,1.41C37.78,11.1,39.61,15.53,38.59,17.27Z" transform="translate(0.09 0.03)" style="fill:#222;opacity:0.1111111119389534;isolation:isolate"/><path d="M38.4,17c-1,1.8-5.38.21-9.81-2.62s-7.37-5.91-6.25-7.66,6.37-1.42,10.73,1.38C37.61,11.05,39.39,15.35,38.4,17Z" transform="translate(0.09 0.03)" style="fill:#222;opacity:0.1388888955116272;isolation:isolate"/><path d="M38.22,16.81c-1,1.74-5.22.2-9.53-2.55s-7.15-5.73-6.06-7.43S28.8,5.46,33,8.2C37.44,11,39.22,15.2,38.22,16.81Z" transform="translate(0.09 0.03)" style="fill:#222;opacity:0.1666666716337204;isolation:isolate"/><path d="M38,16.58c-1,1.68-5.06.19-9.23-2.48s-6.94-5.55-5.88-7.19,6-1.33,10.08,1.31C37.27,11,39,15,38,16.58Z" transform="translate(0.09 0.03)" style="fill:#222;opacity:0.1944444477558136;isolation:isolate"/><path d="M37.84,16.35c-1,1.63-4.89.18-8.93-2.41s-6.69-5.37-5.69-7S29,5.7,33,8.25,38.74,14.81,37.84,16.35Z" transform="translate(0.09 0.03)" style="fill:#222;opacity:0.2222222238779068;isolation:isolate"/><path d="M37.65,16.11c-.92,1.58-4.72.18-8.63-2.33s-6.51-5.19-5.53-6.73,5.6-1.23,9.45,1.24C36.94,10.86,38.52,14.64,37.65,16.11Z" transform="translate(0.09 0.03)" style="fill:#222;opacity:0.25;isolation:isolate"/><path d="M37.47,15.88c-.89,1.52-4.56.17-8.34-2.25s-6.3-5-5.35-6.5S29.19,6,32.9,8.33C36.77,10.81,38.31,14.46,37.47,15.88Z" transform="translate(0.09 0.03)" style="fill:#222;opacity:0.2777777910232544;isolation:isolate"/><path d="M37.28,15.65c-.86,1.47-4.4.15-8-2.18S23.16,8.63,24.07,7.2s5.21-1.13,8.8,1.17S38.09,14.28,37.28,15.65Z" transform="translate(0.09 0.03)" style="fill:#222;opacity:0.3055555522441864;isolation:isolate"/><path d="M37.09,15.42c-.82,1.41-4.23.14-7.74-2.11s-5.87-4.66-5-6,5-1.08,8.48,1.14S37.87,14.1,37.09,15.42Z" transform="translate(0.09 0.03)" style="fill:#222;opacity:0.3333333432674408;isolation:isolate"/><path d="M36.91,15.2c-.8,1.35-4.07.13-7.46-2s-5.65-4.48-4.8-5.8,4.82-1,8.15,1.1S37.65,13.92,36.91,15.2Z" transform="translate(0.09 0.03)" style="fill:#222;opacity:0.3611111044883728;isolation:isolate"/><path d="M36.72,15c-.76,1.3-3.9.12-7.16-2s-5.43-4.3-4.62-5.57,4.63-1,7.83,1.06S37.44,13.74,36.72,15Z" transform="translate(0.09 0.03)" style="fill:#222;opacity:0.3888888955116272;isolation:isolate"/><path d="M36.53,14.73c-.72,1.24-3.74.11-6.86-1.89s-5.22-4.13-4.45-5.35,4.43-.94,7.51,1S37.22,13.56,36.53,14.73Z" transform="translate(0.09 0.03)" style="fill:#222;opacity:0.4166666567325592;isolation:isolate"/><path d="M36.35,14.5c-.7,1.18-3.58.09-6.57-1.82s-5-4-4.26-5.11,4.24-.9,7.18,1S37,13.38,36.35,14.5Z" transform="translate(0.09 0.03)" style="fill:#222;opacity:0.4444444477558136;isolation:isolate"/><path d="M36.16,14.27c-.66,1.13-3.41.08-6.27-1.75S25.1,8.74,25.8,7.64s4-.85,6.87,1S36.78,13.2,36.16,14.27Z" transform="translate(0.09 0.03)" style="fill:#222;opacity:0.4722222089767456;isolation:isolate"/><path d="M36,14c-.63,1.07-3.25.07-6-1.68s-4.58-3.6-3.91-4.65,3.86-.8,6.55.93S36.57,13,36,14Z" transform="translate(0.09 0.03)" style="fill:#222;opacity:0.5;isolation:isolate"/><path d="M35.79,13.8c-.6,1-3.09.07-5.68-1.59s-4.37-3.43-3.73-4.42,3.67-.75,6.22.89S36.35,12.85,35.79,13.8Z" transform="translate(0.09 0.03)" style="fill:#222;opacity:0.5277777910232544;isolation:isolate"/><path d="M35.6,13.57c-.57,1-2.92.06-5.38-1.52S26.07,8.8,26.67,7.86s3.47-.7,5.9.85S36.13,12.67,35.6,13.57Z" transform="translate(0.09 0.03)" style="fill:#222;opacity:0.5555555820465088;isolation:isolate"/><path d="M35.41,13.34c-.53.91-2.75,0-5.09-1.45s-3.93-3.07-3.36-4,3.28-.65,5.58.82S35.91,12.49,35.41,13.34Z" transform="translate(0.09 0.03)" style="fill:#222;opacity:0.5833333134651184;isolation:isolate"/><path d="M35.22,13.11c-.5.85-2.59,0-4.79-1.38S26.71,8.84,27.22,8s3.08-.61,5.25.78S35.7,12.31,35.22,13.11Z" transform="translate(0.09 0.03)" style="fill:#222;opacity:0.6111111044883728;isolation:isolate"/><path d="M35,12.88c-.47.8-2.43,0-4.5-1.31s-3.5-2.71-3-3.49,2.89-.56,4.93.75S35.48,12.13,35,12.88Z" transform="translate(0.09 0.03)" style="fill:#222;opacity:0.6388888955116272;isolation:isolate"/><path d="M34.85,12.65c-.44.74-2.26,0-4.2-1.23S27.36,8.88,27.83,8.2s2.69-.51,4.6.72S35.22,12,34.85,12.65Z" transform="translate(0.09 0.03)" style="fill:#222;opacity:0.6666666865348816;isolation:isolate"/><path d="M34.66,12.42c-.4.68-2.09,0-3.9-1.16s-3.07-2.36-2.65-3,2.51-.47,4.29.68S35,11.77,34.66,12.42Z" transform="translate(0.09 0.03)" style="fill:#222;opacity:0.6944444179534912;isolation:isolate"/><path d="M34.48,12.2c-.37.63-1.94,0-3.61-1.09S28,8.93,28.4,8.31s2.31-.42,4,.64S34.83,11.6,34.48,12.2Z" transform="translate(0.09 0.03)" style="fill:#222;opacity:0.7222222089767456;isolation:isolate"/><path d="M34.29,12c-.34.57-1.77,0-3.31-1S28.33,9,28.69,8.4,30.81,8,32.33,9,34.61,11.42,34.29,12Z" transform="translate(0.09 0.03)" style="fill:#222;opacity:0.75;isolation:isolate"/><path d="M34.1,11.73c-.3.51-1.6,0-3-1S28.68,8.91,29,8.4s1.92-.32,3.32.57S34.39,11.2,34.1,11.73Z" transform="translate(0.09 0.03)" style="fill:#222;opacity:0.7777777910232544;isolation:isolate"/><path d="M33.92,11.5c-.28.46-1.45,0-2.73-.87S29,9,29.27,8.52s1.73-.27,3,.54S34.22,11.06,33.92,11.5Z" transform="translate(0.09 0.03)" style="fill:#222;opacity:0.8055555820465088;isolation:isolate"/><path d="M33.73,11.26c-.24.41-1.28,0-2.43-.79S29.3,9,29.56,8.6s1.54-.23,2.67.5S34,10.88,33.73,11.26Z" transform="translate(0.09 0.03)" style="fill:#222;opacity:0.8333333134651184;isolation:isolate"/><path d="M33.54,11c-.21.35-1.11-.07-2.13-.72S29.63,9,29.85,8.67s1.34-.18,2.35.47S33.74,10.7,33.54,11Z" transform="translate(0.09 0.03)" style="fill:#222;opacity:0.8611111044883728;isolation:isolate"/><path d="M33.35,10.8c-.17.3-.94-.08-1.83-.65S30,9,30.14,8.74s1.15-.13,2,.43S33.52,10.52,33.35,10.8Z" transform="translate(0.09 0.03)" style="fill:#222;opacity:0.8888888955116272;isolation:isolate"/><path d="M33.22,10.57c-.15.24-.79-.09-1.54-.57s-1.36-1-1.21-1.18,1-.09,1.71.39S33.3,10.34,33.22,10.57Z" transform="translate(0.09 0.03)" style="fill:#222;opacity:0.9166666865348816;isolation:isolate"/><path d="M33,10.34c-.11.18-.62-.1-1.24-.5s-1.14-.77-1-1,.77,0,1.39.36S33.09,10.2,33,10.34Z" transform="translate(0.09 0.03)" style="fill:#222;opacity:0.9444444179534912;isolation:isolate"/><path d="M32.79,10.11c-.08.13-.45-.11-.95-.43S30.92,9.09,31,9s.57,0,1.07.33S32.87,10,32.79,10.11Z" transform="translate(0.09 0.03)" style="fill:#222;opacity:0.9722222089767456;isolation:isolate"/><path d="M32.61,9.88c0,.07-.29-.12-.66-.36s-.71-.41-.66-.48.38.06.74.29S32.65,9.81,32.61,9.88Z" transform="translate(0.09 0.03)" style="fill:#222"/><path d="M27.4,7.27c.5-.73,3.46-.59,5.85,1.05s3.3,4.14,2.79,4.87S33.34,13,31,11.4,26.9,8,27.4,7.27Z" transform="translate(0.09 0.03)" style="fill:#222;fill-opacity:0"/><path d="M27.53,7.33c.48-.71,3.36-.57,5.68,1s3.21,4,2.72,4.74S33.3,12.91,31,11.32,27,8.05,27.53,7.33Z" transform="translate(0.09 0.03)" style="fill:#222;opacity:0.02777777798473835;isolation:isolate"/><path d="M27.65,7.39c.47-.69,3.27-.56,5.53,1S36.3,12.3,35.82,13s-2.56-.15-4.82-1.7S27.22,8.08,27.65,7.39Z" transform="translate(0.09 0.03)" style="fill:#222;opacity:0.0555555559694767;isolation:isolate"/><path d="M27.77,7.45c.46-.67,3.18-.54,5.37,1s3,3.8,2.57,4.48S33.22,12.74,31,11.2,27.31,8.12,27.77,7.45Z" transform="translate(0.09 0.03)" style="fill:#222;opacity:0.0833333358168602;isolation:isolate"/><path d="M27.89,7.51c.45-.66,3.09-.53,5.22.93s2.94,3.69,2.49,4.34-2.38-.14-4.54-1.58S27.45,8.2,27.89,7.51Z" transform="translate(0.09 0.03)" style="fill:#222;opacity:0.1111111119389534;isolation:isolate"/><path d="M28,7.56c.43-.63,3-.5,5,.91s2.85,3.58,2.42,4.21S33.1,12.54,31,11.13,27.58,8.2,28,7.56Z" transform="translate(0.09 0.03)" style="fill:#222;opacity:0.1388888955116272;isolation:isolate"/><path d="M28.14,7.62C28.56,7,31,7.13,33,8.5S35.8,12,35.38,12.58s-2.27-.13-4.27-1.5S27.72,8.2,28.14,7.62Z" transform="translate(0.09 0.03)" style="fill:#222;opacity:0.1666666716337204;isolation:isolate"/><path d="M28.22,7.68c.41-.59,2.8-.48,4.74.85s2.68,3.35,2.27,4S33,12.4,31.1,11.07,27.86,8.27,28.22,7.68Z" transform="translate(0.09 0.03)" style="fill:#222;opacity:0.1944444477558136;isolation:isolate"/><path d="M28.38,7.74c.4-.58,2.71-.46,4.58.82s2.59,3.24,2.2,3.82-2.12-.13-4-1.41S28,8.31,28.38,7.74Z" transform="translate(0.09 0.03)" style="fill:#222;opacity:0.2222222238779068;isolation:isolate"/><path d="M28.51,7.8c.38-.56,2.61-.45,4.42.79s2.5,3.13,2.12,3.68-2-.12-3.86-1.35S28.13,8.35,28.51,7.8Z" transform="translate(0.09 0.03)" style="fill:#222;opacity:0.25;isolation:isolate"/><path d="M28.63,7.85c.36-.53,2.52-.42,4.26.77s2.41,3,2,3.55-2-.12-3.72-1.31S28.22,8.39,28.63,7.85Z" transform="translate(0.09 0.03)" style="fill:#222;opacity:0.2777777910232544;isolation:isolate"/><path d="M28.75,7.91c.35-.51,2.43-.41,4.1.74s2.33,2.9,2,3.42S33,12,31.27,10.81,28.4,8.43,28.75,7.91Z" transform="translate(0.09 0.03)" style="fill:#222;opacity:0.3055555522441864;isolation:isolate"/><path d="M28.87,8c.34-.5,2.34-.39,3.95.71s2.23,2.79,1.89,3.29-1.83-.11-3.44-1.21S28.54,8.46,28.87,8Z" transform="translate(0.09 0.03)" style="fill:#222;opacity:0.3333333432674408;isolation:isolate"/><path d="M29,8c.32-.48,2.23-.38,3.78.68s2.15,2.68,1.82,3.16-1.75-.11-3.3-1.17S28.67,8.5,29,8Z" transform="translate(0.09 0.03)" style="fill:#222;opacity:0.3611111044883728;isolation:isolate"/><path d="M29.12,8.08c.31-.45,2.14-.36,3.63.66s2,2.57,1.74,3-1.68-.1-3.17-1.11S28.81,8.54,29.12,8.08Z" transform="translate(0.09 0.03)" style="fill:#222;opacity:0.3888888955116272;isolation:isolate"/><path d="M29.22,8.14c.3-.43,2-.34,3.47.63s2,2.46,1.67,2.89-1.61-.09-3-1.07S29,8.58,29.22,8.14Z" transform="translate(0.09 0.03)" style="fill:#222;opacity:0.4166666567325592;isolation:isolate"/><path d="M29.36,8.2c.29-.41,2-.33,3.32.6s1.88,2.34,1.59,2.76-1.54-.09-2.89-1S29.08,8.61,29.36,8.2Z" transform="translate(0.09 0.03)" style="fill:#222;opacity:0.4444444477558136;isolation:isolate"/><path d="M29.49,8.26c.27-.4,1.86-.31,3.15.57s1.79,2.23,1.52,2.63-1.46-.09-2.75-1S29.22,8.65,29.49,8.26Z" transform="translate(0.09 0.03)" style="fill:#222;opacity:0.4722222089767456;isolation:isolate"/><path d="M29.61,8.32c.26-.38,1.77-.3,3,.54s1.71,2.12,1.45,2.5-1.39-.09-2.62-.93S29.35,8.69,29.61,8.32Z" transform="translate(0.09 0.03)" style="fill:#222;opacity:0.5;isolation:isolate"/><path d="M29.73,8.37c.25-.35,1.68-.27,2.84.52s1.61,2,1.37,2.36-1.32-.08-2.48-.87S29.49,8.73,29.73,8.37Z" transform="translate(0.09 0.03)" style="fill:#222;opacity:0.5277777910232544;isolation:isolate"/><path d="M29.85,8.43c.23-.33,1.58-.26,2.68.49s1.53,1.89,1.3,2.23-1.25-.07-2.34-.82S29.63,8.77,29.85,8.43Z" transform="translate(0.09 0.03)" style="fill:#222;opacity:0.5555555820465088;isolation:isolate"/><path d="M30,8.49c.21-.32,1.48-.24,2.52.46s1.43,1.78,1.22,2.1-1.18-.07-2.21-.78S29.76,8.8,30,8.49Z" transform="translate(0.09 0.03)" style="fill:#222;opacity:0.5833333134651184;isolation:isolate"/><path d="M30.1,8.55c.2-.3,1.39-.23,2.36.43s1.35,1.67,1.15,2-1.1-.07-2.07-.73S29.9,8.84,30.1,8.55Z" transform="translate(0.09 0.03)" style="fill:#222;opacity:0.6111111044883728;isolation:isolate"/><path d="M30.22,8.6c.19-.27,1.3-.21,2.2.41s1.26,1.56,1.08,1.84-1-.07-1.93-.68S30,8.88,30.22,8.6Z" transform="translate(0.09 0.03)" style="fill:#222;opacity:0.6388888955116272;isolation:isolate"/><path d="M30.35,8.66c.17-.25,1.2-.19,2,.38s1.17,1.45,1,1.7-1-.05-1.79-.63S30.22,8.92,30.35,8.66Z" transform="translate(0.09 0.03)" style="fill:#222;opacity:0.6666666865348816;isolation:isolate"/><path d="M30.47,8.72c.16-.24,1.11-.18,1.88.35s1.09,1.33.92,1.57-.88,0-1.65-.58S30.31,9,30.47,8.72Z" transform="translate(0.09 0.03)" style="fill:#222;opacity:0.6944444179534912;isolation:isolate"/><path d="M30.59,8.78c.15-.22,1-.16,1.73.32s1,1.22.84,1.44-.8,0-1.51-.53S30.44,9,30.59,8.78Z" transform="translate(0.09 0.03)" style="fill:#222;opacity:0.7222222089767456;isolation:isolate"/><path d="M30.71,8.84c.14-.2.93-.15,1.57.29s.91,1.11.77,1.31-.73,0-1.38-.49S30.58,9,30.71,8.84Z" transform="translate(0.09 0.03)" style="fill:#222;opacity:0.75;isolation:isolate"/><path d="M30.84,8.89c.12-.17.82-.12,1.41.27s.81,1,.69,1.17-.66,0-1.24-.43S30.72,9.07,30.84,8.89Z" transform="translate(0.09 0.03)" style="fill:#222;opacity:0.7777777910232544;isolation:isolate"/><path d="M31,9c.11-.16.73-.11,1.25.24s.73.89.62,1-.59,0-1.1-.39S30.85,9.11,31,9Z" transform="translate(0.09 0.03)" style="fill:#222;opacity:0.8055555820465088;isolation:isolate"/><path d="M31.08,9c.09-.14.64-.1,1.09.21s.64.77.55.91-.52,0-1-.34S31,9.2,31.08,9Z" transform="translate(0.09 0.03)" style="fill:#222;opacity:0.8333333134651184;isolation:isolate"/><path d="M31.22,9.07c.08-.12.55-.08.94.18s.55.66.47.78-.44,0-.83-.29S31.12,9.2,31.22,9.07Z" transform="translate(0.09 0.03)" style="fill:#222;opacity:0.8611111044883728;isolation:isolate"/><path d="M31.33,9.12c.06-.09.45-.06.77.16s.46.55.4.65-.37,0-.69-.25S31.22,9.2,31.33,9.12Z" transform="translate(0.09 0.03)" style="fill:#222;opacity:0.8888888955116272;isolation:isolate"/><path d="M31.45,9.2c0-.08.36,0,.62.13s.37.44.32.51-.3,0-.56-.19S31.4,9.26,31.45,9.2Z" transform="translate(0.09 0.03)" style="fill:#222;opacity:0.9166666865348816;isolation:isolate"/><path d="M31.57,9.2c0-.06.27,0,.46.1s.29.32.25.38-.23,0-.42-.14S31.53,9.3,31.57,9.2Z" transform="translate(0.09 0.03)" style="fill:#222;opacity:0.9444444179534912;isolation:isolate"/><path d="M31.69,9.3a.73.73,0,0,1,.3.07c.13.07.2.21.18.25s-.15,0-.28-.1S31.67,9.34,31.69,9.3Z" transform="translate(0.09 0.03)" style="fill:#222;opacity:0.9722222089767456;isolation:isolate"/><path d="M31.82,9.36H32c.07,0,.11.1.09.12s-.07,0-.14,0S31.81,9.37,31.82,9.36Z" transform="translate(0.09 0.03)" style="fill:#222"/><path d="M25.59,40.87c-.66.86-7.82,1-13.31-3.22s-7.22-11.14-6.56-12,6.58.6,12.07,4.81S26.22,40,25.59,40.87Z" transform="translate(0.09 0.03)" style="fill:#222;fill-opacity:0"/><path d="M25.38,40.82c-.65.85-7.67.94-13.07-3.2S5.22,26.68,5.82,25.83s6.44.64,11.85,4.78S26,40,25.38,40.82Z" transform="translate(0.09 0.03)" style="fill:#222;opacity:0.02777777798473835;isolation:isolate"/><path d="M25.22,40.77c-.64.83-7.53.9-12.84-3.18S5.38,26.85,6,26s6.3.69,11.62,4.76S25.8,39.94,25.22,40.77Z" transform="translate(0.09 0.03)" style="fill:#222;opacity:0.0555555559694767;isolation:isolate"/><path d="M25,40.72c-.63.81-7.38.85-12.61-3.16S5.4,27,6,26.2s6.16.73,11.39,4.74S25.58,39.91,25,40.72Z" transform="translate(0.09 0.03)" style="fill:#222;opacity:0.0833333358168602;isolation:isolate"/><path d="M24.75,40.67c-.61.8-7.23.81-12.38-3.14S5.52,27.2,6.12,26.41s6,.76,11.16,4.7S25.35,39.88,24.75,40.67Z" transform="translate(0.09 0.03)" style="fill:#222;opacity:0.1111111119389534;isolation:isolate"/><path d="M24.53,40.63c-.59.77-7.08.75-12.13-3.13S5.63,27.37,6.22,26.6s5.88.8,10.94,4.68S25.13,39.85,24.53,40.63Z" transform="translate(0.09 0.03)" style="fill:#222;opacity:0.1388888955116272;isolation:isolate"/><path d="M24.32,40.58c-.58.76-6.93.7-11.9-3.1S5.75,27.55,6.33,26.79s5.73.85,10.7,4.65S24.9,39.82,24.32,40.58Z" transform="translate(0.09 0.03)" style="fill:#222;opacity:0.1666666716337204;isolation:isolate"/><path d="M24.11,40.53c-.57.74-6.79.66-11.67-3.08S5.86,27.72,6.44,27s5.59.89,10.47,4.63S24.68,39.79,24.11,40.53Z" transform="translate(0.09 0.03)" style="fill:#222;opacity:0.1944444477558136;isolation:isolate"/><path d="M23.9,40.48c-.55.72-6.64.61-11.44-3.06S6,27.9,6.53,27.2s5.45.93,10.25,4.61S24.45,39.76,23.9,40.48Z" transform="translate(0.09 0.03)" style="fill:#222;opacity:0.2222222238779068;isolation:isolate"/><path d="M23.69,40.43c-.54.71-6.49.57-11.2-3s-6.4-9.32-5.86-10,5.31,1,10,4.58S24.22,39.73,23.69,40.43Z" transform="translate(0.09 0.03)" style="fill:#222;opacity:0.25;isolation:isolate"/><path d="M23.48,40.39c-.53.68-6.35.51-11-3s-6.3-9.12-5.78-9.8,5.17,1,9.79,4.55S24,39.7,23.48,40.39Z" transform="translate(0.09 0.03)" style="fill:#222;opacity:0.2777777910232544;isolation:isolate"/><path d="M23.22,40.34c-.51.67-6.19.46-10.73-3s-6.21-8.91-5.7-9.58,5,1,9.57,4.52S23.78,39.67,23.22,40.34Z" transform="translate(0.09 0.03)" style="fill:#222;opacity:0.3055555522441864;isolation:isolate"/><path d="M23.05,40.29c-.5.65-6,.42-10.49-3s-6.12-8.71-5.63-9.36,4.89,1.09,9.34,4.5S23.55,39.64,23.05,40.29Z" transform="translate(0.09 0.03)" style="fill:#222;opacity:0.3333333432674408;isolation:isolate"/><path d="M22.84,40.2c-.48.64-5.9.37-10.26-3s-6-8.51-5.54-9.14,4.74,1.13,9.1,4.48S23.33,39.61,22.84,40.2Z" transform="translate(0.09 0.03)" style="fill:#222;opacity:0.3611111044883728;isolation:isolate"/><path d="M22.63,40.2c-.47.62-5.75.33-10-3S6.7,29,7.17,28.33s4.6,1.17,8.87,4.45S23.1,39.58,22.63,40.2Z" transform="translate(0.09 0.03)" style="fill:#222;opacity:0.3888888955116272;isolation:isolate"/><path d="M22.42,40.2c-.46.59-5.6.27-9.8-2.94s-5.84-8.1-5.38-8.7S11.7,29.78,15.89,33,22.88,39.55,22.42,40.2Z" transform="translate(0.09 0.03)" style="fill:#222;opacity:0.4166666567325592;isolation:isolate"/><path d="M22.22,40.1c-.45.58-5.46.22-9.56-2.92s-5.75-7.89-5.31-8.47,4.32,1.25,8.42,4.4S22.65,39.52,22.22,40.1Z" transform="translate(0.09 0.03)" style="fill:#222;opacity:0.4444444477558136;isolation:isolate"/><path d="M22,40.05c-.43.56-5.31.18-9.33-2.9S7,29.46,7.44,28.9s4.17,1.29,8.19,4.37S22.43,39.49,22,40.05Z" transform="translate(0.09 0.03)" style="fill:#222;opacity:0.4722222089767456;isolation:isolate"/><path d="M21.78,40c-.41.55-5.16.13-9.09-2.88s-5.56-7.49-5.15-8,4,1.33,8,4.35S22.22,39.46,21.78,40Z" transform="translate(0.09 0.03)" style="fill:#222;opacity:0.5;isolation:isolate"/><path d="M21.57,40c-.4.53-5,.09-8.86-2.86s-5.47-7.28-5.07-7.81,3.89,1.38,7.74,4.32S22,39.43,21.57,40Z" transform="translate(0.09 0.03)" style="fill:#222;opacity:0.5277777910232544;isolation:isolate"/><path d="M21.36,39.91c-.39.5-4.86,0-8.62-2.85s-5.38-7.08-5-7.59,3.75,1.42,7.51,4.3S21.75,39.4,21.36,39.91Z" transform="translate(0.09 0.03)" style="fill:#222;opacity:0.5555555820465088;isolation:isolate"/><path d="M21.15,39.86c-.37.49-4.72,0-8.39-2.83s-5.29-6.88-4.91-7.37,3.6,1.46,7.28,4.28S21.52,39.37,21.15,39.86Z" transform="translate(0.09 0.03)" style="fill:#222;opacity:0.5833333134651184;isolation:isolate"/><path d="M20.94,39.81c-.36.47-4.57-.06-8.16-2.81S7.59,30.33,8,29.86s3.46,1.49,7,4.24S21.3,39.34,20.94,39.81Z" transform="translate(0.09 0.03)" style="fill:#222;opacity:0.6111111044883728;isolation:isolate"/><path d="M20.73,39.76c-.35.46-4.42-.11-7.92-2.79S7.7,30.5,8.05,30.05s3.32,1.54,6.82,4.22S21.07,39.31,20.73,39.76Z" transform="translate(0.09 0.03)" style="fill:#222;opacity:0.6388888955116272;isolation:isolate"/><path d="M20.52,39.71c-.34.44-4.28-.15-7.69-2.77s-5-6.26-4.68-6.7,3.18,1.58,6.59,4.2S20.85,39.28,20.52,39.71Z" transform="translate(0.09 0.03)" style="fill:#222;opacity:0.6666666865348816;isolation:isolate"/><path d="M20.3,39.67c-.32.41-4.12-.21-7.45-2.76s-4.92-6.06-4.6-6.48,3,1.62,6.37,4.17S20.62,39.25,20.3,39.67Z" transform="translate(0.09 0.03)" style="fill:#222;opacity:0.6944444179534912;isolation:isolate"/><path d="M20.09,39.62c-.3.4-4-.26-7.22-2.74S8.05,31,8.35,30.62s2.9,1.66,6.14,4.15S20.4,39.2,20.09,39.62Z" transform="translate(0.09 0.03)" style="fill:#222;opacity:0.7222222089767456;isolation:isolate"/><path d="M19.88,39.57c-.29.38-3.83-.3-7-2.72s-4.74-5.65-4.45-6,2.76,1.7,5.91,4.11S20.22,39.2,19.88,39.57Z" transform="translate(0.09 0.03)" style="fill:#222;opacity:0.75;isolation:isolate"/><path d="M19.67,39.52c-.28.37-3.68-.35-6.75-2.7S8.28,31.37,8.56,31s2.66,1.74,5.66,4.09S20,39.2,19.67,39.52Z" transform="translate(0.09 0.03)" style="fill:#222;opacity:0.7777777910232544;isolation:isolate"/><path d="M19.46,39.47c-.27.35-3.54-.39-6.52-2.68S8.39,31.54,8.66,31.2s2.47,1.78,5.45,4.07S19.72,39.13,19.46,39.47Z" transform="translate(0.09 0.03)" style="fill:#222;opacity:0.8055555820465088;isolation:isolate"/><path d="M19.22,39.43c-.25.33-3.39-.45-6.29-2.67s-4.45-5-4.2-5.37,2.33,1.82,5.22,4S19.5,39.1,19.22,39.43Z" transform="translate(0.09 0.03)" style="fill:#222;opacity:0.8333333134651184;isolation:isolate"/><path d="M19,39.38c-.24.31-3.24-.5-6-2.65s-4.37-4.84-4.13-5.15,2.19,1.87,5,4S19.27,39.07,19,39.38Z" transform="translate(0.09 0.03)" style="fill:#222;opacity:0.8611111044883728;isolation:isolate"/><path d="M18.82,39.33c-.22.29-3.09-.54-5.81-2.63s-4.27-4.63-4-4.93,2,1.91,4.77,4S19.05,39,18.82,39.33Z" transform="translate(0.09 0.03)" style="fill:#222;opacity:0.8888888955116272;isolation:isolate"/><path d="M18.61,39.28c-.21.28-2.94-.59-5.58-2.61S8.85,32.24,9,32s1.9,1.94,4.54,4S18.82,39,18.61,39.28Z" transform="translate(0.09 0.03)" style="fill:#222;opacity:0.9166666865348816;isolation:isolate"/><path d="M18.4,39.2c-.2.26-2.79-.63-5.34-2.59S9,32.38,9.16,32.13s1.76,2,4.31,3.94S18.6,39,18.4,39.2Z" transform="translate(0.09 0.03)" style="fill:#222;opacity:0.9444444179534912;isolation:isolate"/><path d="M18.22,39.2c-.18.24-2.65-.69-5.11-2.58s-4-4-3.81-4.26,1.61,2,4.08,3.91S18.37,39,18.22,39.2Z" transform="translate(0.09 0.03)" style="fill:#222;opacity:0.9722222089767456;isolation:isolate"/><path d="M18,39.14c-.17.22-2.5-.74-4.88-2.56s-3.9-3.82-3.73-4,1.47,2.07,3.85,3.89S18.15,38.92,18,39.14Z" transform="translate(0.09 0.03)" style="fill:#222"/><path d="M18.82,39.38c-.79,1-3.8-.14-6.73-2.51s-4.66-5.07-3.87-6,3.29.54,6.21,2.9S19.61,38.41,18.82,39.38Z" transform="translate(0.09 0.03)" style="fill:#222;fill-opacity:0"/><path d="M18.66,39.3c-.76,1-3.7-.14-6.55-2.44S7.57,31.92,8.34,31s3.2.52,6,2.82S19.43,38.35,18.66,39.3Z" transform="translate(0.09 0.03)" style="fill:#222;opacity:0.02777777798473835;isolation:isolate"/><path d="M18.51,39.2c-.75.93-3.61-.14-6.38-2.38S7.71,32,8.46,31.09s3.11.5,5.88,2.75S19.22,38.3,18.51,39.2Z" transform="translate(0.09 0.03)" style="fill:#222;opacity:0.0555555559694767;isolation:isolate"/><path d="M18.35,39.14c-.73.9-3.5-.13-6.2-2.31s-4.3-4.68-3.57-5.58,3,.49,5.72,2.67S19.08,38.2,18.35,39.14Z" transform="translate(0.09 0.03)" style="fill:#222;opacity:0.0833333358168602;isolation:isolate"/><path d="M18.22,39.06c-.7.88-3.4-.13-6-2.25S8,32.27,8.75,31.39s2.94.48,5.56,2.6S18.9,38.2,18.22,39.06Z" transform="translate(0.09 0.03)" style="fill:#222;opacity:0.1111111119389534;isolation:isolate"/><path d="M18,39c-.69.85-3.31-.13-5.86-2.18s-4-4.42-3.36-5.26,2.86.46,5.4,2.52S18.72,38.13,18,39Z" transform="translate(0.09 0.03)" style="fill:#222;opacity:0.1388888955116272;isolation:isolate"/><path d="M17.88,38.9c-.66.83-3.21-.12-5.68-2.12s-3.93-4.28-3.26-5.1,2.77.45,5.24,2.44S18.55,38.08,17.88,38.9Z" transform="translate(0.09 0.03)" style="fill:#222;opacity:0.1666666716337204;isolation:isolate"/><path d="M17.72,38.82c-.64.8-3.1-.12-5.5-2s-3.81-4.15-3.16-5,2.69.44,5.08,2.37S18.37,38,17.72,38.82Z" transform="translate(0.09 0.03)" style="fill:#222;opacity:0.1944444477558136;isolation:isolate"/><path d="M17.57,38.74c-.63.77-3-.12-5.33-2s-3.69-4-3.06-4.79,2.6.42,4.91,2.3S18.22,38,17.57,38.74Z" transform="translate(0.09 0.03)" style="fill:#222;opacity:0.2222222238779068;isolation:isolate"/><path d="M17.41,38.66c-.6.75-2.91-.12-5.15-1.92s-3.57-3.89-3-4.63,2.52.4,4.76,2.21S18,37.91,17.41,38.66Z" transform="translate(0.09 0.03)" style="fill:#222;opacity:0.25;isolation:isolate"/><path d="M17.22,38.58c-.58.72-2.81-.11-5-1.86S8.77,33,9.35,32.25s2.44.39,4.6,2.14S17.84,37.86,17.22,38.58Z" transform="translate(0.09 0.03)" style="fill:#222;opacity:0.2777777910232544;isolation:isolate"/><path d="M17.1,38.5c-.56.69-2.71-.11-4.8-1.8S9,33.09,9.53,32.39s2.35.38,4.44,2.07S17.66,37.8,17.1,38.5Z" transform="translate(0.09 0.03)" style="fill:#222;opacity:0.3055555522441864;isolation:isolate"/><path d="M16.94,38.42c-.54.67-2.61-.11-4.62-1.73S9.11,33.2,9.65,32.53s2.27.37,4.28,2S17.48,37.75,16.94,38.42Z" transform="translate(0.09 0.03)" style="fill:#222;opacity:0.3333333432674408;isolation:isolate"/><path d="M16.78,38.34c-.52.64-2.51-.1-4.45-1.67s-3.08-3.35-2.56-4S12,33,13.88,34.58,17.3,37.69,16.78,38.34Z" transform="translate(0.09 0.03)" style="fill:#222;opacity:0.3611111044883728;isolation:isolate"/><path d="M16.62,38.26c-.49.62-2.41-.1-4.27-1.6s-3-3.22-2.46-3.84,2.1.33,4,1.84S17.12,37.64,16.62,38.26Z" transform="translate(0.09 0.03)" style="fill:#222;opacity:0.3888888955116272;isolation:isolate"/><path d="M16.47,38.2c-.48.6-2.31-.09-4.1-1.53S9.53,33.58,10,33s2,.32,3.79,1.76S17,37.58,16.47,38.2Z" transform="translate(0.09 0.03)" style="fill:#222;opacity:0.4166666567325592;isolation:isolate"/><path d="M16.31,38.09c-.46.57-2.21-.08-3.92-1.46s-2.72-3-2.26-3.53,1.93.31,3.63,1.69S16.77,37.53,16.31,38.09Z" transform="translate(0.09 0.03)" style="fill:#222;opacity:0.4444444477558136;isolation:isolate"/><path d="M16.15,38c-.43.55-2.11-.08-3.74-1.4s-2.6-2.82-2.16-3.36,1.84.29,3.47,1.61S16.59,37.47,16.15,38Z" transform="translate(0.09 0.03)" style="fill:#222;opacity:0.4722222089767456;isolation:isolate"/><path d="M16,37.93c-.42.52-2-.08-3.57-1.33S10,33.9,10.37,33.39s1.75.28,3.31,1.53S16.41,37.42,16,37.93Z" transform="translate(0.09 0.03)" style="fill:#222;opacity:0.5;isolation:isolate"/><path d="M15.84,37.85c-.39.49-1.91-.08-3.39-1.27s-2.36-2.56-2-3,1.67.27,3.14,1.46S16.22,37.36,15.84,37.85Z" transform="translate(0.09 0.03)" style="fill:#222;opacity:0.5277777910232544;isolation:isolate"/><path d="M15.68,37.77c-.37.47-1.81-.07-3.21-1.2s-2.24-2.43-1.86-2.9,1.58.25,3,1.39S16.06,37.31,15.68,37.77Z" transform="translate(0.09 0.03)" style="fill:#222;opacity:0.5555555820465088;isolation:isolate"/><path d="M15.53,37.69c-.36.44-1.72-.07-3-1.14s-2.11-2.3-1.75-2.73,1.5.23,2.82,1.3S15.88,37.25,15.53,37.69Z" transform="translate(0.09 0.03)" style="fill:#222;opacity:0.5833333134651184;isolation:isolate"/><path d="M15.37,37.61c-.33.41-1.62-.07-2.87-1.08s-2-2.16-1.65-2.57,1.37.24,2.66,1.24S15.7,37.2,15.37,37.61Z" transform="translate(0.09 0.03)" style="fill:#222;opacity:0.6111111044883728;isolation:isolate"/><path d="M15.22,37.53c-.31.39-1.51-.06-2.69-1s-1.87-2-1.55-2.42,1.33.21,2.5,1.16S15.52,37.14,15.22,37.53Z" transform="translate(0.09 0.03)" style="fill:#222;opacity:0.6388888955116272;isolation:isolate"/><path d="M15.06,37.45c-.3.36-1.42-.06-2.52-1s-1.75-1.89-1.45-2.26,1.24.2,2.33,1.08S15.35,37.09,15.06,37.45Z" transform="translate(0.09 0.03)" style="fill:#222;opacity:0.6666666865348816;isolation:isolate"/><path d="M14.9,37.37c-.27.34-1.32-.06-2.34-.88s-1.62-1.77-1.35-2.1,1.16.18,2.17,1S15.22,37,14.9,37.37Z" transform="translate(0.09 0.03)" style="fill:#222;opacity:0.6944444179534912;isolation:isolate"/><path d="M14.74,37.29c-.25.31-1.22-.06-2.16-.82s-1.5-1.63-1.26-1.94,1.08.17,2,.93S15,37,14.74,37.29Z" transform="translate(0.09 0.03)" style="fill:#222;opacity:0.7222222089767456;isolation:isolate"/><path d="M14.59,37.2c-.23.28-1.12-.05-2-.75S11.2,35,11.43,34.66s1,.15,1.86.85S14.81,36.92,14.59,37.2Z" transform="translate(0.09 0.03)" style="fill:#222;opacity:0.75;isolation:isolate"/><path d="M14.43,37.13c-.21.26-1-.05-1.81-.69s-1.27-1.37-1.06-1.63.91.14,1.7.78S14.64,36.87,14.43,37.13Z" transform="translate(0.09 0.03)" style="fill:#222;opacity:0.7777777910232544;isolation:isolate"/><path d="M14.27,37.05c-.19.23-.92,0-1.63-.62s-1.14-1.24-1-1.47.82.12,1.54.7S14.46,36.81,14.27,37.05Z" transform="translate(0.09 0.03)" style="fill:#222;opacity:0.8055555820465088;isolation:isolate"/><path d="M14.11,37c-.16.2-.82,0-1.46-.56s-1-1.1-.85-1.31.74.11,1.37.62S14.28,36.76,14.11,37Z" transform="translate(0.09 0.03)" style="fill:#222;opacity:0.8333333134651184;isolation:isolate"/><path d="M14,36.89c-.15.18-.72,0-1.29-.49s-.89-1-.75-1.16.65.1,1.21.55S14.1,36.7,14,36.89Z" transform="translate(0.09 0.03)" style="fill:#222;opacity:0.8611111044883728;isolation:isolate"/><path d="M13.8,36.81c-.13.15-.62,0-1.11-.43s-.77-.84-.65-1,.56.09,1.05.48S13.93,36.65,13.8,36.81Z" transform="translate(0.09 0.03)" style="fill:#222;opacity:0.8888888955116272;isolation:isolate"/><path d="M13.64,36.72c-.1.14-.52,0-.93-.35s-.65-.71-.55-.84.48.06.89.39S13.75,36.6,13.64,36.72Z" transform="translate(0.09 0.03)" style="fill:#222;opacity:0.9166666865348816;isolation:isolate"/><path d="M13.49,36.64c-.09.11-.43,0-.76-.29s-.53-.58-.45-.68.39,0,.73.32S13.57,36.54,13.49,36.64Z" transform="translate(0.09 0.03)" style="fill:#222;opacity:0.9444444179534912;isolation:isolate"/><path d="M13.33,36.56c-.06.08-.33,0-.58-.23s-.41-.44-.35-.52.31,0,.56.25S13.39,36.49,13.33,36.56Z" transform="translate(0.09 0.03)" style="fill:#222;opacity:0.9722222089767456;isolation:isolate"/><path d="M13.22,36.48c0,.06-.22,0-.4-.16s-.29-.31-.25-.37.22,0,.4.17A.73.73,0,0,1,13.22,36.48Z" transform="translate(0.09 0.03)" style="fill:#222"/></g></svg>