<svg id="Layer_1" data-name="Layer 1" xmlns="http://www.w3.org/2000/svg" viewBox="0 0 153.43 75.11"><title>cfm</title><polygon id="_Path_" data-name=" Path " points="109.3 2.38 112.32 2.39 125.61 23.12 126.39 21.99 113.06 1.14 106.92 1.14 123.13 26.73 123.95 25.54 109.3 2.38" style="fill:#222"/><g id="_Group_" data-name=" Group "><path id="_Path_2" data-name=" Path 2" d="M18.65,27.41a22.56,22.56,0,0,1,3.51-12.1l-1.31-1.06a24.26,24.26,0,0,0-3.57,17l1.61-.52a22.38,22.38,0,0,1-.24-3.27" transform="translate(-14.53 0)" style="fill:#222"/></g><polygon id="_Path_3" data-name=" Path 3" points="56.57 6.12 58.7 6.12 58.7 23.83 61.32 23.83 62.74 23.83 62.74 22.59 59.94 22.59 59.94 6.09 85.19 6.1 85.19 4.89 59.94 4.88 59.94 2.38 85.19 2.38 85.19 1.14 58.7 1.14 58.7 4.88 54.26 4.88 54.26 4.88 56.57 4.88 56.57 6.12" style="fill:#222"/><path id="_Compound_Path_" data-name=" Compound Path " d="M77.27,45.16h-3V28.41h3Zm3.81,0H78.51V28.41H99.66V27.19H78.51V23.82H77.27v3.37H73.08V46.41h4.19v3.24h1.25V46.41h3.81V35.62H81.09Z" transform="translate(-14.53 0)" style="fill:#222"/><g id="_Group_2" data-name=" Group 2"><path id="_Path_4" data-name=" Path 4" d="M21,27.41A21.82,21.82,0,0,0,21.14,30l1.38-.44a18.52,18.52,0,0,1-.12-2.11,19.27,19.27,0,0,1,2.66-9.77l-1.12-.9a20.62,20.62,0,0,0-3,10.67" transform="translate(-14.53 0)" style="fill:#222"/><path id="_Path_5" data-name=" Path 5" d="M41.73,48.13a20.67,20.67,0,0,0,14.82-6.25l-1-1a19.31,19.31,0,0,1-32-7l-1.33.53A20.79,20.79,0,0,0,41.76,48.18" transform="translate(-14.53 0)" style="fill:#222"/><path id="_Path_6" data-name=" Path 6" d="M41.73,8.06a19.28,19.28,0,0,1,13.58,5.59l1-1a20.7,20.7,0,0,0-29.27.1l-.48.5,1.11.89A19.28,19.28,0,0,1,41.73,8.06" transform="translate(-14.53 0)" style="fill:#222"/></g><polygon id="_Path_7" data-name=" Path 7" points="108.16 49.36 108.14 24.88 100.67 12.46 100.67 14.72 100.67 14.89 103.03 18.8 103.03 49.36 104.39 49.36 104.39 21.07 106.92 25.26 106.92 49.36 108.16 49.36" style="fill:#222"/><polygon id="_Path_8" data-name=" Path 8" points="56.57 49.64 56.57 6.12 56.57 4.88 54.26 4.88 52.67 4.88 52.67 53.42 62.73 53.42 63.98 53.42 63.98 49.65 62.74 49.65 56.57 49.64" style="fill:#222"/><polygon id="_Path_9" data-name=" Path 9" points="66.35 20.11 66.35 12.96 88.92 12.96 88.92 2.38 88.92 1.14 88.91 1.14 85.19 1.14 85.19 2.38 85.19 4.89 85.19 6.1 85.19 9.23 62.74 9.23 62.74 22.59 62.74 23.83 63.98 23.83 85.13 23.83 85.14 27.19 85.14 28.43 85.14 31.31 66.55 31.31 66.55 31.37 66.55 35.62 67.79 35.62 88.96 35.62 88.96 32.55 88.96 31.37 88.96 20.11 66.35 20.11" style="fill:#222"/><g id="_Group_3" data-name=" Group 3"><path id="_Path_10" data-name=" Path 10" d="M41.72,16.8a10.48,10.48,0,0,1,7.5,3.06l3-3.07a14.92,14.92,0,1,0,.16,21h0l-3.09-3A10.48,10.48,0,0,1,41.72,38a10.59,10.59,0,0,1,0-21.17" transform="translate(-14.53 0)" style="fill:#222"/><path id="_Path_11" data-name=" Path 11" d="M22.16,15.28l1.78,1.43,1.12.9a20.07,20.07,0,0,1,2.61-3.47l-1.11-.89-1.73-1.4A22.9,22.9,0,0,1,41.6,4.52,22.67,22.67,0,0,1,57.74,11.2l3.11-3.14A27.25,27.25,0,0,0,22.31,7.9c-.59.58-1.15,1.2-1.68,1.83L18.46,12.3l2.39,1.92Z" transform="translate(-14.53 0)" style="fill:#222"/><path id="_Path_12" data-name=" Path 12" d="M58,43.3h0a22.85,22.85,0,0,1-30.12,2.33A23.12,23.12,0,0,1,20.08,35l2.14-.63L23.57,34a19.42,19.42,0,0,1-1-4.44L21.19,30l-2.25.72-1.61.52-2.8.9.94,3.1A27.26,27.26,0,0,0,61.07,46.3Z" transform="translate(-14.53 0)" style="fill:#222"/></g><g id="_Group_4" data-name=" Group 4"><polygon id="_Path_13" data-name=" Path 13" points="125.39 36.92 126.18 38.16 148.63 5.17 147.05 5.17 125.39 36.92" style="fill:#222"/><polygon id="_Path_14" data-name=" Path 14" points="148.63 5.17 148.83 4.88 148.63 5.17 148.63 5.17" style="fill:#222"/><polygon id="_Path_15" data-name=" Path 15" points="141.22 1.14 140.71 1.14 126.59 21.7 125.79 22.85 123.95 25.54 123.13 26.73 125.8 30.73 143.38 5.17 147.05 5.17 148.63 5.17 148.83 4.88 149.74 3.54 149.74 3.53 151.36 1.14 141.22 1.14" style="fill:#222"/></g><polygon id="_Path_16" data-name=" Path 16" points="102.73 1.14 97.32 1.14 97.34 1.17 123.53 42.06 126.18 38.16 102.73 1.14" style="fill:#222"/><polygon id="_Path_17" data-name=" Path 17" points="103.03 49.36 100.67 49.36 100.67 19.98 100.67 14.89 100.67 14.72 100.67 12.46 98.69 9.16 96.86 6.15 96.86 53.37 97.41 53.37 108.16 53.37 108.16 49.36 103.03 49.36" style="fill:#222"/><g id="_Group_5" data-name=" Group 5"><polygon id="_Path_18" data-name=" Path 18" points="143.8 18.05 143.8 18.05 143.8 20.48 146.29 16.82 146.29 49.36 147.54 49.36 147.54 15 150.12 11.22 150.12 49.36 151.36 49.36 151.36 6.94 143.8 18.05" style="fill:#222"/><polygon id="_Path_19" data-name=" Path 19" points="150.12 49.36 147.54 49.36 146.29 49.36 143.8 49.36 143.8 20.48 143.8 18.05 139.79 23.97 139.79 53.37 140.1 53.39 151.36 53.39 151.36 49.5 151.36 49.36 150.12 49.36" style="fill:#222"/></g><g id="_Group_6" data-name=" Group 6"><path id="_Compound_Path_2" data-name=" Compound Path 2" d="M21,74.66V66.24h1.23v8.42Z" transform="translate(-14.53 0)" style="fill:#222"/><path id="_Compound_Path_3" data-name=" Compound Path 3" d="M30.87,74.66l-4.16-6.51h0v6.51H25.45V66.24H26.8l4.09,6.41h0V66.24h1.23v8.42Z" transform="translate(-14.53 0)" style="fill:#222"/><path id="_Compound_Path_4" data-name=" Compound Path 4" d="M36.22,72.17c0,.29.12,1.53,1.36,1.53a1.33,1.33,0,0,0,1.36-1.3v-.13c0-.94-.78-1.15-1.36-1.37a4.41,4.41,0,0,1-1.79-1,2.22,2.22,0,0,1-.57-1.49,2.3,2.3,0,0,1,2.33-2.29h0A2.27,2.27,0,0,1,40,68.25v.16H38.74a1.12,1.12,0,0,0-1-1.22h-.17a1.16,1.16,0,0,0-1.13,1.19v0c0,.81.77,1,1.13,1.16,1.06.4,2.58.73,2.58,2.75a2.45,2.45,0,0,1-2.34,2.55h-.24A2.52,2.52,0,0,1,35,72.42v-.2Z" transform="translate(-14.53 0)" style="fill:#222"/><path id="_Compound_Path_5" data-name=" Compound Path 5" d="M42.94,74.66V66.24h1.28v8.42Z" transform="translate(-14.53 0)" style="fill:#222"/><path id="_Compound_Path_6" data-name=" Compound Path 6" d="M53.63,68.41a3,3,0,0,0-2.3-1.15,3.25,3.25,0,0,0,0,6.49,3.12,3.12,0,0,0,2.9-2.1H50.32V70.53h5.32a4.49,4.49,0,1,1-.58-2.12Z" transform="translate(-14.53 0)" style="fill:#222"/><path id="_Compound_Path_7" data-name=" Compound Path 7" d="M63.09,74.66V71H59.62v3.66H58.39V66.24h1.23v3.63h3.47V66.24h1.23v8.42Z" transform="translate(-14.53 0)" style="fill:#222"/><path id="_Compound_Path_8" data-name=" Compound Path 8" d="M68.62,74.66V67.41H67V66.28h4.46v1.13H69.85V74.7Z" transform="translate(-14.53 0)" style="fill:#222"/><path id="_Compound_Path_9" data-name=" Compound Path 9" d="M73.39,74.66V73.28h1.18v1.38Z" transform="translate(-14.53 0)" style="fill:#222"/><path id="_Compound_Path_10" data-name=" Compound Path 10" d="M78.11,66.24h2.73a3.94,3.94,0,0,1,3.44,1.55,4.81,4.81,0,0,1,.87,2.69,4.5,4.5,0,0,1-1.06,3,4.4,4.4,0,0,1-3.29,1.21H78.11Zm1.23,7.3h1.47A2.85,2.85,0,0,0,83.92,71a4,4,0,0,0,0-.49A3,3,0,0,0,81,67.37H79.34Z" transform="translate(-14.53 0)" style="fill:#222"/><path id="_Compound_Path_11" data-name=" Compound Path 11" d="M92.27,74.66l-.93-2.48h-3l-.93,2.48h-1.3l3.2-8.42h1.1l3.2,8.42Zm-1.36-3.6-1.06-3.23h0l-1.08,3.23Z" transform="translate(-14.53 0)" style="fill:#222"/><path id="_Compound_Path_12" data-name=" Compound Path 12" d="M96.22,74.66V67.41H94.61V66.28h4.46v1.13H97.45V74.7Z" transform="translate(-14.53 0)" style="fill:#222"/><path id="_Compound_Path_13" data-name=" Compound Path 13" d="M106.45,74.66l-.94-2.48h-3l-.94,2.48h-1.35l3.19-8.42h1.11l3.2,8.42Zm-1.36-3.6L104,67.83h0l-1.08,3.23Z" transform="translate(-14.53 0)" style="fill:#222"/><path id="_Compound_Path_14" data-name=" Compound Path 14" d="M110.7,74.66V73.28h1.18v1.38Z" transform="translate(-14.53 0)" style="fill:#222"/><path id="_Compound_Path_15" data-name=" Compound Path 15" d="M120.76,68.41a3.08,3.08,0,0,0-2.37-1.18,3.15,3.15,0,0,0-3.17,3.15v0a3.24,3.24,0,0,0,3.11,3.27,3.08,3.08,0,0,0,2.3-1.12h1.59a4.32,4.32,0,0,1-3.82,2.24,4.39,4.39,0,0,1-4.33-4.4,4.33,4.33,0,0,1,4.32-4.34h0a4.46,4.46,0,0,1,2.57.82,4.28,4.28,0,0,1,1.24,1.53Z" transform="translate(-14.53 0)" style="fill:#222"/><path id="_Compound_Path_16" data-name=" Compound Path 16" d="M124.82,74.66V66.24h1.23v7.3H129v1.12Z" transform="translate(-14.53 0)" style="fill:#222"/><path id="_Compound_Path_17" data-name=" Compound Path 17" d="M137.22,74.66l-.94-2.48h-3l-.94,2.48h-1.29l3.19-8.42h1.11l3.2,8.42Zm-1.36-3.6-1.07-3.23h0l-1.08,3.23Z" transform="translate(-14.53 0)" style="fill:#222"/><path id="_Compound_Path_18" data-name=" Compound Path 18" d="M144.94,74.66l-2.78-3.9h0v3.9h-1.23V66.24h2.61a3,3,0,0,1,2.24.71,2.81,2.81,0,0,1,.77,2,2.41,2.41,0,0,1-2.23,2.57h-.18l2.36,3.14Zm-2.8-4.07H143c.5,0,2.32,0,2.32-1.65,0-.71-.47-1.57-1.86-1.57h-1.3Z" transform="translate(-14.53 0)" style="fill:#222"/><path id="_Compound_Path_19" data-name=" Compound Path 19" d="M149.22,74.66V66.24h1.22v8.42Z" transform="translate(-14.53 0)" style="fill:#222"/><path id="_Compound_Path_20" data-name=" Compound Path 20" d="M154.45,74.66V67.41h-1.62V66.28h4.47v1.13h-1.62V74.7Z" transform="translate(-14.53 0)" style="fill:#222"/><path id="_Compound_Path_21" data-name=" Compound Path 21" d="M162,74.66v-3l-2.62-5.38h1.38l1.85,4,1.85-4h1.36l-2.63,5.34v3Z" transform="translate(-14.53 0)" style="fill:#222"/><path id="_Compound_Path_22" data-name=" Compound Path 22" d="M166.77,74.66V73.28H168v1.38Z" transform="translate(-14.53 0)" style="fill:#222"/></g></svg>