<?xml version="1.0" encoding="utf-8"?>
<!-- Generator: Adobe Illustrator 22.1.0, SVG Export Plug-In . SVG Version: 6.00 Build 0)  -->
<svg version="1.1"
	 id="svg3936" inkscape:version="0.91 r13725" sodipodi:docname="computershare.svg" xmlns:cc="http://creativecommons.org/ns#" xmlns:dc="http://purl.org/dc/elements/1.1/" xmlns:inkscape="http://www.inkscape.org/namespaces/inkscape" xmlns:rdf="http://www.w3.org/1999/02/22-rdf-syntax-ns#" xmlns:sodipodi="http://sodipodi.sourceforge.net/DTD/sodipodi-0.dtd" xmlns:svg="http://www.w3.org/2000/svg"
	 xmlns="http://www.w3.org/2000/svg" xmlns:xlink="http://www.w3.org/1999/xlink" x="0px" y="0px" viewBox="0 0 240.5 44.6"
	 style="enable-background:new 0 0 240.5 44.6;" xml:space="preserve">
<style type="text/css">
	.st0{fill:#222222;}
</style>
<sodipodi:namedview  bordercolor="#666666" borderopacity="1.0" fit-margin-bottom="0" fit-margin-left="0" fit-margin-right="0" fit-margin-top="0" id="base" inkscape:current-layer="layer1" inkscape:cx="119.99991" inkscape:cy="22.0635" inkscape:document-units="px" inkscape:pageopacity="0.0" inkscape:pageshadow="2" inkscape:window-height="744" inkscape:window-maximized="1" inkscape:window-width="1280" inkscape:window-x="-4" inkscape:window-y="-4" inkscape:zoom="3.7708362" pagecolor="#ffffff" showgrid="false" units="px">
	</sodipodi:namedview>
<g id="layer1" transform="translate(-1160.0001,-906.94156)" inkscape:groupmode="layer" inkscape:label="Layer 1">
	<g id="g3945" transform="translate(1155.2499,902.25556)">
		<path id="path3947" inkscape:connector-curvature="0" class="st0" d="M202.7,30.6c0,4.1,0.9,5.8,3.2,5.8c1.9,0,2.9-1.9,2.9-5.8
			c0-4-0.9-6-2.9-6C203.3,24.6,202.7,27,202.7,30.6 M197.4,30.4c0-3.9,0.8-6.6,2.5-8.3c0.8-0.8,2.4-1.8,4.1-1.8
			c2.3,0,4.3,1.2,5.2,2.3l0.2,0.2l0.4-1.6c0.1-0.6,0.7-1,1.2-1h2.3c0.6,0,1,0.4,1,1c0,0,0,14.5,0,14.7c0,1.4-0.1,3,0.4,4.7
			c-0.4,0-3.6,0-3.6,0c-0.6,0-0.9-0.3-1-1l-0.2-1.4l-0.2,0.3c-1,1.5-3.1,2.4-5.6,2.4C201.2,40.9,197.4,39.8,197.4,30.4L197.4,30.4z"
			/>
		<path id="path3949" inkscape:connector-curvature="0" class="st0" d="M37.7,30.4c0,4.1,1.1,6.1,3.3,6.1c2.2,0,3.3-2,3.3-6.1
			c0-4.1-1.1-6-3.3-6C38.8,24.4,37.7,26.3,37.7,30.4 M32.6,30.4c0-6.5,3.2-10.4,8.5-10.4c5.3,0,8.4,3.9,8.4,10.4
			c0,6.7-3.1,10.5-8.4,10.5C35.6,40.9,32.6,37.2,32.6,30.4z"/>
		<path id="path3951" inkscape:connector-curvature="0" class="st0" d="M67.6,22.7c1.3-1.6,3.5-2.6,5.3-2.6c3.1,0,5,2.1,5,5.6
			c0,0,0,14.7,0,15c-0.3,0-4.2,0-4.2,0c-0.5,0-1-0.4-1-1V26.3c0-1.3-0.8-1.9-1.7-1.9c-1.9,0-3.2,1.7-3.2,4.3c0,0,0,11.6,0,11.9
			c-0.3,0-4.2,0-4.2,0c-0.5,0-1-0.4-1-1V26.3c0-1.3-0.8-1.9-1.7-1.9c-1.9,0-3.2,1.7-3.2,4.3c0,0,0,11.6,0,11.9c-0.3,0-4.2,0-4.2,0
			c-0.5,0-1-0.4-1-1c0,0,0-19,0-19.3c0.3,0,3.4,0,3.4,0c0.7,0,0.9,0.5,1,0.9l0.4,1.6l0.2-0.2c1.3-1.5,3.4-2.5,5.2-2.5
			c2.2,0,3.8,0.9,4.5,2.6l0.1,0.2L67.6,22.7"/>
		<path id="path3953" inkscape:connector-curvature="0" class="st0" d="M86.9,30.5c0,4.1,0.9,6.1,2.9,6.1c2.7,0,3.2-2.4,3.2-6.1
			c0-4.1-0.9-5.8-3.2-5.8C87.8,24.7,86.9,26.6,86.9,30.5 M87,22.9c0.7-1.4,2.6-2.9,4.7-2.9c2.9,0,6.8,1.1,6.8,10.7
			c0,4-0.8,6.7-2.5,8.4c-0.9,0.9-2.4,1.8-4.2,1.8c-1.8,0-3.3-0.7-4.4-2.1l-0.3-0.3c0,0,0,10.2,0,10.6c-0.3,0-4.2,0-4.2,0
			c-0.6,0-1-0.4-1-1c0,0,0-27.4,0-27.7c0.3,0,3.2,0,3.2,0c0.6,0,1.1,0.4,1.2,1l0.3,1.5l0.1,0.4C86.8,23.4,87,22.9,87,22.9z"/>
		<path id="path3955" inkscape:connector-curvature="0" class="st0" d="M116.1,20.4c0.5,0,1,0.4,1,1c0,0,0,19,0,19.3
			c-0.3,0-3.4,0-3.4,0c-0.7,0-0.9-0.5-1-0.9l-0.4-1.6l-0.2,0.2c-1.6,1.7-3.5,2.5-5.7,2.5c-3.1,0-5.3-2.1-5.3-5.1c0,0,0-15.1,0-15.5
			c0.3,0,4.2,0,4.2,0c0.5,0,1,0.4,1,1v13.4c0,1.2,0.8,1.9,2.1,1.9c2,0,3.5-1.9,3.5-4.3c0,0,0-11.6,0-11.9
			C112.2,20.4,116.1,20.4,116.1,20.4"/>
		<path id="path3957" inkscape:connector-curvature="0" class="st0" d="M168.9,36.7c1.3,0,2-0.6,2.1-1.7c0.1-1.5-1.4-2.3-3-3.1
			l-1-0.5c-2-1.1-4.1-2.6-4.1-5.4c0-3.7,2.6-6,6.6-6c2.5,0,4.2,0.7,6,1.5c0,0,0,0,0.1,0c-0.1,0.3-1,2.6-1,2.6
			c-0.1,0.3-0.5,1-1.1,0.8l-0.6-0.3c-0.8-0.3-1.8-0.7-2.9-0.7c-1.3,0-1.9,0.9-1.9,1.8c0,1.2,1.2,1.8,2.7,2.6l0.9,0.5
			c2.2,1.2,4.5,2.9,4.5,6c0,3-1.8,6.3-7,6.3c-2.2,0-5.4-1-7.1-1.7c0.1-0.3,1-3.2,1-3.2c0.1-0.3,0.3-0.6,0.5-0.7
			c0.2-0.1,0.4-0.1,0.6,0c0,0,0.9,0.4,0.9,0.4C166.4,36.3,167.6,36.7,168.9,36.7"/>
		<path id="path3959" inkscape:connector-curvature="0" class="st0" d="M183,11.2c0.5,0,1,0.4,1,1v10.4l0.3-0.3
			c0.6-0.7,2.4-2.2,5-2.2c3.1,0,5,2,5,5.1c0,0,0,15.1,0,15.4c-0.3,0-4.2,0-4.2,0c-0.5,0-1-0.4-1-1V26.3c0-1.3-0.7-1.9-1.9-1.9
			c-1.9,0-3.3,1.8-3.3,4.3c0,0,0,11.6,0,11.9c-0.3,0-4.2,0-4.2,0c-0.5,0-1-0.4-1-1c0,0,0-28.2,0-28.5C179.1,11.2,183,11.2,183,11.2"
			/>
		<path id="path3961" inkscape:connector-curvature="0" class="st0" d="M223,22.7c1.1-1.6,2.3-2.6,4.7-2.6c0.8,0,1,0.5,1,1
			c0,0,0,3.4,0,3.7c-1.8-0.1-3.2,0.3-4.1,1.2c-1.1,1-1.6,2.7-1.6,5.2c0,0,0,9.2,0,9.5c-0.3,0-4.2,0-4.2,0c-0.5,0-1-0.4-1-1
			c0,0,0-17.5,0-19.3c0.3,0,3.3,0,3.3,0c0.6,0,1.1,0.4,1.2,1c0,0,0.4,1.6,0.4,1.6L223,22.7"/>
		<path id="path3963" inkscape:connector-curvature="0" class="st0" d="M155.9,22.7c1.1-1.6,2.3-2.6,4.7-2.6c0.8,0,1.1,0.5,1.1,1
			c0,0,0,3.4,0,3.7c-1.8-0.1-3.2,0.3-4.1,1.2c-1.1,1-1.6,2.7-1.6,5.2c0,0,0,9.2,0,9.5c-0.3,0-4.2,0-4.2,0c-0.5,0-1-0.4-1-1
			c0,0,0-17.5,0-19.3c0.3,0,3.3,0,3.3,0c0.6,0,1.1,0.4,1.2,1c0,0,0.4,1.6,0.4,1.6L155.9,22.7"/>
		<path id="path3965" inkscape:connector-curvature="0" class="st0" d="M124.7,13.6c0.5,0,0.8,0,1,0.2c0.2,0.2,0.3,0.5,0.3,1v5.6
			h3.4c0.6,0,1,0.4,1,1c0,0,0,2.8,0,3.1c-0.3,0-4.4,0-4.4,0v10c0,1.1,0.5,1.8,1.4,1.8c0.5,0,0.9,0,1.4-0.2c0.6-0.2,0.8,0.1,0.9,0.6
			c0,0,0.5,2.8,0.6,3.4c-1.4,0.5-3.2,0.9-4.8,0.9c-3.2,0-4.7-1.7-4.7-5.1c0,0,0-21.9,0-22.3C121.1,13.6,124.7,13.6,124.7,13.6"/>
		<path id="path3967" inkscape:connector-curvature="0" class="st0" d="M229,30.4c0-6.3,3.2-10.4,8.1-10.4c5.2,0,7.9,3.6,7.9,10.7
			c0,0.6-0.4,1-1,1h-9.6v0.2c0,2.5,0.2,5.1,2.7,5.1c1.6,0,2.4-0.9,2.7-2.7c0.2,0,4.6,0,4.9,0c-0.5,5-4,6.7-7,6.7
			C231.9,40.9,229,37.4,229,30.4 M234.4,28.4v0.1h5.5v-0.1c0-2.9-0.9-4.3-2.7-4.3C236,24.1,234.4,24.8,234.4,28.4L234.4,28.4z"/>
		<path id="path3969" inkscape:connector-curvature="0" class="st0" d="M131.7,30.4c0-6.3,3.2-10.4,8.1-10.4c5.2,0,7.9,3.6,7.9,10.7
			c0,0.6-0.4,1-1,1h-9.6v0.2c0,2.5,0.2,5.1,2.7,5.1c1.6,0,2.4-0.9,2.7-2.7c0.2,0,4.6,0,4.9,0c-0.5,5-4,6.7-7,6.7
			C134.6,40.9,131.7,37.4,131.7,30.4 M137.1,28.4v0.1h5.5v-0.1c0-2.9-0.9-4.3-2.7-4.3C138.7,24.1,137.1,24.8,137.1,28.4L137.1,28.4z
			"/>
		<path id="path3971" inkscape:connector-curvature="0" class="st0" d="M19.8,42.7c-3.9-1.8-6.1-5.9-6.1-10.7c0-2.3,0.5-4.8,1.6-7.2
			c2.7-5.9,8.4-8.8,12.5-9.5c0,0,1.2-0.2,1.4-0.2c0,0.3,0.5,3,0.5,3.3c-0.3,0-1.5,0.2-1.5,0.2c-3.4,0.6-8,3.3-10.1,8.2
			c-0.9,2.1-1.4,4.2-1.4,6.2c0,3.9,1.8,7.4,5,8.8c3.7,1.7,8,0.3,11.2-3.6c0.1,0.2,0.3,0.4,0.4,0.5C29.3,43.1,24.2,44.7,19.8,42.7"/>
		<path id="path3973" inkscape:connector-curvature="0" class="st0" d="M17.3,44.4c-5.1-2.3-8-7.6-8-13.7c0-2.8,0.6-5.8,2-8.8
			c3.3-7.4,10.6-10.9,15.8-11.7c0,0,1-0.2,1.2-0.2c0.1,0.9,0.4,2.8,0.5,3.3c-0.3,0-1.3,0.2-1.3,0.2c-4.8,0.8-10.8,4.2-13.5,10.3
			c-1.1,2.5-1.7,5.2-1.7,7.8c0,1.9,0.3,3.7,0.9,5.4c1.1,3,3.2,5.3,5.9,6.5c4.8,2.2,10.4,0.6,14.6-4.1c0.1,0.1,0.3,0.4,0.4,0.5
			C29.3,45.1,22.9,46.9,17.3,44.4"/>
		<path id="path3975" inkscape:connector-curvature="0" class="st0" d="M27.6,4.9c0,0.3,0.4,2.9,0.5,3.2c-0.3,0-1.3,0.2-1.3,0.2
			C21.1,9,13.5,13.2,10,20.9c-1.4,3.1-2.1,6.4-2.1,9.4c0,6.6,3.1,12.4,8.7,14.9c6,2.7,12.8,0.9,18-4.6c0.1,0.1,0.3,0.4,0.4,0.5
			c-5.8,6.1-13.5,8.1-20.2,5.1C5.7,41.9,2.3,30,7.3,19c3.8-8.4,12.4-13,19.2-14C26.5,5,27.2,5,27.6,4.9"/>
	</g>
</g>
</svg>
