<svg id="Layer_1" data-name="Layer 1" xmlns="http://www.w3.org/2000/svg" viewBox="0 0 179.67 76.33"><title>lloyds</title><path d="M176.78,41.18c1.45,1.06,2.93,1.82,2.93,3.51,0,.48-.62,1-2,1A3.33,3.33,0,0,1,175,44.63c-.44-.57.2-1.35-.19-1.92s-1-.24-1.4-.49a2.4,2.4,0,0,1-.91-1.24A18.34,18.34,0,0,0,169.22,37a5.75,5.75,0,0,0-3.32-1.92,8.34,8.34,0,0,1-1,0c-1.1,0-2.07,1.06-3.65,1.74a9.47,9.47,0,0,1-2.46.86l-.24.29H160c1.35,0,3.14-.18,4.49-.18s2.06,1.24,2.59,2.55a75,75,0,0,0,4.5,9.66c.93,1.48,1.69,2.45,1.69,4.29,0,.56,0,1.34-.81,1.34-1.06,0-3.76-1.11-3.76-2.31,0-.92.72-1.3.72-2.22,0-.58-.86-.48-1.06-1-.67-2.84-1.49-5.64-3.08-7.31-.81-.88-.91-1.26-1.73-1.26a3.35,3.35,0,0,0-1.25.24c-2.22.82-5.16,3.28-8.82,4.38-1.39.43-1.63-.38-3.08-.09h.1c-1.15.23-2.07.91-3.66,1.35a26,26,0,0,1-9,.52,60.71,60.71,0,0,0-6.16-.67c-.92,2.65-2.89,6.11-5.79,7.46-1.54.68-2,1.64-1.54,3.37.58,2.17,2.51,3.77,3.52,5.59.92,1.59,2.41,4.08,4,4.91s2.55,2,2.55,3c0,.47-.19.76-.68.76h-3.17a.86.86,0,0,1-.82-.48c-.44-.82-.14-1.59-.72-2.31-.44-.53-.78-.39-1.3-.82-1-.92-.25-1.44-1-2.6A76,76,0,0,0,122.13,60c-1-1.21-2.12-1.79-2.12-3.37,0-1.92,1.93-2.27,1.88-4.19A10,10,0,0,1,117,54.4a4.09,4.09,0,0,0-1.4,1,3.85,3.85,0,0,0-1.15,2.7c-.24,2.59-.77,5.24-.44,7.84a4.2,4.2,0,0,0,2.12,3.18,3.73,3.73,0,0,1,2,2.6c0,.33-.09.72-.57.72h-3.42a.85.85,0,0,1-.74-.4c-.39-.67-.14-1.16-.3-1.92-.33-1.59-2.11-1.5-2.11-3.14,0-.47.29-1.1.34-2.11.09-2.22.76-5.78.09-10.11-.29-2.51,2.31-2.6,3.66-4.82a12.39,12.39,0,0,0,1.06-1.64,3.7,3.7,0,0,0,.34-2.22,14.54,14.54,0,0,1-.24-5.38,8.84,8.84,0,0,1,1.78-4,.25.25,0,0,0-.29-.24c-1.35.1-1.35-.24-2.26-.24a2,2,0,0,0-1.69,1.1,1.12,1.12,0,0,1-.62-1,1.83,1.83,0,0,1,.57-1.4c.19-.19,0-.28-.24-.28-1.06,0-2.07,1.3-2.31,2.21-.62-.1-.68-.91-1-.91s-.47.43-.47.86c0,3.09,5,3.76,5,7.8,0,4.67-5.63,3.71-5.63,5.39a.94.94,0,0,0,.68.82,1.25,1.25,0,0,1-1.21.63,2.1,2.1,0,0,1-2.15-2.07v-.11c0-2.55,3.42-2.6,3.42-4.52,0-.92-.57-1.21-1.11-1.64-3.27-2.31-5.1-4.62-5.1-8.42,0-4.1,2.84-7.23,6.55-7.23,5.39,0,5.54,6.21,10.45,6.74a11,11,0,0,1,6.11-2c3.18,0,4.58.83,7.94.83A11.38,11.38,0,0,0,141,30.8a15.22,15.22,0,0,0,2.35-1.64c2.12-1.82,4.09-5.39,4.09-7.94v.14c0-.81-.18-1.29-.57-1.29-1.16,0-2.16,1.06-3.32,2.16-.72.77.39,1.11-1.26,2-.57.29-1.24-.24-1.87-.24-1.3,0-1.88-1.54-1.88-2.88,0-.68.53-.87.82-1.5.67-1.3.62-1.78,1.25-3.08.39-.87,1.06-1.45,1-2.08,0-.23-.19-.38-.19-.62,0-1.3,1.73-2.17,1.73-3.46,0-.72-.82-1.07-1-1.64s0-.72,0-.72a.27.27,0,0,1,.24-.14c.68,0,1,.71,1.6,1.1,0-.87-.25-1.06-.25-1.69,0-.33,0-.86.29-.86s.38.58.77.86.92.35,1.45.68,1.06,1.16,1.3,1.2c.67.1.86-.72.52-1.2.77,0,1.55.58,2.56.58a3.2,3.2,0,0,1,2.4.67c1,.86,1.21,1.54,2.32,1.54a1.26,1.26,0,0,0,1-.68c.76.58.82,2,0,3.24.33,1,1.77,1.1,2.45,1.58s.58.73,1.06,1a.91.91,0,0,0,1,0,2.39,2.39,0,0,1-2,2.72l-.2,0c0,1.73,1.88,2.79,2.7,3.22a2.86,2.86,0,0,1-2.13,1.59c.25,1.06,1.4,2.61.82,4a.88.88,0,0,0-1.3.77c0,.87,1.11,1.3,0,1.93-.53.29-.63,1.05.33,1.78a14.21,14.21,0,0,1,3.85-.29c.87,0,2-.24,2.8-.24a4.22,4.22,0,0,1,3.37,1.73c2.65,2.89,5,5.92,7.8,8m-71.47-7.65c.57,0,1.64-3.18,3.8-3.18.63,0,.77.24.77.48,0,.43-.72.82-.72,1.4a.23.23,0,0,0,.22.24h0c.52,0,.91-1.15,3.08-1.15a5.61,5.61,0,0,1,1.58.19c.25.05.73.28.54-.39a4.67,4.67,0,0,0-4.48-2.89,5.39,5.39,0,0,0-5,4.58c0,.43,0,.72.2.72m40-19.84c-.62-.24-.72-.58-.53-1.34s.19-1.16-.19-1.26-.77.1-1.21.58a8.77,8.77,0,0,0-1.2,1.69c-.19.67.63.57.05,1.68a20.85,20.85,0,0,0-1.74,3.51,6.26,6.26,0,0,1-1,2c-.3.39.38.43,1.15.2s.86.66.58,1.34c-.25.48,0,.67.62.15s-.34-.87-.09-2.41a8.55,8.55,0,0,1,1.39-3.57c.73-1.2,1.36-2.07,2.6-1.63.49.24.24-.63-.43-.92m26.77,40.88c.24,0,.29-.34.29-.62a3.17,3.17,0,0,0-.92-2.12c-.14,1-.62,1.68-.62,2.12s.91.62,1.25.62m6-9.68c.39,0,1-.14,1-.43a2.67,2.67,0,0,0-1.78-1.85c.53,1,0,2.26.67,2.26M151.6,31.69c5.43,2.5,5.1,7.07,5.58,5.92a4.72,4.72,0,0,0-1-4.91c-1.49-1.73-2.07-1.29-1.49-2.75,2.35-5.72,3.85-14.39-3.23-17.43-.82-.33-1.49-.33-1.49-.19s.77.4,1.69,1c4.72,3.14,3.26,11.71-1.08,15.81-1.44,1.39-.76,1.73,1,2.55M133,71.6c.39,0,.19-.57.05-.81a3.23,3.23,0,0,0-1.5-1.21c.15.57.2,2,.78,2Zm-16.42,0c.39,0,.1-.57,0-.81a3.23,3.23,0,0,0-1.54-1.16c.15.58.24,2,.82,2ZM136.47,39c3-.34,3.48-1,4-3.28a6.93,6.93,0,0,1,1.69-2.89,9,9,0,0,0,1.3-1.59c.14-.28.24-.53,0-.43a17.91,17.91,0,0,0-1.78,1.25A14.07,14.07,0,0,1,135,34.32c-2.75,0-5.1-.82-7.61-.82-7.51,0-10.3,5.88-9.91,9.3,0,.52.14.57.33.57.53,0,1-2,2.85-3.8a13.56,13.56,0,0,1,10-4.1c3.08,0,4.34,1,4.34,1.4,0,.77-1.31.82-1.2,1.59,0,.24.71.82,2.68.58M.56,76.37H159.94V73.74H.56ZM29.21,0a7.3,7.3,0,1,0,7.28,7.32v0A7.23,7.23,0,0,0,29.31,0ZM57,.2a7.12,7.12,0,1,1,0,14.24H52.48V.16ZM5.69,21.68c2.43,0,4.38,1.32,4.38,3.82a3.25,3.25,0,0,1-1.59,2.83,3.9,3.9,0,0,1,2.11,3.46c0,2.9-2.27,4.14-5.06,4.14h-5V21.68Zm14,21.53c2.82,0,4.77,1.51,4.77,4.33a4.12,4.12,0,0,1-2.7,3.94l3.42,6h-2.7l-3.1-5.64H17.43v5.61H15V43.21ZM40.46,21.68V35.93H38.63L30.56,25.54V35.93H28.17V21.68h2.21l7.76,9.91V21.68ZM63.82,43.21c2.78,0,4.81,1.79,4.81,4.53s-2.15,4.62-5,4.62h-2v5.09H59.28V43.21ZM29.21,12.33a4.85,4.85,0,0,1-4.83-4.89V7.28A4.82,4.82,0,0,1,34,6.84a3.23,3.23,0,0,1,0,.44,4.86,4.86,0,0,1-4.67,5.05h-.13Zm26.73,9.35-6.25,7L56.26,36H53l-6-6.81V36H44.6V21.68H47v6.69l5.93-6.69Zm-.36,21.53v9.11c0,3.26-2.23,5.33-5.49,5.33s-5.49-2.07-5.49-5.33V43.21H47v9a2.93,2.93,0,0,0,2.71,3.14h.39a2.88,2.88,0,0,0,3.08-2.65,2.68,2.68,0,0,0,0-.49v-9ZM68.19,1a5.61,5.61,0,0,1,3.19-1A8.65,8.65,0,0,1,75,.76V3h0a8.15,8.15,0,0,0-3.39-.8C70.34,2.24,69,2.64,69,4c0,.92.72,1.43,3.06,2.15S76,8,76,10.36c0,2.58-2.35,4.21-4.85,4.21a8.87,8.87,0,0,1-4.1-1h0V11.1h.08a7.68,7.68,0,0,0,4,1.23c1.23,0,2.54-.59,2.54-1.95S72.23,8.55,70.52,8c-1.91-.6-3.78-1.67-3.78-4.06a3.54,3.54,0,0,1,1.51-3ZM54.87,2.47v9.67H57a4.7,4.7,0,0,0,4.82-4.58V7.28a4.66,4.66,0,0,0-4.5-4.81H54.87ZM50.53.16,41.94,14.4H39.23l3.38-5.57L37.08.16h2.83L44,6.73,47.82.16Zm-36,0V12h6.56v2.34h-9V.16ZM3,.16V12H9.55v2.34h-9V.16ZM60.71,21.68V35.93H58.29V21.68ZM3,29.68v4H5.38c1.74,0,2.7-.76,2.7-2a2,2,0,0,0-2-2l-.29,0ZM61.59,45.47V50h1.95c1.67,0,2.66-.84,2.66-2.23A2.25,2.25,0,0,0,64,45.49a1.82,1.82,0,0,0-.33,0Zm-44.16,0v4.22H19.7c1.39,0,2.34-.71,2.34-2.11s-1-2.11-2.46-2.11ZM3,23.87v3.7H5.61a1.9,1.9,0,0,0,2.06-1.72,1.21,1.21,0,0,0,0-.19c0-1.19-1-1.79-2.19-1.79Zm74.19-2.19V35.93H75.31L67.2,25.54V35.93H64.85V21.68H67l7.76,9.91V21.68ZM21.85,32H16l-1.51,3.9H12l5.77-14.3h2.38L26,35.93h-2.6Zm-5-2.19H21l-2-5.33ZM34.26,43a7.3,7.3,0,1,0,7.28,7.32v0A7.21,7.21,0,0,0,34.4,43Zm0,12.33a5,5,0,1,1,4.81-5.19v.14a4.86,4.86,0,0,1-4.67,5ZM10.9,46a10.78,10.78,0,0,0-3.18-.6,5,5,0,0,0-.2,10,10.87,10.87,0,0,0,1.4-.12V49.93h2.34v7.2h0a15.82,15.82,0,0,1-3.62.52C3,57.65,0,54.43,0,50.33c0-4.3,3.31-7.24,7.72-7.24a10.74,10.74,0,0,1,3.18.51ZM91.11,24.47a10.78,10.78,0,0,0-3.18-.6,5,5,0,1,0-.2,10h0a10.71,10.71,0,0,0,1.39-.12V28.41h2.35v7.2h0a15.8,15.8,0,0,1-3.62.51c-4.66,0-7.6-3.22-7.6-7.32,0-4.29,3.3-7.24,7.72-7.24a10.43,10.43,0,0,1,3.18.52Z" transform="translate(-0.04 -0.04)" style="fill:#222"/></svg>