<svg id="Layer_1" data-name="Layer 1" xmlns="http://www.w3.org/2000/svg" viewBox="0 0 2500 2500"><title>mfl</title><path d="M0-981.1H2500v2500H0Z" transform="translate(0 981.1)" style="fill:#fff;fill-opacity:0"/><path d="M920.83,327.62,911,219.18q-2.52-27.26-3.78-54.61h-.75c-7.54,16.94-19.2,40.29-27.11,55.73L823.68,329.5H810.12L753.65,220.3c-8.29-15.81-18.46-37.27-26.75-55h-.75c-.75,18.45-2.63,39.54-3.76,53.85L713,327.62H680.59L701.3,87.38h22.59l64,123.51c9.78,18.82,22.21,43.29,30.12,61.75h.75c7.54-18.45,19.2-41.79,29.38-61.75L911.41,87.38H934l21.47,240.24Zm169.06,4.15c-50.84,0-90.75-36.53-90.75-89.25,0-53.1,39.91-89.62,90.75-89.62s90.37,36.52,90.37,89.62c0,52.71-39.54,89.25-90.37,89.25Zm0-148.74c-30.13,0-56.11,23.72-56.11,59.49,0,35.4,26,59.12,56.11,59.12,29.74,0,55.73-23.72,55.73-59.12,0-35.78-26-59.49-55.73-59.49Zm242.12,1.5h-54.23v94.9c0,13.92,11.3,21.46,25.23,21.46,7.17,0,13.58-.76,18.82-2.64l-6.76,30.51c-3.75,1.13-8.66,1.5-15.45,1.5-30.85,0-55.72-18.08-55.72-52V184.53h-33.51V157h33.51V122.4l33.88-17.7V157H1338l-6,27.49Zm164.91,147.24a34.83,34.83,0,0,1-24.85-21.86c-12,15.84-29.37,21.86-47.83,21.86-33.87,0-55-24.85-55-52.34,0-33.15,27.11-52,56.11-54.6l39.92-3.76V210.15c0-15.44-9-27.86-33.14-27.86-17,0-34.65,5.27-47.09,13.55l-6.76-28.23c15.45-10.17,35-14.68,55.73-14.68,38,0,65.51,21.46,65.51,61.75v68.89c0,15.43,8.31,24.49,19.22,26.36l-21.85,21.84Zm-31.61-82.48-33.89,3c-20.34,1.88-29.39,15.06-29.39,27.48,0,12.07,10.18,23,23.74,23,18.09,0,39.54-16.95,39.54-38.41v-15Zm158.14,82.48c-26,0-46-7.54-59.5-15.83V59.51h34.28v99c5.65-2.64,15.44-5.65,29.73-5.65,48.59,0,93,34.64,93,88.1,0,56.51-39.93,90.78-97.53,90.78ZM1628,183c-12.78,0-23.7,3.76-29.73,7.52V297.12c6,2.26,12.06,4.52,25.22,4.52,39.55,0,62.88-24.09,62.88-60.62,0-35.77-29.74-58-58.37-58Zm165.32-58.74c-6.79,0-20.73-13.93-20.73-20.71,0-7.15,13.93-21.08,20.73-21.08,7.14,0,21.07,13.93,21.07,21.08C1814.35,110.35,1800.41,124.29,1793.28,124.29ZM1776,157h34.66V327.62H1776ZM1914.51,334.4c-11.3-3-33.89-14.32-33.89-47.07V59.51h34.28v223.3c0,15.82,12.43,26.35,23,28.24Zm96-210.11c-6.79,0-20.73-13.93-20.73-20.71,0-7.15,13.93-21.08,20.73-21.08,7.14,0,21.07,13.93,21.07,21.08C2031.62,110.35,2017.68,124.29,2010.55,124.29ZM1993.22,157h34.63V327.62h-34.63Zm201.43,27.49h-54.21v94.9c0,13.92,11.3,21.46,25.23,21.46,7.14,0,13.55-.76,18.81-2.64l-6.75,30.51c-3.78,1.13-8.67,1.5-15.45,1.5-30.88,0-55.73-18.08-55.73-52V184.53H2073V157h33.51V122.4l33.89-17.7V157h60.24l-6,27.49Zm132.18,126.52c-25.62,62.89-53.48,90.38-87,105.43l-20.73-21.08c31.26-11.66,52.71-33.88,72.69-82.85L2228.17,157h35.39l31.63,77.57c4.54,10.92,9.81,24.47,14.7,38.4h.74c4.54-13.17,9.8-26,14.32-37.27l32-78.7h32.75l-62.89,154ZM697.23,416H681.08v-6.55h39.74V416H704.67v45.41h-7.44Zm30.37-10.42h7v23.29h.15c2.53-4,6.93-6.32,12.21-6.32,9.82,0,14.21,6.11,14.21,16.31v22.55h-7V441.79c0-8.86-1.93-13.18-8-13.54-8,0-11.55,6.39-11.55,15.63v17.56h-7Zm74.59,54.27a29.24,29.24,0,0,1-12,2.44c-13.48,0-19.66-8.18-19.66-20.54,0-11.23,7.07-19.2,17.79-19.2,12.66,0,16.76,9.24,16.76,21.43H778a12.44,12.44,0,0,0,12.51,12.67,22.42,22.42,0,0,0,11.68-3.8v7Zm-4.55-21.07c0-5.8-3.42-10.56-9.45-10.56-6.85,0-9.68,5.66-10.21,10.56Zm38.42-33.2h7v55.83h-7ZM885,459.89a29.19,29.19,0,0,1-12,2.44c-13.48,0-19.65-8.18-19.65-20.54,0-11.23,7.07-19.2,17.79-19.2,12.66,0,16.75,9.24,16.75,21.43h-27.1a12.44,12.44,0,0,0,12.51,12.67,22.45,22.45,0,0,0,11.68-3.8Zm-4.52-21.07c0-5.8-3.43-10.56-9.46-10.56-6.85,0-9.67,5.66-10.19,10.56ZM899,426.16a24.29,24.29,0,0,1,12.5-3.57c10.87,0,15.26,5.36,15.26,15.71V454a65,65,0,0,0,.29,7.44h-6.55v-4.91h-.14a14.1,14.1,0,0,1-11.77,5.79c-8.18,0-13.91-3.56-13.91-11.83,0-9.52,10.42-12.51,17.64-12.51,2.74,0,4.69,0,7.44.15,0-6.55-2.39-9.89-9.38-9.89a17.88,17.88,0,0,0-11,3.86l-.36-5.95Zm20.77,17.19c-1.49,0-3-.15-4.46-.15-3.8,0-13.18.6-13.18,7.29,0,4,3.87,6.19,7.07,6.19,6.93,0,10.57-4.33,10.57-10v-3.34Zm45.71,12.74h-.14c-1.87,2.83-6.19,6.24-13,6.24-11.47,0-16.3-10.19-16.3-20.54s5.35-19.2,16.38-19.2c6.62,0,10.41,2.61,12.58,6.11h.14V405.63h7v55.83h-6.7Zm-11.47.59c7.89,0,11.17-7.84,11.17-14.15,0-7.08-3.64-14.29-11.24-14.29s-10.58,7.13-10.42,14.05C943.39,448.27,946.52,456.68,954,456.68Zm30.52-49.59h7.89V415h-7.89Zm.45,16.39h7v38h-7Zm19.8,0h6.77v6h.14c2.09-4.32,7.15-6.93,12.42-6.93,9.84,0,14.23,6.11,14.23,16.31v22.55h-7V441.79c0-8.86-1.95-13.18-8.06-13.54-7.95,0-11.53,6.39-11.53,15.63v17.56h-7v-38Zm79,36.32c0,11.56-6,18.16-19.57,18.16-4,0-7.53-.52-13.64-2.61l.76-6.45c5.35,2.45,8.56,3.42,13.69,3.42,7.37,0,11.77-5,11.77-13v-3.71h-.16a15.84,15.84,0,0,1-12.74,5.87c-10.86,0-16.22-8.87-16.22-18.69s5.51-20.17,17-20.17c6.7,0,10.42,2.45,12.51,6.55h.15v-5.66h6.48V459.8Zm-7-16.9c0-7.87-3.66-14.65-11.09-14.65-7.07,0-10.57,7.66-10.57,14.14,0,7.14,4,13.39,10.57,13.39S1076.87,450,1076.87,442.9Zm63.7-13a20.18,20.18,0,0,0-7.58-1.63c-7.82,0-12.21,7-12.21,14.23,0,6.75,3.65,14.21,12.66,14.21a14.64,14.64,0,0,0,7.51-2.16l.53,6.25a21.13,21.13,0,0,1-8.78,1.55c-11.46,0-19.35-9-19.35-19.85,0-11.56,7.74-19.89,19.35-19.89a26,26,0,0,1,8.48,1.5l-.61,5.79Zm10.74-3.72a24.31,24.31,0,0,1,12.49-3.57c10.87,0,15.27,5.36,15.27,15.71V454a57.33,57.33,0,0,0,.3,7.44h-6.55v-4.91h-.16a14,14,0,0,1-11.76,5.79c-8.19,0-13.92-3.56-13.92-11.83,0-9.52,10.43-12.51,17.64-12.51,2.75,0,4.68,0,7.44.15,0-6.55-2.38-9.89-9.37-9.89a17.91,17.91,0,0,0-11,3.86l-.35-5.95Zm20.77,17.19c-1.49,0-3-.15-4.48-.15-3.8,0-13.17.6-13.17,7.29,0,4,3.86,6.19,7.06,6.19,6.93,0,10.57-4.33,10.57-10v-3.34Zm18.83-19.87h6.55v5.88h.14c1.87-3.94,5.89-6.77,9.91-6.77a19.63,19.63,0,0,1,4.62.52v6.25a10.71,10.71,0,0,0-3.88-.67c-6.25,0-10.35,5.95-10.35,15.47v17.28h-7ZM1237.72,454a18.69,18.69,0,0,0,8.71,2.69c3.21,0,7.15-1.35,7.15-5.44,0-6.92-16.45-6.33-16.45-17,0-7.89,5.88-11.69,13.4-11.69a29.44,29.44,0,0,1,8.7,1.49l-.58,6.1a20.7,20.7,0,0,0-7.38-1.92c-3.57,0-6.7,1.48-6.7,4.6,0,7.75,16.45,5.51,16.45,17.64,0,8.11-6.48,11.83-13.25,11.83-3.57,0-7.23-.36-10.43-2.08l.38-6.25Zm55.91-24.11a20.28,20.28,0,0,0-7.6-1.63c-7.81,0-12.2,7-12.2,14.23,0,6.75,3.64,14.21,12.67,14.21a14.73,14.73,0,0,0,7.52-2.16l.51,6.25a21.25,21.25,0,0,1-8.8,1.55c-11.45,0-19.35-9-19.35-19.85,0-11.56,7.76-19.89,19.35-19.89a26.29,26.29,0,0,1,8.51,1.5l-.61,5.79Zm8.92-24.26h7v23.29h.16c2.5-4,6.91-6.32,12.17-6.32,9.84,0,14.25,6.11,14.25,16.31v22.55h-7V441.79c0-8.86-1.94-13.18-8.05-13.54-7.95,0-11.53,6.39-11.53,15.63v17.56h-7Zm74.61,54.27a29.25,29.25,0,0,1-12,2.44c-13.47,0-19.66-8.18-19.66-20.54,0-11.23,7.07-19.2,17.78-19.2,12.67,0,16.77,9.24,16.77,21.43H1353a12.43,12.43,0,0,0,12.49,12.67,22.47,22.47,0,0,0,11.7-3.8v7Zm-4.54-21.07c0-5.8-3.45-10.56-9.47-10.56-6.84,0-9.68,5.66-10.18,10.56Zm16.74-15.34h6.54V429h.15c2.69-4.4,6.49-6.41,12.06-6.41a11.2,11.2,0,0,1,10.8,7.37,13.52,13.52,0,0,1,11.77-7.37c9.68,0,13.18,6.25,13.18,14.52v24.34h-7V438.82c0-4.68-1.14-10.56-6.78-10.56-7.15,0-10,7-10,14.06v19.14h-7V438.83c0-4.68-1.12-10.56-6.76-10.56-7.15,0-10,7-10,14.06v19.15h-7v-38Zm95.35,36.41a29.19,29.19,0,0,1-12,2.44c-13.48,0-19.66-8.18-19.66-20.54,0-11.23,7.07-19.2,17.78-19.2,12.67,0,16.77,9.24,16.77,21.43h-27.11A12.44,12.44,0,0,0,1473,456.69a22.45,22.45,0,0,0,11.67-3.8v7Zm-4.54-21.07c0-5.8-3.42-10.56-9.45-10.56-6.86,0-9.68,5.66-10.21,10.56Zm42-9.69h-8.93v-5.67h8.93V420c0-9.23,2.39-15.25,12.74-15.25a30.25,30.25,0,0,1,4.68.43l-.3,5.66a11.4,11.4,0,0,0-3.34-.44c-6,0-6.79,3.88-6.79,9v4.09h10v5.67h-10v32.31h-7v-32.3Zm41.25-6.54c11.55,0,19.27,8.34,19.27,19.89,0,10.85-7.87,19.85-19.27,19.85s-19.35-9-19.35-19.85C1544.12,430.92,1551.86,422.59,1563.47,422.59Zm0,34.09c8.18,0,11.82-7.45,11.82-14.22,0-7.23-4.38-14.22-11.82-14.22s-11.91,7-11.91,14.22C1551.56,449.23,1555.2,456.68,1563.47,456.68Zm28.67-33.2h6.54v5.88h.15c1.86-3.94,5.88-6.77,9.91-6.77a19.61,19.61,0,0,1,4.61.52v6.25a10.71,10.71,0,0,0-3.88-.67c-6.25,0-10.34,5.95-10.34,15.47v17.28h-7Zm76.5,32.61h-.16c-1.85,2.83-6.16,6.24-12.94,6.24-11.45,0-16.32-10.19-16.32-20.54s5.37-19.2,16.4-19.2c6.61,0,10.41,2.61,12.59,6.11h.13V405.63h7v55.83h-6.72v-5.37Zm-11.45.59c7.87,0,11.14-7.84,11.14-14.15,0-7.08-3.65-14.29-11.22-14.29s-10.56,7.13-10.44,14.05C1646.55,448.27,1649.66,456.68,1657.19,456.68Zm30.53-49.59h7.87V415h-7.87Zm.42,16.39h7v38h-7Zm17,30.51a18.76,18.76,0,0,0,8.72,2.69c3.19,0,7.14-1.35,7.14-5.44,0-6.92-16.44-6.33-16.44-17,0-7.89,5.87-11.69,13.4-11.69a29.63,29.63,0,0,1,8.71,1.49l-.61,6.1a20.55,20.55,0,0,0-7.36-1.92c-3.57,0-6.72,1.48-6.72,4.6,0,7.75,16.47,5.51,16.47,17.64,0,8.11-6.49,11.83-13.24,11.83-3.57,0-7.23-.36-10.44-2.08l.37-6.25Zm33.57-27.83a24.35,24.35,0,0,1,12.51-3.57c10.87,0,15.26,5.36,15.26,15.71V454a62.56,62.56,0,0,0,.29,7.44h-6.53v-4.91h-.16a14.1,14.1,0,0,1-11.75,5.79c-8.21,0-13.93-3.56-13.93-11.83,0-9.52,10.42-12.51,17.65-12.51,2.74,0,4.69,0,7.42.15,0-6.55-2.38-9.89-9.38-9.89a17.88,17.88,0,0,0-11,3.86l-.36-5.95Zm20.76,17.19c-1.46,0-3-.15-4.46-.15-3.8,0-13.18.6-13.18,7.29,0,4,3.88,6.19,7.07,6.19,6.91,0,10.56-4.33,10.56-10v-3.34Zm18.85-37.73h7v23.07h.15c2.16-3.5,6-6.11,12.57-6.11,11,0,16.4,9,16.4,19.2,0,10.42-4.84,20.54-16.32,20.54-6.76,0-11.08-3.42-12.94-6.24H1785v5.36h-6.69Zm18.25,22.63c-7.6,0-11.25,7.21-11.25,14.29,0,6.32,3.27,14.15,11.17,14.15,7.49,0,10.63-8.4,10.49-14.37C1807.1,435.46,1804.15,428.25,1796.55,428.25Zm28.11-22.63h7v55.83h-7Zm48.91,54.27a29.19,29.19,0,0,1-12,2.44c-13.48,0-19.66-8.18-19.66-20.54,0-11.23,7.07-19.2,17.8-19.2,12.65,0,16.75,9.24,16.75,21.43h-27.11a12.44,12.44,0,0,0,12.52,12.67,22.45,22.45,0,0,0,11.67-3.8v7ZM1869,438.82c0-5.8-3.42-10.56-9.45-10.56-6.86,0-9.68,5.66-10.21,10.56Zm43.71,17.27h-.15c-1.86,2.83-6.19,6.24-12.95,6.24-11.48,0-16.31-10.19-16.31-20.54s5.37-19.2,16.39-19.2c6.62,0,10.42,2.61,12.57,6.11h.15V405.63h7v55.83h-6.69Zm-11.48.59c7.9,0,11.17-7.84,11.17-14.15,0-7.08-3.64-14.29-11.24-14.29s-10.56,7.13-10.42,14.05C1890.62,448.27,1893.74,456.68,1901.26,456.68Zm50.77-33.2h6.72v5.36h.15c1.86-2.84,6.19-6.25,12.87-6.25,11,0,16.39,9,16.39,19.2,0,10.43-4.84,20.54-16.31,20.54-6.72,0-10.5-2.59-12.68-6.11H1959v20.85h-7V423.48Zm18.23,4.77c-7.57,0-11.22,7.21-11.22,14.29,0,6.32,3.27,14.15,11.14,14.15,7.53,0,10.67-8.4,10.52-14.37C1980.86,435.46,1977.86,428.25,1970.26,428.25Zm56.37,31.64a29.36,29.36,0,0,1-12,2.44c-13.48,0-19.67-8.18-19.67-20.54,0-11.23,7.07-19.2,17.78-19.2,12.68,0,16.77,9.24,16.77,21.43h-27.1a12.43,12.43,0,0,0,12.51,12.67,22.49,22.49,0,0,0,11.68-3.8v7Zm-4.54-21.07c0-5.8-3.45-10.56-9.46-10.56-6.86,0-9.7,5.66-10.2,10.56Zm33.64-16.23c11.53,0,19.28,8.34,19.28,19.89,0,10.85-7.9,19.85-19.28,19.85s-19.35-9-19.35-19.85C2036.38,430.92,2044.1,422.59,2055.73,422.59Zm0,34.09c8.19,0,11.83-7.45,11.83-14.22,0-7.23-4.38-14.22-11.83-14.22s-11.9,7-11.9,14.22C2043.83,449.23,2047.47,456.68,2055.73,456.68Zm28.65-33.2h6.72v5.36h.13c1.88-2.84,6.19-6.25,12.89-6.25,11,0,16.37,9,16.37,19.2,0,10.43-4.84,20.54-16.29,20.54-6.72,0-10.52-2.59-12.67-6.11h-.16v20.85h-7V423.48Zm18.24,4.77c-7.6,0-11.25,7.21-11.25,14.29,0,6.32,3.3,14.15,11.17,14.15,7.52,0,10.64-8.4,10.49-14.37C2113.19,435.46,2110.22,428.25,2102.62,428.25Zm28.14-22.63h7v55.83h-7Zm48.93,54.27a29.41,29.41,0,0,1-12,2.44c-13.48,0-19.64-8.18-19.64-20.54,0-11.23,7.07-19.2,17.78-19.2,12.67,0,16.75,9.24,16.75,21.43h-27.09A12.41,12.41,0,0,0,2168,456.69a22.54,22.54,0,0,0,11.7-3.8v7Zm-4.57-21.07c0-5.8-3.42-10.56-9.45-10.56-6.84,0-9.68,5.66-10.19,10.56Z" transform="translate(0 981.1)" style="fill:#222"/><path d="M335.42,225.1S239.15,129.67,228,90.7c-11-38.34,18-42.14,31.62-17.51C271.42,94.59,266.35,110,335.42,225.1Zm-10.55,5.48s-117-68.5-137.51-103.46c-20.19-34.4,6.94-45.29,26.27-24.81C230.41,120.07,229.34,136.29,324.87,230.58ZM316,238.5s-130.36-37.25-158.92-66c-28.11-28.3-4.54-45.59,19.27-30.57C197,155,200,170.94,316,238.5Zm-6.62,9.9S173.87,244.74,139.05,224c-34.27-20.41-15.73-43,11.08-34.39C173.38,197.06,180.25,211.8,309.39,248.4Zm-3.95,11.22s-132.16,30.15-171.06,18.7c-38.27-11.25-25.94-37.77,2.17-36.07C160.94,243.73,171.25,256.28,305.44,259.62Zm-1,11.84s-120.51,62.07-161,60.67c-39.87-1.39-34.52-30.12-6.87-35.47C160.49,292,173.6,301.6,304.41,271.46Zm1.95,11.72S205.06,373.28,165.48,382c-39,8.56-40.93-20.6-15.48-32.66,22.07-10.45,37.15-4.42,156.36-66.16Zm4.8,10.9S235.45,406.54,199.27,424.81c-35.6,18-44.76-9.76-23.11-27.78,18.78-15.62,34.88-13.53,135-102.95Zm7.35,9.35s-45.37,127.75-75.85,154.45c-30,26.27-45.78,1.68-29.31-21.16C227.66,416.91,243.78,414.94,318.51,303.43Zm9.46,7.22s-12.17,135-35.06,168.48c-22.53,32.9-43.94,13-33.64-13.22,8.92-22.75,24.05-28.67,68.7-155.26Zm10.94,4.64s21.79,133.8,7.94,171.91c-13.63,37.48-39.31,23.51-35.86-4.44,3-24.24,16.16-33.75,27.92-167.47Zm11.77,1.78s54.39,124.19,50.44,164.54c-3.88,39.68-32.23,32.56-35.84,4.61C362.14,462,372.54,449.52,350.68,317.07Zm11.82-1.2s83.57,106.75,89.77,146.8c6.11,39.42-23.13,39.56-33.57,13.41C409.65,453.4,416.63,438.72,362.5,315.87Zm11.17-4.1s107.48,82.61,123.46,119.86C512.85,468.3,484.56,475.69,468,453c-14.42-19.74-11.31-35.69-94.28-141.2Zm9.78-6.77s124.65,53.29,149.4,85.42c24.33,31.59-1.21,45.78-23,27.91C491,402.8,490.06,386.58,383.45,305Zm7.81-9s134,20.63,165.93,45.57c31.43,24.56,10.22,44.67-15.29,32.75C519.76,364,514.8,348.52,391.26,296Zm5.33-10.64s134.9-13.35,172.07,2.86c36.54,16,21,40.74-6.68,35.53-24-4.5-32.67-18.26-165.39-38.39Zm2.5-11.62s127.35-46.49,167.36-40c39.38,6.37,30.48,34.23,2.38,36.07-24.37,1.6-36.17-9.57-169.74,3.95Zm-.45-11.9s111.79-76.7,152.16-80.37c39.71-3.62,38,25.56,11.27,34.33-23.23,7.63-37.43-.25-163.43,46Zm-3.4-11.39S484.43,148.4,522.63,134.79c37.56-13.38,43.18,15.31,19.45,30.47-20.59,13.14-36.31,9-146.84,85.22Zm-6.13-10.2s61-121.06,94.61-143.75c33.06-22.3,45.63,4.09,26.42,24.67-16.67,17.87-32.93,17.81-121,119.08Zm-8.47-8.34s29-132.42,55.91-162.75C463,39.36,481.76,61.8,468.27,86.51c-11.72,21.44-27.48,25.42-87.63,145.43Zm-10.28-6S365.51,90.46,384,54.41c18.23-35.47,42-18.41,35,8.88-6,23.7-20.29,31.47-48.71,162.66Zm-11.45-3.23s-38.38-130-29.41-169.56c8.83-38.89,36.07-28.26,36.14-.1.07,24.43-11.82,35.52-6.73,169.66Zm-12-.29S277.42,106,276.28,65.52c-1.13-39.85,27.9-36.34,35-9.08C317.41,80.09,308.64,93.78,346.94,222.43Z" transform="translate(0 981.1)" style="fill:#222"/><path d="M304.47,269.8a47.64,47.64,0,1,0,47.65-47.64,47.64,47.64,0,0,0-47.65,47.64Z" transform="translate(0 981.1)" style="fill:#222"/></svg>