<svg id="Layer_1" data-name="Layer 1" xmlns="http://www.w3.org/2000/svg" viewBox="0 0 181 82.55"><title>sunlife</title><path d="M111.74,69.77c0-2.1,1.24-4,3.55-4,2.52,0,3.54,2,3.59,4Zm4.91,12.78A14,14,0,0,0,124,80.63l-1.67-3.94a9.87,9.87,0,0,1-5.17,1.37c-3.08,0-5.26-1.58-5.35-4.4h12.87V72.33c0-6.8-3.42-10.95-9.32-10.95-6.07,0-9.36,4.66-9.36,10.78,0,5.3,3,10.39,10.64,10.39m-21.2-.43h5.78V66.39h4l1.34-4.47h-5.34V59.33c0-1.58.77-2.48,2.3-2.48a7.1,7.1,0,0,1,2.61.56l1.12-4.58a11.17,11.17,0,0,0-4.62-1c-4.54,0-7.19,2.82-7.19,7.48v2.61H92.28v4.49h3.16ZM87.36,59.07a3.41,3.41,0,0,0,3.46-3.36v-.06a3.31,3.31,0,0,0-3.29-3.33h-.17A3.38,3.38,0,0,0,87,59.07h.37M84.45,82.12h5.78V61.92H84.45Zm-17.63,0h15.7V77.38H72.68V53.92H66.82ZM44,82.12h5.8V68.18a7.6,7.6,0,0,1,4.54-1.79c2.48,0,2.9,1.92,2.9,4.19V82.12H63V68.82c0-6-3.38-7.44-6.63-7.44a10.88,10.88,0,0,0-6.84,2.7L49,61.92H44Zm-15.21.43a8.87,8.87,0,0,0,6.12-2.44l.85,2h4.92a16.82,16.82,0,0,1-.38-4.36V61.92H34.55V76.18A5,5,0,0,1,31,77.63,3,3,0,0,1,28,76a5.3,5.3,0,0,1-.43-2.36V61.92H21.81V74.08a12.26,12.26,0,0,0,.68,4.45,6.63,6.63,0,0,0,6.33,4M0,80a15.38,15.38,0,0,0,8.85,2.56c5.9,0,10.39-3.16,10.39-8.29,0-9-12.06-8.3-12.06-13.09,0-2,1.59-2.61,3.38-2.61a15.69,15.69,0,0,1,7,1.84V55.14a16.45,16.45,0,0,0-7.14-1.5c-6.07,0-9.45,3.81-9.45,8C1,70.28,13,69.64,13,74.73c0,2.14-2.18,2.91-4.36,2.91a11.46,11.46,0,0,1-6.42-2.1Z" style="fill:#222"/><path d="M146.4,40.56a18.7,18.7,0,1,0-26.31,2.71,18.7,18.7,0,0,0,26.31-2.71Z" style="fill:#222"/><path d="M88.37,0h-.46a14.25,14.25,0,1,0,.46,0Z" style="fill:#222"/><path d="M53.7,13.65a10.52,10.52,0,1,0,8.83,4.8A10.52,10.52,0,0,0,53.7,13.65Z" style="fill:#222"/><path d="M35.49,37.08A7.89,7.89,0,1,0,37.9,48h0A8,8,0,0,0,35.49,37.08Z" style="fill:#222"/><path d="M156.08,53.74h-.38A24.92,24.92,0,0,0,131.14,79v0a23,23,0,0,0,.24,3.1h49.38a24.43,24.43,0,0,0,.24-3.82A24.93,24.93,0,0,0,156.08,53.74Z" style="fill:#222"/></svg>