<svg id="Layer_1" data-name="Layer 1" xmlns="http://www.w3.org/2000/svg" viewBox="0 0 182.5 91.25"><title>uwe</title><rect width="182.5" height="91.25" style="fill:#222"/><rect x="107.05" y="32.93" width="0.89" height="45.94" style="fill:#fff"/><g id="_Group_" data-name=" Group "><path id="_Path_" data-name=" Path " d="M11.37,45.49V32.93h6.06v12.3c0,3,.74,4.43,3.31,4.43s3.31-1.36,3.31-4.51V32.93h6.11V45.39c0,6.14-3.6,9-9.43,9s-9.36-3-9.36-8.92" style="fill:#fff"/></g><polygon id="_Path_2" data-name=" Path 2" points="31.08 32.93 37.2 32.93 39.92 46.11 42.76 32.93 48.13 32.93 51.21 46.23 54.07 32.93 59.69 32.93 54.75 54.06 48.43 54.06 45.18 40.64 41.9 54.06 35.99 54.06 31.08 32.93" style="fill:#fff"/><g id="_Group_2" data-name=" Group 2"><path id="_Compound_Path_" data-name=" Compound Path " d="M20.23,74.82c1.93,0,2.81-.89,2.81-2.46v-.12c0-1.61-.86-2.42-3-2.42H17.72v5Zm-.2-8.7c1.89,0,2.6-.64,2.6-2.15v-.12c0-1.45-.77-2.1-2.6-2.1H17.72v4.37Zm-8.22-8.37h9.44c5,0,7.12,2.26,7.12,5.53v.12A4.34,4.34,0,0,1,24.79,68,4.59,4.59,0,0,1,29,72.86V73c0,3.79-2.45,5.89-7.68,5.89H11.81Z" style="fill:#fff"/><path id="_Path_3" data-name=" Path 3" d="M30.63,63.41h5.29v3.07a4.87,4.87,0,0,1,5-3.28v4.94c-3.22-.09-5,.92-5,3.4v7.33H30.63Z" style="fill:#fff"/><path id="_Compound_Path_2" data-name=" Compound Path 2" d="M42.53,63.41h5.29V78.87H42.53Zm-.26-4.18A2.75,2.75,0,0,1,45,56.48h.12A2.74,2.74,0,0,1,45.49,62h-.33a2.75,2.75,0,0,1-2.89-2.59v-.13" style="fill:#fff"/><path id="_Path_4" data-name=" Path 4" d="M49.53,74H54.4c.18,1.12.68,1.74,2.19,1.74,1.29,0,1.89-.5,1.89-1.28s-.74-1.1-2.87-1.39c-4.13-.54-5.88-1.75-5.88-5,0-3.43,3.05-5.08,6.62-5.08,3.81,0,6.47,1.29,6.83,5H58.39a1.72,1.72,0,0,0-1.88-1.55l-.12,0c-1.15,0-1.74.5-1.74,1.21s.71,1,2.6,1.27c4.29.53,6.36,1.65,6.36,5,0,3.66-2.72,5.31-7,5.31s-7-1.83-7.08-5.26" style="fill:#fff"/><path id="_Path_5" data-name=" Path 5" d="M66.07,73.9V67H64.21V63.41h1.86V60.19h5.29v3.22h3V67h-3v6.37A1.4,1.4,0,0,0,72.52,75a1.13,1.13,0,0,0,.41,0,4.1,4.1,0,0,0,1.51-.25v4a11.61,11.61,0,0,1-2.93.44c-3.49,0-5.44-1.68-5.44-5.32" style="fill:#fff"/><path id="_Compound_Path_3" data-name=" Compound Path 3" d="M86.84,71.24V71c0-2.6-1-4-3-4s-3.08,1.4-3.08,4v.23c0,2.66,1,4.11,3.08,4.11s3-1.48,3-4m-11.53.09v-.24c0-5,3.7-8.1,8.49-8.1s8.42,3.05,8.42,8v.23c0,5-3.69,8-8.45,8s-8.44-2.91-8.44-7.9" style="fill:#fff"/></g><rect id="_Path_6" data-name=" Path 6" x="94.01" y="57.73" width="5.26" height="21.13" style="fill:#fff"/><polygon id="_Path_7" data-name=" Path 7" points="66.62 49.39 66.62 45.55 72.07 45.55 73.45 45.55 73.45 41.23 72.07 41.23 66.62 41.23 66.62 37.6 75.19 37.6 75.19 32.93 60.59 32.93 60.59 54.06 75.67 54.06 75.67 49.39 66.62 49.39" style="fill:#fff"/><g id="_Group_3" data-name=" Group 3"><path id="_Path_8" data-name=" Path 8" d="M115.65,38.17V32.93h2v5.12c0,1.43.42,2.06,1.61,2.06s1.66-.56,1.66-2.13V33h2v5.17c0,2.35-1.31,3.56-3.63,3.56s-3.54-1.2-3.54-3.49" style="fill:#fff"/><path id="_Path_9" data-name=" Path 9" d="M124.16,35.24h1.74v1a2.19,2.19,0,0,1,2-1.14c1.24,0,2.12.75,2.12,2.43v4h-1.75V37.75c0-.85-.34-1.26-1.1-1.26a1.24,1.24,0,0,0-1.33,1.15,1.93,1.93,0,0,0,0,.24V41.5h-1.74Z" style="fill:#fff"/><path id="_Compound_Path_4" data-name=" Compound Path 4" d="M131.37,35.24h1.73v6.28h-1.73Zm-.14-1.81a1,1,0,1,1,1,1h0a1,1,0,0,1-1-1h0" style="fill:#fff"/></g><polygon id="_Path_10" data-name=" Path 10" points="133.86 35.24 135.72 35.24 137.23 39.74 138.72 35.24 140.4 35.24 138.12 41.53 136.16 41.53 133.86 35.24" style="fill:#fff"/><g id="_Group_4" data-name=" Group 4"><path id="_Compound_Path_5" data-name=" Compound Path 5" d="M145,37.75c-.06-1-.54-1.41-1.37-1.41s-1.31.52-1.44,1.41Zm-4.6.76v-.1a3.11,3.11,0,0,1,2.94-3.27h.33a2.9,2.9,0,0,1,3.08,2.71,2.68,2.68,0,0,1,0,.49v.41H142.2a1.5,1.5,0,0,0,1.36,1.64h.21c.8,0,1.2-.34,1.31-.88h1.65c-.21,1.37-1.29,2.12-3,2.12a3,3,0,0,1-3.27-2.7,2.79,2.79,0,0,1,0-.5" style="fill:#fff"/><path id="_Path_11" data-name=" Path 11" d="M147.62,35.24h1.75v1.2a2.06,2.06,0,0,1,2-1.29v1.6c-1.29,0-2,.41-2,1.61v3.15h-1.75Z" style="fill:#fff"/><path id="_Path_12" data-name=" Path 12" d="M151.72,39.55h1.61c.07.57.35.9,1.11.9s1-.26,1-.69-.37-.62-1.29-.75c-1.67-.25-2.32-.73-2.32-2a2.23,2.23,0,0,1,2.49-2c1.28,0,2.44.51,2.6,1.93h-1.61c-.09-.51-.38-.75-1-.75s-.88.26-.88.64.29.55,1.21.69c1.58.22,2.44.64,2.44,2s-1,2.07-2.64,2.07-2.69-.75-2.75-2.11" style="fill:#fff"/><path id="_Compound_Path_6" data-name=" Compound Path 6" d="M158,35.24h1.73v6.28H158Zm-.13-1.81a1,1,0,1,1,1,.94h0a1,1,0,0,1-1-.95h0" style="fill:#fff"/><path id="_Path_13" data-name=" Path 13" d="M161.38,39.66V36.47h-.81V35.24h.81V33.88h1.73v1.36h1.32v1.23h-1.32v3a.66.66,0,0,0,.55.74h.15a1.49,1.49,0,0,0,.66-.12v1.35a3.18,3.18,0,0,1-1.06.17,1.8,1.8,0,0,1-2-1.57,1.55,1.55,0,0,1,0-.43" style="fill:#fff"/></g><polygon id="_Path_14" data-name=" Path 14" points="167.31 40.89 164.81 35.24 166.69 35.24 168.21 39.02 169.62 35.24 171.29 35.24 167.89 43.67 166.21 43.67 167.31 40.89" style="fill:#fff"/><g id="_Group_5" data-name=" Group 5"><path id="_Compound_Path_7" data-name=" Compound Path 7" d="M120,50.9v-.08c0-1.2-.56-1.93-1.54-1.93s-1.46.69-1.46,1.86v.09c0,1.21.56,1.94,1.54,1.94s1.54-.73,1.54-1.94m-4.86,0v-.1a3.32,3.32,0,0,1,6.63,0v.1a3.32,3.32,0,0,1-6.63,0" style="fill:#fff"/><path id="_Path_15" data-name=" Path 15" d="M123,49h-.83v-1.2H123V47a2,2,0,0,1,1.66-2.29,2.15,2.15,0,0,1,.62,0,3.42,3.42,0,0,1,.9.12v1.32a1.72,1.72,0,0,0-.64-.11.74.74,0,0,0-.79.66v1h1.37V49h-1.37v5H123Z" style="fill:#fff"/><path id="_Path_16" data-name=" Path 16" d="M129.66,52.15V49h-.81V47.75h.81v-1.4h1.73v1.4h1.32V49h-1.32v3c0,.51.25.75.7.75a1.84,1.84,0,0,0,.66-.12v1.35a3.17,3.17,0,0,1-1.06.16,1.79,1.79,0,0,1-2-1.55,1.7,1.7,0,0,1,0-.45" style="fill:#fff"/><path id="_Path_17" data-name=" Path 17" d="M133.69,44.86h1.74v3.89a2.19,2.19,0,0,1,2-1.14c1.24,0,2.12.75,2.12,2.43v4H137.8V50.25c0-.85-.34-1.26-1.11-1.26a1.23,1.23,0,0,0-1.32,1.14,1.93,1.93,0,0,0,0,.24V54h-1.74Z" style="fill:#fff"/><path id="_Compound_Path_8" data-name=" Compound Path 8" d="M145.07,50.18c-.06-1-.54-1.41-1.37-1.41a1.46,1.46,0,0,0-1.45,1.41Zm-4.61.76v-.08a3.13,3.13,0,0,1,3-3.27h0a1.22,1.22,0,0,1,.27,0,2.9,2.9,0,0,1,3.05,2.74,3,3,0,0,1,0,.42v.49h-4.54a1.5,1.5,0,0,0,1.36,1.64h.21c.8,0,1.2-.35,1.31-.88h1.65c-.21,1.36-1.29,2.12-3,2.12a3,3,0,0,1-3.28-2.82,2.38,2.38,0,0,1,0-.38" style="fill:#fff"/></g><polygon id="_Path_18" data-name=" Path 18" points="115.05 57.78 117.02 57.78 118.37 63.73 119.84 57.78 121.5 57.78 123.03 63.76 124.42 57.78 126.23 57.78 124.13 66.38 122.15 66.38 120.6 60.44 119.02 66.38 117.14 66.38 115.05 57.78" style="fill:#fff"/><g id="_Group_6" data-name=" Group 6"><path id="_Compound_Path_9" data-name=" Compound Path 9" d="M130.51,62.56c-.06-1-.54-1.41-1.37-1.41s-1.31.52-1.45,1.41Zm-4.61.75v-.09a3.13,3.13,0,0,1,3-3.27h0a1.13,1.13,0,0,1,.26,0,2.92,2.92,0,0,1,3.08,2.73,2.46,2.46,0,0,1,0,.47v.48h-4.54A1.51,1.51,0,0,0,129,65.27h.22c.8,0,1.2-.34,1.31-.87h1.65c-.21,1.36-1.29,2.11-3,2.11a3,3,0,0,1-3.28-2.82,2.38,2.38,0,0,1,0-.38" style="fill:#fff"/><path id="_Path_19" data-name=" Path 19" d="M132.71,64.41h1.63c.07.56.35.89,1.1.89s1-.25,1-.69-.37-.61-1.29-.74c-1.67-.25-2.32-.74-2.32-2a2.23,2.23,0,0,1,2.49-2c1.29,0,2.44.5,2.6,1.94H136.3c-.1-.51-.38-.75-1-.75s-.89.26-.89.64.31.56,1.22.69c1.57.23,2.44.62,2.44,2s-1,2.07-2.65,2.07-2.68-.75-2.74-2.11" style="fill:#fff"/><path id="_Path_20" data-name=" Path 20" d="M139.24,64.52V61.33h-.82V60.09h.81V58.75H141v1.36h1.32v1.24H141v3c0,.51.26.75.7.75a1.84,1.84,0,0,0,.66-.12v1.34a3,3,0,0,1-1.06.17,1.79,1.79,0,0,1-2-1.55,1.7,1.7,0,0,1,0-.45" style="fill:#fff"/><path id="_Compound_Path_10" data-name=" Compound Path 10" d="M149.86,63.28v-.09c0-1.2-.56-1.93-1.54-1.93s-1.54.7-1.54,1.9v.1c0,1.2.56,1.93,1.54,1.93s1.54-.72,1.54-1.91m-4.86,0v-.09a3.16,3.16,0,0,1,3.05-3.26h.27a3.12,3.12,0,0,1,3.31,2.92v.39a3.32,3.32,0,0,1-6.63,0" style="fill:#fff"/><path id="_Path_21" data-name=" Path 21" d="M152.85,61.33H152V60.09h.83v-.72a2,2,0,0,1,1.77-2.21,2.57,2.57,0,0,1,.48,0,2.75,2.75,0,0,1,.9.12v1.29a2,2,0,0,0-.64-.1.74.74,0,0,0-.79.66v.94H156v1.24h-1.37v5.05H152.9Z" style="fill:#fff"/></g><polygon id="_Path_22" data-name=" Path 22" points="115.72 70.26 121.33 70.26 121.33 71.78 117.66 71.78 117.66 73.79 120.6 73.79 120.6 75.21 117.66 75.21 117.66 77.35 121.52 77.35 121.52 78.86 115.72 78.86 115.72 70.26" style="fill:#fff"/><g id="_Group_7" data-name=" Group 7"><path id="_Path_23" data-name=" Path 23" d="M122.49,72.57h1.74v1a2.18,2.18,0,0,1,2-1.15c1.23,0,2.11.75,2.11,2.43v4H126.6V75.11c0-.86-.34-1.27-1.11-1.27A1.25,1.25,0,0,0,124.17,75a1.77,1.77,0,0,0,0,.23v3.64h-1.74Z" style="fill:#fff"/><path id="_Compound_Path_11" data-name=" Compound Path 11" d="M134.07,75.55v-.08c0-1.07-.56-1.72-1.51-1.72A1.52,1.52,0,0,0,131,75.21a1.22,1.22,0,0,0,0,.27v.1a1.51,1.51,0,0,0,1.3,1.68h.18A1.56,1.56,0,0,0,134,75.71a.86.86,0,0,0,0-.16M129.27,79H131c.11.56.51.92,1.4.92A1.39,1.39,0,0,0,134,78.73a1.45,1.45,0,0,0,0-.36v-1a2.32,2.32,0,0,1-2,1.17,2.77,2.77,0,0,1-2.75-2.77,1.77,1.77,0,0,1,0-.23v-.08a2.84,2.84,0,0,1,2.62-3H132a2.09,2.09,0,0,1,2,1.09v-.94h1.74v5.79c0,1.86-1.25,2.81-3.32,2.81s-3-.89-3.13-2.19" style="fill:#fff"/></g><rect id="_Path_24" data-name=" Path 24" x="137.11" y="69.72" width="1.73" height="9.14" style="fill:#fff"/><g id="_Group_8" data-name=" Group 8"><path id="_Compound_Path_12" data-name=" Compound Path 12" d="M143.76,76.66v-.53h-.67c-1,0-1.61.22-1.61.89,0,.46.27.76.91.76a1.27,1.27,0,0,0,1.36-1.12m-4,.46c0-1.47,1.35-2,3.27-2h.71v-.26c0-.74-.23-1.15-1-1.15a.94.94,0,0,0-1.06.8.28.28,0,0,0,0,.09H140c.11-1.49,1.29-2.16,2.83-2.16s2.63.63,2.63,2.34v4.11H143.8v-.76a2.19,2.19,0,0,1-1.91.89,1.84,1.84,0,0,1-2.08-1.58,1.51,1.51,0,0,1,0-.3" style="fill:#fff"/><path id="_Path_25" data-name=" Path 25" d="M146.73,72.57h1.75v1a2.17,2.17,0,0,1,2-1.15c1.24,0,2.12.75,2.12,2.43v4h-1.75V75.11c0-.86-.33-1.27-1.1-1.27A1.25,1.25,0,0,0,148.43,75a1.77,1.77,0,0,0,0,.23v3.64h-1.75Z" style="fill:#fff"/><path id="_Compound_Path_13" data-name=" Compound Path 13" d="M158.32,75.75v-.1c0-1.26-.56-1.89-1.51-1.89s-1.51.66-1.51,1.91v.08c0,1.25.6,1.86,1.47,1.86s1.55-.61,1.55-1.89m-4.8.06v0c0-2.07,1.19-3.29,2.77-3.29a2.09,2.09,0,0,1,2,1.09v-3.8H160V78.9h-1.73V77.82a2.33,2.33,0,0,1-2,1.18c-1.53,0-2.73-1.1-2.73-3.19" style="fill:#fff"/></g></svg>