<svg id="outlined" xmlns="http://www.w3.org/2000/svg" viewBox="0 0 451.97 66.14"><title>willisowen</title><polygon points="47.76 58.46 35.4 21.37 30.63 21.37 18.53 58.45 5.74 20.89 5.72 20.83 0 20.83 15.68 64.65 15.7 64.71 20.83 64.71 32.92 27.72 45.27 64.65 45.28 64.71 50.41 64.71 66.25 20.95 66.29 20.83 60.84 20.83 47.76 58.46" style="fill:#222"/><rect x="78.15" y="20.83" width="5.36" height="43.88" style="fill:#222"/><rect x="101.39" width="5.36" height="64.71" style="fill:#222"/><rect x="124.62" width="5.35" height="64.71" style="fill:#222"/><rect x="147.86" y="20.83" width="5.35" height="43.88" style="fill:#222"/><path d="M239.25,89.09c-2.33-2.06-6.4-3.91-12.1-5.52-3.73-1.06-6.38-2.26-7.88-3.56A6.44,6.44,0,0,1,217,74.9a5.93,5.93,0,0,1,2.65-5.12c1.76-1.23,4.3-1.86,7.54-1.86a24.18,24.18,0,0,1,6.59.94,22.68,22.68,0,0,1,6,2.62l.11.07.83-4.68v-.06l-.05,0a23.79,23.79,0,0,0-6.32-2.56,28.37,28.37,0,0,0-7-.94c-4.7,0-8.49,1.1-11.27,3.28a11.41,11.41,0,0,0-1.17,16.57c2,2,5.4,3.77,10.09,5.25a73.37,73.37,0,0,1,7.63,2.82,9.91,9.91,0,0,1,3.73,2.61,6.17,6.17,0,0,1,1.1,3.88,6.39,6.39,0,0,1-3.14,5.64c-2.09,1.36-5,2-8.58,2a24.44,24.44,0,0,1-7.3-1.21,23.21,23.21,0,0,1-6.68-3.25l-.11-.08-.74,4.88v0l0,0a20.25,20.25,0,0,0,6.55,3,29.83,29.83,0,0,0,8.24,1.17c5.18,0,9.36-1.15,12.43-3.42a10.87,10.87,0,0,0,4.64-9.18A10.6,10.6,0,0,0,239.25,89.09Z" transform="translate(-43.88 -43.88)" style="fill:#222"/><path d="M317.59,66.18a22.64,22.64,0,0,0-11.39-2.92,21.68,21.68,0,0,0-11.76,3.28,22.92,22.92,0,0,0-8.07,8.56,24.08,24.08,0,0,0-2.87,11.57,23.83,23.83,0,0,0,3.1,12.16,22,22,0,0,0,8.2,8.25A22.71,22.71,0,0,0,306.2,110,21.64,21.64,0,0,0,318,106.72,23,23,0,0,0,326,98.16a25.08,25.08,0,0,0-.23-23.73A22,22,0,0,0,317.59,66.18Zm5.77,20.41a20.4,20.4,0,0,1-2.31,9.79,16.42,16.42,0,0,1-6.23,6.53,16.87,16.87,0,0,1-8.62,2.27A16.33,16.33,0,0,1,291.13,96,20.66,20.66,0,0,1,289,86.67a20.29,20.29,0,0,1,2.31-9.79,16.4,16.4,0,0,1,6.22-6.53,16.94,16.94,0,0,1,8.63-2.27,16.33,16.33,0,0,1,15.07,9.16A20.69,20.69,0,0,1,323.36,86.59Z" transform="translate(-43.88 -43.88)" style="fill:#222"/><polygon points="338.2 58.44 325.84 21.35 321.07 21.35 308.97 58.44 296.19 20.87 296.17 20.81 290.44 20.81 306.13 64.64 306.15 64.69 311.27 64.69 323.37 27.7 335.71 64.63 335.73 64.69 340.85 64.69 356.69 20.93 356.73 20.81 351.28 20.81 338.2 58.44" style="fill:#222"/><path d="M437.44,65.87a19.25,19.25,0,0,0-10-2.61,20.29,20.29,0,0,0-11.22,3.19A21.1,21.1,0,0,0,408.68,75,26.44,26.44,0,0,0,406,86.85c0,7,2.21,12.63,6.55,16.82S422.78,110,430,110a37.69,37.69,0,0,0,8.82-1,23.24,23.24,0,0,0,7.05-2.83l0,0-.74-4.64-.11.06a30.16,30.16,0,0,1-14.79,3.65c-5.67,0-10.24-1.54-13.57-4.58s-5.13-7.2-5.38-12.41h35.29v-.07a30.16,30.16,0,0,0,.27-3.68,24,24,0,0,0-2.51-11.17A18.33,18.33,0,0,0,437.44,65.87Zm-26,17.68a18.77,18.77,0,0,1,5.19-11.29A14.57,14.57,0,0,1,427.21,68a13.54,13.54,0,0,1,10.39,4.22c2.58,2.78,4,6.6,4.09,11.34Z" transform="translate(-43.88 -43.88)" style="fill:#222"/><path d="M491.54,68.21c-2.87-3.28-7-4.95-12.14-4.95A18.94,18.94,0,0,0,470,65.55a16.26,16.26,0,0,0-6.26,6.32l-.09-7.18h-5v43.88H464V84.71c0-5.08,1.3-9.16,3.87-12.15a13.12,13.12,0,0,1,10.43-4.48c4,0,7.1,1.25,9.12,3.7s3,6.21,3,11.14v25.65h5.36V82.12C495.85,76.17,494.4,71.49,491.54,68.21Z" transform="translate(-43.88 -43.88)" style="fill:#222"/><circle cx="218.95" cy="32.7" r="4.19" style="fill:#222"/><circle cx="218.95" cy="52.45" r="4.19" style="fill:#222"/></svg>