<svg id="Layer_1" data-name="Layer 1" xmlns="http://www.w3.org/2000/svg" viewBox="0 0 944.71 271.72"><title>logo</title><path d="M-500.39,16.82V130.38h222.88V16.82ZM-373.55,39c-3.07,0-5.38.63-6.95,1.9a14.07,14.07,0,0,0-3.95,6.2l-25.1,66.1H-413l-19.2-56.9-21.3,56.9H-457l-20.8-57.4c-1.2-3.2-2.28-5.89-3.25-8a20.69,20.69,0,0,0-3.1-5.15,9.31,9.31,0,0,0-3.75-2.7,14.22,14.22,0,0,0-5.1-.8V35.2h32.6v3.9q-5.1,0-7.15.9a3.44,3.44,0,0,0-2,3.5,13.2,13.2,0,0,0,.4,3c.27,1.13.67,2.46,1.2,4l15.2,46.3,12.3-34.6q1.4-3.9,2.75-7.25c.9-2.24,1.62-4.25,2.15-6.05Q-437,46-438.2,44.1a14.46,14.46,0,0,0-2.3-3,6.82,6.82,0,0,0-2.4-1.55,7.76,7.76,0,0,0-2.65-.45V35.2h30.6v3.9a42.62,42.62,0,0,0-4.7.2,8.86,8.86,0,0,0-2.75.65,2.49,2.49,0,0,0-1.3,1.25,4.74,4.74,0,0,0-.35,1.9,15,15,0,0,0,.55,3.65c.37,1.43.88,3.25,1.55,5.45l13.4,44.9,15.6-43.4q1.4-3.9,2-6.2a16.23,16.23,0,0,0,.6-4c0-1.74-.55-2.92-1.65-3.55s-3.05-1-5.85-1V35.2h24.3Zm78.8,51.05a34,34,0,0,1-8.15,11.75,37.74,37.74,0,0,1-12.55,7.65,45.13,45.13,0,0,1-16,2.75h-39.1v-3.8a39.93,39.93,0,0,0,6.15-.55,7.07,7.07,0,0,0,3.65-1.7,6.4,6.4,0,0,0,1.75-3.4,29.28,29.28,0,0,0,.45-5.75V50.4a36.9,36.9,0,0,0-.35-5.65,6.84,6.84,0,0,0-1.4-3.4,5.35,5.35,0,0,0-3.05-1.7,33.8,33.8,0,0,0-5.2-.65V35.2h35.1a45.21,45.21,0,0,1,16.65,3,39.93,39.93,0,0,1,13.2,8.3,37.43,37.43,0,0,1,8.65,12.6,40.15,40.15,0,0,1,3.1,15.9A38.31,38.31,0,0,1-294.75,90.05Z" transform="translate(501.83 0)" style="fill:#231f20"/><path d="M-312.6,49.4a25.17,25.17,0,0,0-9-6.9,28.76,28.76,0,0,0-12-2.4h-12.7a1.5,1.5,0,0,0-1.7,1.7V95.9q0,11.4,14.9,11.4,13.69,0,21-8.15t7.3-24a50.38,50.38,0,0,0-2-14.8A31.24,31.24,0,0,0-312.6,49.4Z" transform="translate(501.83 0)" style="fill:#231f20"/><path d="M-59.51,18.82V128.38H-278.39V18.82H-59.51m2-2H-280.39V130.38H-57.51V16.82Z" transform="translate(501.83 0)" style="fill:#231f20"/><path d="M0,0V113.56H222.88V0ZM126.84,22.17c-3.07,0-5.38.64-7,1.9a14.19,14.19,0,0,0-4,6.2l-25.1,66.1h-3.5l-19.2-56.9-21.3,56.9h-3.5L22.54,39q-1.8-4.8-3.25-8a21.07,21.07,0,0,0-3.1-5.15,9.51,9.51,0,0,0-3.75-2.7c-1.4-.53-10.88-.8-12.88-.8v-3.9H39.94v3.9q-5.1,0-7.15.9a3.45,3.45,0,0,0-2.05,3.5,13.06,13.06,0,0,0,.4,3c.27,1.14.67,2.47,1.2,4L47.54,80l12.3-34.6c.93-2.6,1.85-5,2.75-7.25s1.62-4.25,2.15-6q-1.39-2.89-2.55-4.8a15,15,0,0,0-2.3-3,7,7,0,0,0-2.4-1.55,7.76,7.76,0,0,0-2.65-.45v-3.9h30.6v3.9a45.26,45.26,0,0,0-4.7.2,9.16,9.16,0,0,0-2.75.65,2.52,2.52,0,0,0-1.3,1.25,4.81,4.81,0,0,0-.35,1.9,15,15,0,0,0,.55,3.65c.37,1.44.88,3.25,1.55,5.45l13.4,44.9,15.6-43.4c.93-2.6,1.6-4.66,2-6.2a16.1,16.1,0,0,0,.6-4c0-1.73-.55-2.91-1.65-3.55s-3-.95-5.85-.95v-3.8h29.3v3.8Zm78.8,51.05A33.85,33.85,0,0,1,197.49,85a37.41,37.41,0,0,1-12.55,7.65,44.91,44.91,0,0,1-16,2.75h-39.1v-3.8A38.71,38.71,0,0,0,136,91a7,7,0,0,0,3.65-1.7,6.33,6.33,0,0,0,1.75-3.4,29.21,29.21,0,0,0,.45-5.75V33.57a37.09,37.09,0,0,0-.35-5.65,6.92,6.92,0,0,0-1.4-3.4,5.41,5.41,0,0,0-3.05-1.7,35.1,35.1,0,0,0-5.2-.65v-3.8h35.1a45.21,45.21,0,0,1,16.65,3,40.09,40.09,0,0,1,13.2,8.3,37.63,37.63,0,0,1,8.65,12.6,40.22,40.22,0,0,1,3.1,15.9A38.24,38.24,0,0,1,205.64,73.22Z" transform="translate(501.83 0)" style="fill:#231f20"/><path d="M187.79,32.57a25.17,25.17,0,0,0-9-6.9,28.76,28.76,0,0,0-12-2.4H154a1.51,1.51,0,0,0-1.7,1.7v54.1q0,11.4,14.9,11.4,13.69,0,21-8.15t7.3-23.95a50.47,50.47,0,0,0-2-14.8A31.33,31.33,0,0,0,187.79,32.57Z" transform="translate(501.83 0)" style="fill:#231f20"/><path d="M438.88,4V109.56H224V4H438.88m4-4H220V113.56H442.88V0Z" transform="translate(501.83 0)" style="fill:#231f20"/><path d="M282.11,62.37a28.23,28.23,0,0,1-.77,6.95,12.21,12.21,0,0,1-2.5,5,10.77,10.77,0,0,1-4.48,3,19.17,19.17,0,0,1-6.65,1,25.61,25.61,0,0,1-6.45-.72,11,11,0,0,1-4.6-2.4,10.12,10.12,0,0,1-2.75-4.38,21.21,21.21,0,0,1-.9-6.65V51c0-2.46-.06-4.36-.17-5.7a5,5,0,0,0-1-3,3,3,0,0,0-1.62-.87,13.28,13.28,0,0,0-2.73-.23v-1.9h17v1.9a15.58,15.58,0,0,0-2.75.2,2.63,2.63,0,0,0-1.65,1,5.61,5.61,0,0,0-.9,2.88c-.13,1.31-.2,3.21-.2,5.67v13.6a17.72,17.72,0,0,0,.53,4.53,8.27,8.27,0,0,0,1.72,3.35,7.38,7.38,0,0,0,3.13,2.07,13.78,13.78,0,0,0,4.72.7q5,0,7.5-2.77t2.5-8.18v-12a49.06,49.06,0,0,0-.35-6.75,5.83,5.83,0,0,0-1.3-3.25,3.28,3.28,0,0,0-1.75-.82,15.78,15.78,0,0,0-2.6-.18v-1.9h14.5v1.9a11.67,11.67,0,0,0-2.62.25,2.75,2.75,0,0,0-1.63,1.1,7.14,7.14,0,0,0-1,3.28,60.22,60.22,0,0,0-.25,6.37Z" transform="translate(501.83 0)" style="fill:#231f20"/><path d="M323.81,72.42A7.66,7.66,0,0,0,330.16,76v1.9H313.11V76a7.64,7.64,0,0,0,3.08-.42,1.31,1.31,0,0,0,.82-1.18,3.65,3.65,0,0,0-.07-.72,4.1,4.1,0,0,0-.35-.93q-.29-.54-.78-1.35t-1.35-2.1l-5.7-8.5-4.3,5.4c-1,1.3-1.9,2.42-2.6,3.35s-1.26,1.74-1.67,2.4a12.11,12.11,0,0,0-.9,1.65,2.86,2.86,0,0,0-.28,1.1,1,1,0,0,0,.85,1,12.42,12.42,0,0,0,3.2.27v1.9h-13.9V76a8.65,8.65,0,0,0,2.18-.25,7,7,0,0,0,1.92-.82,10.74,10.74,0,0,0,1.93-1.55,28.76,28.76,0,0,0,2.12-2.43l9.8-12.5L297,44.57a7.76,7.76,0,0,0-2.8-2.52,8.15,8.15,0,0,0-3.7-.78v-1.9h16.6v1.9c-2.17,0-3.25.65-3.25,1.95a6.49,6.49,0,0,0,1.4,3.3l5.45,8.1,4.9-6.2a17.34,17.34,0,0,0,1.95-2.85,4.64,4.64,0,0,0,.55-2.1,1.8,1.8,0,0,0-.82-1.72,6.32,6.32,0,0,0-2.93-.48v-1.9h13.75v1.9a10.35,10.35,0,0,0-2.07.18,4.44,4.44,0,0,0-1.68.72,10.58,10.58,0,0,0-1.75,1.6c-.63.7-1.4,1.64-2.3,2.8l-7.95,10.25Z" transform="translate(501.83 0)" style="fill:#231f20"/><path d="M335.06,77.87h-2.9l17.65-38.5h2.45Z" transform="translate(501.83 0)" style="fill:#231f20"/><path d="M389.81,62.37a28.23,28.23,0,0,1-.77,6.95,12.21,12.21,0,0,1-2.5,5,10.77,10.77,0,0,1-4.48,3,19.17,19.17,0,0,1-6.65,1,25.61,25.61,0,0,1-6.45-.72,11,11,0,0,1-4.6-2.4,10.12,10.12,0,0,1-2.75-4.38,21.21,21.21,0,0,1-.9-6.65V51c0-2.46-.06-4.36-.17-5.7a5,5,0,0,0-1-3,3,3,0,0,0-1.62-.87,13.28,13.28,0,0,0-2.73-.23v-1.9h17v1.9a15.58,15.58,0,0,0-2.75.2,2.63,2.63,0,0,0-1.65,1,5.61,5.61,0,0,0-.9,2.88c-.13,1.31-.2,3.21-.2,5.67v13.6a17.72,17.72,0,0,0,.53,4.53A8.27,8.27,0,0,0,369,72.5a7.38,7.38,0,0,0,3.13,2.07,13.78,13.78,0,0,0,4.72.7q5,0,7.5-2.77t2.5-8.18v-12a49.06,49.06,0,0,0-.35-6.75,5.83,5.83,0,0,0-1.3-3.25,3.28,3.28,0,0,0-1.75-.82,15.78,15.78,0,0,0-2.6-.18v-1.9h14.5v1.9a11.67,11.67,0,0,0-2.62.25,2.75,2.75,0,0,0-1.63,1.1,7.14,7.14,0,0,0-1,3.28,60.22,60.22,0,0,0-.25,6.37Z" transform="translate(501.83 0)" style="fill:#231f20"/><path d="M409.76,68.42a30.93,30.93,0,0,0,.2,4,4.87,4.87,0,0,0,.78,2.25,2.63,2.63,0,0,0,1.65,1,14.11,14.11,0,0,0,2.82.3v1.9H399V76a13.41,13.41,0,0,0,2.83-.32,3.08,3.08,0,0,0,1.67-1,4.34,4.34,0,0,0,.8-2.12,27.82,27.82,0,0,0,.2-3.73V48.47a29.76,29.76,0,0,0-.17-3.47,5.23,5.23,0,0,0-.7-2.18,2.76,2.76,0,0,0-1.53-1.12,10.78,10.78,0,0,0-2.6-.43v-1.9h15.2v1.9a8.87,8.87,0,0,0-2.57.4,2.91,2.91,0,0,0-1.5,1.18,5.38,5.38,0,0,0-.7,2.27,31.09,31.09,0,0,0-.18,3.7Z" transform="translate(501.83 0)" style="fill:#231f20"/><path d="M-501.83,158.16V271.72h222.88V158.16ZM-375,180.33c-3.07,0-5.38.63-6.95,1.9a14.13,14.13,0,0,0-3.95,6.2l-25.1,66.1h-3.5l-19.2-56.9-21.3,56.9h-3.5l-20.8-57.4q-1.8-4.8-3.25-8a20.88,20.88,0,0,0-3.1-5.15,9.31,9.31,0,0,0-3.75-2.7,14.45,14.45,0,0,0-5.1-.8v-3.9h32.6v3.9q-5.1,0-7.15.9a3.45,3.45,0,0,0-2,3.5,13.06,13.06,0,0,0,.4,3c.27,1.13.67,2.47,1.2,4l15.2,46.3,12.3-34.6q1.39-3.9,2.75-7.25t2.15-6.05q-1.4-2.89-2.55-4.8a14.46,14.46,0,0,0-2.3-3,7,7,0,0,0-2.4-1.55,7.76,7.76,0,0,0-2.65-.45v-3.9h30.6v3.9a45.26,45.26,0,0,0-4.7.2,8.86,8.86,0,0,0-2.75.65,2.52,2.52,0,0,0-1.3,1.25,4.77,4.77,0,0,0-.35,1.9,15,15,0,0,0,.55,3.65c.37,1.43.88,3.25,1.55,5.45l13.4,44.9,15.6-43.4q1.39-3.9,2-6.2a16.17,16.17,0,0,0,.6-4c0-1.73-.55-2.92-1.65-3.55s-3.05-.95-5.85-.95v-3.8H-375Zm78.8,51a33.94,33.94,0,0,1-8.15,11.75,37.41,37.41,0,0,1-12.55,7.65,45.13,45.13,0,0,1-16,2.75H-372v-3.8a39.93,39.93,0,0,0,6.15-.55,7.07,7.07,0,0,0,3.65-1.7,6.37,6.37,0,0,0,1.75-3.4,29.21,29.21,0,0,0,.45-5.75v-46.6a37,37,0,0,0-.35-5.65,6.88,6.88,0,0,0-1.4-3.4,5.41,5.41,0,0,0-3.05-1.7,33.8,33.8,0,0,0-5.2-.65v-3.8h35.1a45.21,45.21,0,0,1,16.65,3,40.09,40.09,0,0,1,13.2,8.3,37.43,37.43,0,0,1,8.65,12.6,40.22,40.22,0,0,1,3.1,15.9A38.28,38.28,0,0,1-296.19,231.38Z" transform="translate(501.83 0)" style="fill:#231f20"/><path d="M-314,190.73a25.17,25.17,0,0,0-9-6.9,28.76,28.76,0,0,0-12-2.4h-12.7a1.51,1.51,0,0,0-1.7,1.7v54.1q0,11.4,14.9,11.4,13.69,0,21-8.15t7.3-23.95a50.43,50.43,0,0,0-2-14.8A31.33,31.33,0,0,0-314,190.73Z" transform="translate(501.83 0)" style="fill:#231f20"/><path d="M-107.77,159.93V270H-279.06v-110h171.29m1.77-1.77H-280.83V271.72H-106V158.16Z" transform="translate(501.83 0)" style="fill:#231f20"/></svg>