<svg id="Layer_1" data-name="Layer 1" xmlns="http://www.w3.org/2000/svg" viewBox="0 0 201.2 78"><title>wd</title><path d="M129.49,160.82l15.6-43.4c.94-2.6,1.6-4.67,2-6.2a16.23,16.23,0,0,0,.6-4c0-1.74-.55-2.92-1.65-3.55s-3-1-5.85-1v-3.8h24.3v3.8q-4.59,0-7,1.9a14.16,14.16,0,0,0-3.95,6.2l-25.1,66.1H125L105.79,120l-21.3,56.9H81l-20.8-57.4c-1.2-3.2-2.28-5.89-3.25-8a20.39,20.39,0,0,0-3.1-5.15,9.31,9.31,0,0,0-3.75-2.7,14.22,14.22,0,0,0-5.1-.8v-3.9h32.6v3.9q-5.1,0-7.15.9a3.45,3.45,0,0,0-2,3.5,13.79,13.79,0,0,0,.4,3c.27,1.13.67,2.46,1.2,4l15.2,46.3,12.3-34.6c.94-2.6,1.85-5,2.75-7.25s1.62-4.25,2.15-6q-1.4-2.91-2.55-4.8a14.12,14.12,0,0,0-2.3-3,6.65,6.65,0,0,0-2.4-1.55,7.72,7.72,0,0,0-2.65-.45v-3.9h30.6v3.9a42.62,42.62,0,0,0-4.7.2,8.94,8.94,0,0,0-2.75.65,2.52,2.52,0,0,0-1.3,1.25,4.74,4.74,0,0,0-.35,1.9,15.54,15.54,0,0,0,.55,3.65q.55,2.15,1.55,5.45Z" transform="translate(-44.99 -98.91)"/><path d="M167.49,175.92v-3.8a39.69,39.69,0,0,0,6.15-.55,7.07,7.07,0,0,0,3.65-1.7,6.4,6.4,0,0,0,1.75-3.4,29.28,29.28,0,0,0,.45-5.75v-46.6a35.66,35.66,0,0,0-.35-5.65,6.84,6.84,0,0,0-1.4-3.4,5.32,5.32,0,0,0-3.05-1.7,33.64,33.64,0,0,0-5.2-.65v-3.8h35.1a45.21,45.21,0,0,1,16.65,3,39.93,39.93,0,0,1,13.2,8.3,37.29,37.29,0,0,1,8.65,12.6,40.15,40.15,0,0,1,3.1,15.9,38.13,38.13,0,0,1-2.9,15.05,34,34,0,0,1-8.15,11.75,37.74,37.74,0,0,1-12.55,7.65,45.09,45.09,0,0,1-16,2.75Zm24.2-72.1a1.5,1.5,0,0,0-1.7,1.7v54.1q0,11.4,14.9,11.4,13.71,0,21-8.15t7.3-24a50,50,0,0,0-2-14.8,31.24,31.24,0,0,0-5.75-11,25.17,25.17,0,0,0-9.05-6.9,28.76,28.76,0,0,0-12-2.4Z" transform="translate(-44.99 -98.91)"/><polyline points="119.01 0 119.41 3.8 125.01 3.8 125.01 0"/></svg>